SplineFontDB: 3.2
FontName: CoqBrainsMono-Regular
FullName: CoqBrains Mono Regular
FamilyName: CoqBrains Mono
Weight: Regular
Copyright: Copyright 2020 \nCodeBrains Mono for Coq\nAuthor https:github.comvbcpascalCodeBrainsMono\nBased on\nThe JetBrains Mono Project\nAuthors https:github.comJetBrainsJetBrainsMono
Version: 0.2
ItalicAngle: 0
UnderlinePosition: -180
UnderlineWidth: 50
Ascent: 800
Descent: 200
InvalidEm: 0
sfntRevision: 0x0000199a
LayerCount: 2
Layer: 0 0 "Back" 1
Layer: 1 0 "Fore" 0
XUID: [1021 35 135779605 21850]
StyleMap: 0x0040
FSType: 0
OS2Version: 4
OS2_WeightWidthSlopeOnly: 0
OS2_UseTypoMetrics: 1
CreationTime: 1611741801
ModificationTime: 1618687081
PfmFamily: 17
TTFWeight: 400
TTFWidth: 5
LineGap: 0
VLineGap: 0
Panose: 2 0 0 9 0 0 0 0 0 0
OS2TypoAscent: 1020
OS2TypoAOffset: 0
OS2TypoDescent: -300
OS2TypoDOffset: 0
OS2TypoLinegap: 0
OS2WinAscent: 1020
OS2WinAOffset: 0
OS2WinDescent: 300
OS2WinDOffset: 0
HheadAscent: 1020
HheadAOffset: 0
HheadDescent: -300
HheadDOffset: 0
OS2SubXSize: 650
OS2SubYSize: 600
OS2SubXOff: 0
OS2SubYOff: 75
OS2SupXSize: 650
OS2SupYSize: 600
OS2SupXOff: 0
OS2SupYOff: 350
OS2StrikeYSize: 50
OS2StrikeYPos: 320
OS2CapHeight: 730
OS2XHeight: 550
OS2Vendor: 'JB  '
OS2CodePages: 2000019f.dfd70000
OS2UnicodeRanges: a00002ff.1000f8eb.00000008.00000000
Lookup: 4 0 0 "Coq" { "Coq"  } ['liga' ('DFLT' <'dflt' > 'cyrl' <'dflt' > 'grek' <'dflt' > 'latn' <'AZE ' 'CAT ' 'CRT ' 'KAZ ' 'MOL ' 'ROM ' 'TAT ' 'TRK ' 'dflt' > ) ]
Lookup: 4 0 0 "exclam_hyphen_greater" { "exclam_hyphen_greater"  } ['liga' ('DFLT' <'dflt' > 'cyrl' <'dflt' > 'grek' <'dflt' > 'latn' <'AZE ' 'CAT ' 'CRT ' 'KAZ ' 'MOL ' 'ROM ' 'TAT ' 'TRK ' 'dflt' > ) ]
Lookup: 4 0 0 "backslash_slash" { "backslash_slash"  } ['liga' ('DFLT' <'dflt' > 'cyrl' <'dflt' > 'grek' <'dflt' > 'latn' <'AZE ' 'CAT ' 'CRT ' 'KAZ ' 'MOL ' 'ROM ' 'TAT ' 'TRK ' 'dflt' > ) ]

StartChar: .notdef
Encoding: 65536 -1 0
Width: 600
Flags: W
LayerCount: 2
Fore
SplineSet
90 0 m 1
 90 730 l 1
 510 730 l 1
 510 0 l 1
 90 0 l 1
140 109 m 1
 440 680 l 1
 140 680 l 1
 140 109 l 1
160 50 m 1
 460 50 l 1
 460 621 l 1
 160 50 l 1
EndSplineSet
Validated: 1
EndChar

StartChar: A
Encoding: 65 65 1
Width: 600
GlyphClass: 2
Flags: W
AnchorPoint: "Anchor-3" 500 0 basechar 0
AnchorPoint: "Anchor-2" 300 0 basechar 0
AnchorPoint: "Anchor-0" 300 730 basechar 0
LayerCount: 2
Fore
SplineSet
50 0 m 1
 240 730 l 1
 361 730 l 1
 550 0 l 1
 459 0 l 1
 411 194 l 1
 190 194 l 1
 142 0 l 1
 50 0 l 1
208 270 m 1
 392 270 l 1
 336 495 l 2
 315 580 303 640 300 658 c 1
 297 640 285 580 264 496 c 2
 208 270 l 1
EndSplineSet
Validated: 1
Substitution2: "Single Substitution lookup 375 subtable" ordfeminine
Substitution2: "'aalt' Access All Alternates in Latin lookup 0 subtable" ordfeminine
EndChar

StartChar: Aacute
Encoding: 193 193 2
Width: 600
GlyphClass: 2
Flags: W
AnchorPoint: "Anchor-3" 500 0 basechar 0
AnchorPoint: "Anchor-2" 300 0 basechar 0
AnchorPoint: "Anchor-0" 300 730 basechar 0
LayerCount: 2
Fore
SplineSet
242 810 m 1
 348 950 l 1
 445 950 l 1
 334 810 l 1
 242 810 l 1
50 0 m 1
 240 730 l 1
 361 730 l 1
 550 0 l 1
 459 0 l 1
 411 194 l 1
 190 194 l 1
 142 0 l 1
 50 0 l 1
208 270 m 1
 392 270 l 1
 336 495 l 2
 315 580 303 640 300 658 c 1
 297 640 285 580 264 496 c 2
 208 270 l 1
EndSplineSet
Validated: 1
EndChar

StartChar: Abreve
Encoding: 258 258 3
Width: 600
GlyphClass: 2
Flags: W
AnchorPoint: "Anchor-3" 500 0 basechar 0
AnchorPoint: "Anchor-2" 300 0 basechar 0
AnchorPoint: "Anchor-0" 300 730 basechar 0
LayerCount: 2
Fore
SplineSet
300 805 m 0
 204 805 140 863 140 950 c 1
 211 950 l 1
 211 898 246 863 299 863 c 0
 353 863 389 898 389 950 c 1
 460 950 l 1
 460 863 396 805 300 805 c 0
50 0 m 1
 240 730 l 1
 361 730 l 1
 550 0 l 1
 459 0 l 1
 411 194 l 1
 190 194 l 1
 142 0 l 1
 50 0 l 1
208 270 m 1
 392 270 l 1
 336 495 l 2
 315 580 303 640 300 658 c 1
 297 640 285 580 264 496 c 2
 208 270 l 1
EndSplineSet
Validated: 1
EndChar

StartChar: uni1EAE
Encoding: 7854 7854 4
Width: 600
GlyphClass: 2
Flags: W
AnchorPoint: "Anchor-3" 500 0 basechar 0
AnchorPoint: "Anchor-2" 300 0 basechar 0
AnchorPoint: "Anchor-0" 300 730 basechar 0
LayerCount: 2
Fore
SplineSet
237 900 m 1
 342 1020 l 1
 438 1020 l 1
 328 900 l 1
 237 900 l 1
275 780 m 2
 189 780 135 830 135 910 c 1
 205 910 l 1
 205 867 232 840 275 840 c 2
 324 840 l 2
 368 840 395 867 395 910 c 1
 465 910 l 1
 465 830 410 780 324 780 c 2
 275 780 l 2
50 0 m 1
 240 730 l 1
 361 730 l 1
 550 0 l 1
 459 0 l 1
 411 194 l 1
 190 194 l 1
 142 0 l 1
 50 0 l 1
208 270 m 1
 392 270 l 1
 336 495 l 2
 315 580 303 640 300 658 c 1
 297 640 285 580 264 496 c 2
 208 270 l 1
EndSplineSet
Validated: 1
EndChar

StartChar: uni1EB6
Encoding: 7862 7862 5
Width: 600
GlyphClass: 2
Flags: W
AnchorPoint: "Anchor-3" 500 0 basechar 0
AnchorPoint: "Anchor-2" 300 0 basechar 0
AnchorPoint: "Anchor-0" 300 730 basechar 0
LayerCount: 2
Fore
SplineSet
300 805 m 0
 204 805 140 863 140 950 c 1
 211 950 l 1
 211 898 246 863 299 863 c 0
 353 863 389 898 389 950 c 1
 460 950 l 1
 460 863 396 805 300 805 c 0
50 0 m 1
 240 730 l 1
 361 730 l 1
 550 0 l 1
 459 0 l 1
 411 194 l 1
 190 194 l 1
 142 0 l 1
 50 0 l 1
208 270 m 1
 392 270 l 1
 336 495 l 2
 315 580 303 640 300 658 c 1
 297 640 285 580 264 496 c 2
 208 270 l 1
300 -213 m 0
 256 -213 229 -189 229 -150 c 0
 229 -110 256 -85 300 -85 c 0
 344 -85 371 -110 371 -150 c 0
 371 -189 344 -213 300 -213 c 0
EndSplineSet
Validated: 1
EndChar

StartChar: uni1EB0
Encoding: 7856 7856 6
Width: 600
GlyphClass: 2
Flags: W
AnchorPoint: "Anchor-3" 500 0 basechar 0
AnchorPoint: "Anchor-2" 300 0 basechar 0
AnchorPoint: "Anchor-0" 300 730 basechar 0
LayerCount: 2
Fore
SplineSet
272 900 m 1
 172 1020 l 1
 268 1020 l 1
 363 900 l 1
 272 900 l 1
275 780 m 2
 189 780 135 830 135 910 c 1
 205 910 l 1
 205 867 232 840 275 840 c 2
 324 840 l 2
 368 840 395 867 395 910 c 1
 465 910 l 1
 465 830 410 780 324 780 c 2
 275 780 l 2
50 0 m 1
 240 730 l 1
 361 730 l 1
 550 0 l 1
 459 0 l 1
 411 194 l 1
 190 194 l 1
 142 0 l 1
 50 0 l 1
208 270 m 1
 392 270 l 1
 336 495 l 2
 315 580 303 640 300 658 c 1
 297 640 285 580 264 496 c 2
 208 270 l 1
EndSplineSet
Validated: 1
EndChar

StartChar: uni1EB2
Encoding: 7858 7858 7
Width: 600
GlyphClass: 2
Flags: W
AnchorPoint: "Anchor-3" 500 0 basechar 0
AnchorPoint: "Anchor-2" 300 0 basechar 0
AnchorPoint: "Anchor-0" 300 730 basechar 0
LayerCount: 2
Fore
SplineSet
254 880 m 1
 301 936 l 2
 306 942 308 948 308 952 c 0
 308 957 304 960 298 960 c 2
 225 960 l 1
 225 1020 l 1
 322 1020 l 2
 356 1020 377 1003 377 972 c 0
 377 955 372 934 361 920 c 2
 329 880 l 1
 254 880 l 1
275 780 m 2
 189 780 135 830 135 910 c 1
 205 910 l 1
 205 867 232 840 275 840 c 2
 324 840 l 2
 368 840 395 867 395 910 c 1
 465 910 l 1
 465 830 410 780 324 780 c 2
 275 780 l 2
50 0 m 1
 240 730 l 1
 361 730 l 1
 550 0 l 1
 459 0 l 1
 411 194 l 1
 190 194 l 1
 142 0 l 1
 50 0 l 1
208 270 m 1
 392 270 l 1
 336 495 l 2
 315 580 303 640 300 658 c 1
 297 640 285 580 264 496 c 2
 208 270 l 1
EndSplineSet
Validated: 1
EndChar

StartChar: uni1EB4
Encoding: 7860 7860 8
Width: 600
GlyphClass: 2
Flags: W
AnchorPoint: "Anchor-3" 500 0 basechar 0
AnchorPoint: "Anchor-2" 300 0 basechar 0
AnchorPoint: "Anchor-0" 300 730 basechar 0
LayerCount: 2
Fore
SplineSet
377 920 m 0
 293 920 275 967 230 967 c 0
 212 967 200 955 200 937 c 2
 200 930 l 1
 135 930 l 1
 135 937 l 2
 135 988 170 1020 225 1020 c 0
 310 1020 325 973 370 973 c 0
 388 973 400 985 400 1003 c 2
 400 1010 l 1
 465 1010 l 1
 465 1003 l 2
 465 952 431 920 377 920 c 0
275 780 m 2
 189 780 135 820 135 900 c 1
 205 900 l 1
 205 857 232 840 275 840 c 2
 324 840 l 2
 368 840 395 857 395 900 c 1
 465 900 l 1
 465 820 410 780 324 780 c 2
 275 780 l 2
50 0 m 1
 240 730 l 1
 361 730 l 1
 550 0 l 1
 459 0 l 1
 411 194 l 1
 190 194 l 1
 142 0 l 1
 50 0 l 1
208 270 m 1
 392 270 l 1
 336 495 l 2
 315 580 303 640 300 658 c 1
 297 640 285 580 264 496 c 2
 208 270 l 1
EndSplineSet
Validated: 1
EndChar

StartChar: uni01CD
Encoding: 461 461 9
Width: 600
GlyphClass: 2
Flags: W
AnchorPoint: "Anchor-3" 500 0 basechar 0
AnchorPoint: "Anchor-2" 300 0 basechar 0
AnchorPoint: "Anchor-0" 300 730 basechar 0
LayerCount: 2
Fore
SplineSet
259 810 m 1
 119 950 l 1
 218 950 l 1
 300 872 l 1
 380 950 l 1
 481 950 l 1
 342 810 l 1
 259 810 l 1
50 0 m 1
 240 730 l 1
 361 730 l 1
 550 0 l 1
 459 0 l 1
 411 194 l 1
 190 194 l 1
 142 0 l 1
 50 0 l 1
208 270 m 1
 392 270 l 1
 336 495 l 2
 315 580 303 640 300 658 c 1
 297 640 285 580 264 496 c 2
 208 270 l 1
EndSplineSet
Validated: 1
EndChar

StartChar: Acircumflex
Encoding: 194 194 10
Width: 600
GlyphClass: 2
Flags: W
AnchorPoint: "Anchor-3" 500 0 basechar 0
AnchorPoint: "Anchor-2" 300 0 basechar 0
AnchorPoint: "Anchor-0" 300 730 basechar 0
LayerCount: 2
Fore
SplineSet
119 810 m 1
 258 950 l 1
 341 950 l 1
 481 810 l 1
 382 810 l 1
 300 888 l 1
 220 810 l 1
 119 810 l 1
50 0 m 1
 240 730 l 1
 361 730 l 1
 550 0 l 1
 459 0 l 1
 411 194 l 1
 190 194 l 1
 142 0 l 1
 50 0 l 1
208 270 m 1
 392 270 l 1
 336 495 l 2
 315 580 303 640 300 658 c 1
 297 640 285 580 264 496 c 2
 208 270 l 1
EndSplineSet
Validated: 1
EndChar

StartChar: uni1EA4
Encoding: 7844 7844 11
Width: 600
GlyphClass: 2
Flags: W
AnchorPoint: "Anchor-3" 500 0 basechar 0
AnchorPoint: "Anchor-2" 300 0 basechar 0
AnchorPoint: "Anchor-0" 300 730 basechar 0
LayerCount: 2
Fore
SplineSet
408 900 m 1
 513 1020 l 1
 615 1020 l 1
 505 900 l 1
 408 900 l 1
120 780 m 1
 258 920 l 1
 342 920 l 1
 481 780 l 1
 380 780 l 1
 300 858 l 1
 219 780 l 1
 120 780 l 1
50 0 m 1
 240 730 l 1
 361 730 l 1
 550 0 l 1
 459 0 l 1
 411 194 l 1
 190 194 l 1
 142 0 l 1
 50 0 l 1
208 270 m 1
 392 270 l 1
 336 495 l 2
 315 580 303 640 300 658 c 1
 297 640 285 580 264 496 c 2
 208 270 l 1
EndSplineSet
Validated: 1
EndChar

StartChar: uni1EAC
Encoding: 7852 7852 12
Width: 600
GlyphClass: 2
Flags: W
AnchorPoint: "Anchor-3" 500 0 basechar 0
AnchorPoint: "Anchor-2" 300 0 basechar 0
AnchorPoint: "Anchor-0" 300 730 basechar 0
LayerCount: 2
Fore
SplineSet
119 810 m 1
 258 950 l 1
 341 950 l 1
 481 810 l 1
 382 810 l 1
 300 888 l 1
 220 810 l 1
 119 810 l 1
50 0 m 1
 240 730 l 1
 361 730 l 1
 550 0 l 1
 459 0 l 1
 411 194 l 1
 190 194 l 1
 142 0 l 1
 50 0 l 1
208 270 m 1
 392 270 l 1
 336 495 l 2
 315 580 303 640 300 658 c 1
 297 640 285 580 264 496 c 2
 208 270 l 1
300 -213 m 0
 256 -213 229 -189 229 -150 c 0
 229 -110 256 -85 300 -85 c 0
 344 -85 371 -110 371 -150 c 0
 371 -189 344 -213 300 -213 c 0
EndSplineSet
Validated: 1
EndChar

StartChar: uni1EA6
Encoding: 7846 7846 13
Width: 600
GlyphClass: 2
Flags: W
AnchorPoint: "Anchor-3" 500 0 basechar 0
AnchorPoint: "Anchor-2" 300 0 basechar 0
AnchorPoint: "Anchor-0" 300 730 basechar 0
LayerCount: 2
Fore
SplineSet
445 900 m 1
 325 1020 l 1
 425 1020 l 1
 540 900 l 1
 445 900 l 1
120 780 m 1
 258 920 l 1
 342 920 l 1
 481 780 l 1
 380 780 l 1
 300 858 l 1
 219 780 l 1
 120 780 l 1
50 0 m 1
 240 730 l 1
 361 730 l 1
 550 0 l 1
 459 0 l 1
 411 194 l 1
 190 194 l 1
 142 0 l 1
 50 0 l 1
208 270 m 1
 392 270 l 1
 336 495 l 2
 315 580 303 640 300 658 c 1
 297 640 285 580 264 496 c 2
 208 270 l 1
EndSplineSet
Validated: 1
EndChar

StartChar: uni1EA8
Encoding: 7848 7848 14
Width: 600
GlyphClass: 2
Flags: W
AnchorPoint: "Anchor-3" 500 0 basechar 0
AnchorPoint: "Anchor-2" 300 0 basechar 0
AnchorPoint: "Anchor-0" 300 730 basechar 0
LayerCount: 2
Fore
SplineSet
420 880 m 1
 468 927 l 2
 473 932 476 939 476 946 c 0
 476 955 470 962 461 962 c 2
 395 962 l 1
 395 1020 l 1
 480 1020 l 2
 523 1020 550 995 550 958 c 0
 550 940 544 924 534 914 c 2
 498 880 l 1
 420 880 l 1
120 780 m 1
 258 920 l 1
 342 920 l 1
 481 780 l 1
 380 780 l 1
 300 858 l 1
 219 780 l 1
 120 780 l 1
50 0 m 1
 240 730 l 1
 361 730 l 1
 550 0 l 1
 459 0 l 1
 411 194 l 1
 190 194 l 1
 142 0 l 1
 50 0 l 1
208 270 m 1
 392 270 l 1
 336 495 l 2
 315 580 303 640 300 658 c 1
 297 640 285 580 264 496 c 2
 208 270 l 1
EndSplineSet
Validated: 1
EndChar

StartChar: uni1EAA
Encoding: 7850 7850 15
Width: 600
GlyphClass: 2
Flags: W
AnchorPoint: "Anchor-3" 500 0 basechar 0
AnchorPoint: "Anchor-2" 300 0 basechar 0
AnchorPoint: "Anchor-0" 300 730 basechar 0
LayerCount: 2
Fore
SplineSet
377 920 m 0
 293 920 275 967 230 967 c 0
 212 967 200 955 200 937 c 2
 200 930 l 1
 135 930 l 1
 135 937 l 2
 135 988 170 1020 225 1020 c 0
 310 1020 325 973 370 973 c 0
 388 973 400 985 400 1003 c 2
 400 1010 l 1
 465 1010 l 1
 465 1003 l 2
 465 952 431 920 377 920 c 0
120 780 m 1
 236 890 l 1
 364 890 l 1
 480 780 l 1
 379 780 l 1
 300 853 l 1
 219 780 l 1
 120 780 l 1
50 0 m 1
 240 730 l 1
 361 730 l 1
 550 0 l 1
 459 0 l 1
 411 194 l 1
 190 194 l 1
 142 0 l 1
 50 0 l 1
208 270 m 1
 392 270 l 1
 336 495 l 2
 315 580 303 640 300 658 c 1
 297 640 285 580 264 496 c 2
 208 270 l 1
EndSplineSet
Validated: 1
EndChar

StartChar: Adieresis
Encoding: 196 196 16
Width: 600
GlyphClass: 2
Flags: W
AnchorPoint: "Anchor-3" 500 0 basechar 0
AnchorPoint: "Anchor-2" 300 0 basechar 0
AnchorPoint: "Anchor-0" 300 730 basechar 0
LayerCount: 2
Fore
SplineSet
411 817 m 0
 372 817 347 841 347 880 c 0
 347 920 372 945 411 945 c 0
 450 945 475 920 475 880 c 0
 475 841 450 817 411 817 c 0
189 817 m 0
 150 817 125 841 125 880 c 0
 125 920 150 945 189 945 c 0
 228 945 253 920 253 880 c 0
 253 841 228 817 189 817 c 0
50 0 m 1
 240 730 l 1
 361 730 l 1
 550 0 l 1
 459 0 l 1
 411 194 l 1
 190 194 l 1
 142 0 l 1
 50 0 l 1
208 270 m 1
 392 270 l 1
 336 495 l 2
 315 580 303 640 300 658 c 1
 297 640 285 580 264 496 c 2
 208 270 l 1
EndSplineSet
Validated: 1
EndChar

StartChar: uni1EA0
Encoding: 7840 7840 17
Width: 600
GlyphClass: 2
Flags: W
AnchorPoint: "Anchor-3" 500 0 basechar 0
AnchorPoint: "Anchor-2" 300 0 basechar 0
AnchorPoint: "Anchor-0" 300 730 basechar 0
LayerCount: 2
Fore
SplineSet
50 0 m 1
 240 730 l 1
 361 730 l 1
 550 0 l 1
 459 0 l 1
 411 194 l 1
 190 194 l 1
 142 0 l 1
 50 0 l 1
208 270 m 1
 392 270 l 1
 336 495 l 2
 315 580 303 640 300 658 c 1
 297 640 285 580 264 496 c 2
 208 270 l 1
300 -213 m 0
 256 -213 229 -189 229 -150 c 0
 229 -110 256 -85 300 -85 c 0
 344 -85 371 -110 371 -150 c 0
 371 -189 344 -213 300 -213 c 0
EndSplineSet
Validated: 1
EndChar

StartChar: Agrave
Encoding: 192 192 18
Width: 600
GlyphClass: 2
Flags: W
AnchorPoint: "Anchor-3" 500 0 basechar 0
AnchorPoint: "Anchor-2" 300 0 basechar 0
AnchorPoint: "Anchor-0" 300 730 basechar 0
LayerCount: 2
Fore
SplineSet
267 810 m 1
 152 950 l 1
 252 950 l 1
 362 810 l 1
 267 810 l 1
50 0 m 1
 240 730 l 1
 361 730 l 1
 550 0 l 1
 459 0 l 1
 411 194 l 1
 190 194 l 1
 142 0 l 1
 50 0 l 1
208 270 m 1
 392 270 l 1
 336 495 l 2
 315 580 303 640 300 658 c 1
 297 640 285 580 264 496 c 2
 208 270 l 1
EndSplineSet
Validated: 1
EndChar

StartChar: uni1EA2
Encoding: 7842 7842 19
Width: 600
GlyphClass: 2
Flags: W
AnchorPoint: "Anchor-3" 500 0 basechar 0
AnchorPoint: "Anchor-2" 300 0 basechar 0
AnchorPoint: "Anchor-0" 300 730 basechar 0
LayerCount: 2
Fore
SplineSet
258 800 m 1
 303 863 l 2
 313 877 317 887 317 895 c 0
 317 909 307 915 285 915 c 2
 210 915 l 1
 210 980 l 1
 290 980 l 2
 353 980 395 950 395 905 c 0
 395 888 389 868 378 852 c 2
 343 800 l 1
 258 800 l 1
50 0 m 1
 240 730 l 1
 361 730 l 1
 550 0 l 1
 459 0 l 1
 411 194 l 1
 190 194 l 1
 142 0 l 1
 50 0 l 1
208 270 m 1
 392 270 l 1
 336 495 l 2
 315 580 303 640 300 658 c 1
 297 640 285 580 264 496 c 2
 208 270 l 1
EndSplineSet
Validated: 1
EndChar

StartChar: Amacron
Encoding: 256 256 20
Width: 600
GlyphClass: 2
Flags: W
AnchorPoint: "Anchor-3" 500 0 basechar 0
AnchorPoint: "Anchor-2" 300 0 basechar 0
AnchorPoint: "Anchor-0" 300 730 basechar 0
LayerCount: 2
Fore
SplineSet
140 840 m 1
 140 915 l 1
 460 915 l 1
 460 840 l 1
 140 840 l 1
50 0 m 1
 240 730 l 1
 361 730 l 1
 550 0 l 1
 459 0 l 1
 411 194 l 1
 190 194 l 1
 142 0 l 1
 50 0 l 1
208 270 m 1
 392 270 l 1
 336 495 l 2
 315 580 303 640 300 658 c 1
 297 640 285 580 264 496 c 2
 208 270 l 1
EndSplineSet
Validated: 1
EndChar

StartChar: Aogonek
Encoding: 260 260 21
Width: 600
GlyphClass: 2
Flags: W
AnchorPoint: "Anchor-3" 500 0 basechar 0
AnchorPoint: "Anchor-2" 300 0 basechar 0
AnchorPoint: "Anchor-0" 300 730 basechar 0
LayerCount: 2
Fore
SplineSet
50 0 m 1
 240 730 l 1
 361 730 l 1
 550 0 l 1
 533 0 l 1
 489 -37 470 -65 470 -93 c 0
 470 -122 491 -143 525 -143 c 2
 585 -143 l 1
 585 -203 l 1
 507 -203 l 2
 433 -203 385 -164 385 -110 c 0
 385 -74 404 -39 459 2 c 1
 411 194 l 1
 190 194 l 1
 142 0 l 1
 50 0 l 1
208 270 m 1
 392 270 l 1
 336 495 l 2
 315 580 303 640 300 658 c 1
 297 640 285 580 264 496 c 2
 208 270 l 1
EndSplineSet
Validated: 1
EndChar

StartChar: Aring
Encoding: 197 197 22
Width: 600
GlyphClass: 2
Flags: W
AnchorPoint: "Anchor-3" 500 0 basechar 0
AnchorPoint: "Anchor-2" 300 0 basechar 0
AnchorPoint: "Anchor-0" 300 730 basechar 0
LayerCount: 2
Fore
SplineSet
300 766 m 0
 228 766 180 812 180 880 c 0
 180 948 228 994 300 994 c 0
 372 994 420 948 420 880 c 0
 420 812 372 766 300 766 c 0
300 819 m 0
 336 819 360 843 360 880 c 0
 360 917 336 942 300 942 c 0
 264 942 240 917 240 880 c 0
 240 843 264 819 300 819 c 0
50 0 m 1
 240 730 l 1
 361 730 l 1
 550 0 l 1
 459 0 l 1
 411 194 l 1
 190 194 l 1
 142 0 l 1
 50 0 l 1
208 270 m 1
 392 270 l 1
 336 495 l 2
 315 580 303 640 300 658 c 1
 297 640 285 580 264 496 c 2
 208 270 l 1
EndSplineSet
Validated: 1
EndChar

StartChar: Atilde
Encoding: 195 195 23
Width: 600
GlyphClass: 2
Flags: W
AnchorPoint: "Anchor-3" 500 0 basechar 0
AnchorPoint: "Anchor-2" 300 0 basechar 0
AnchorPoint: "Anchor-0" 300 730 basechar 0
LayerCount: 2
Fore
SplineSet
370 815 m 0
 290 815 280 885 235 885 c 0
 217 885 205 874 205 850 c 2
 205 820 l 1
 140 820 l 1
 140 850 l 2
 140 910 176 945 230 945 c 0
 310 945 320 875 365 875 c 0
 383 875 395 886 395 910 c 2
 395 940 l 1
 460 940 l 1
 460 910 l 2
 460 850 424 815 370 815 c 0
50 0 m 1
 240 730 l 1
 361 730 l 1
 550 0 l 1
 459 0 l 1
 411 194 l 1
 190 194 l 1
 142 0 l 1
 50 0 l 1
208 270 m 1
 392 270 l 1
 336 495 l 2
 315 580 303 640 300 658 c 1
 297 640 285 580 264 496 c 2
 208 270 l 1
EndSplineSet
Validated: 1
EndChar

StartChar: AE
Encoding: 198 198 24
Width: 600
GlyphClass: 2
Flags: W
AnchorPoint: "Anchor-2" 300 0 basechar 0
AnchorPoint: "Anchor-0" 300 730 basechar 0
LayerCount: 2
Fore
SplineSet
30 0 m 1
 175 730 l 1
 570 730 l 1
 570 648 l 1
 388 648 l 1
 388 420 l 1
 545 420 l 1
 545 338 l 1
 388 338 l 1
 388 82 l 1
 570 82 l 1
 570 0 l 1
 302 0 l 1
 302 203 l 1
 161 203 l 1
 121 0 l 1
 30 0 l 1
175 278 m 1
 302 278 l 1
 302 648 l 1
 246 648 l 1
 175 278 l 1
EndSplineSet
Validated: 1
EndChar

StartChar: AEacute
Encoding: 508 508 25
Width: 600
GlyphClass: 2
Flags: W
AnchorPoint: "Anchor-2" 300 0 basechar 0
AnchorPoint: "Anchor-0" 300 730 basechar 0
LayerCount: 2
Fore
SplineSet
242 810 m 1
 348 950 l 1
 445 950 l 1
 334 810 l 1
 242 810 l 1
30 0 m 1
 175 730 l 1
 570 730 l 1
 570 648 l 1
 388 648 l 1
 388 420 l 1
 545 420 l 1
 545 338 l 1
 388 338 l 1
 388 82 l 1
 570 82 l 1
 570 0 l 1
 302 0 l 1
 302 203 l 1
 161 203 l 1
 121 0 l 1
 30 0 l 1
175 278 m 1
 302 278 l 1
 302 648 l 1
 246 648 l 1
 175 278 l 1
EndSplineSet
Validated: 1
EndChar

StartChar: B
Encoding: 66 66 26
Width: 600
GlyphClass: 2
Flags: W
AnchorPoint: "Anchor-2" 300 0 basechar 0
AnchorPoint: "Anchor-0" 300 730 basechar 0
LayerCount: 2
Fore
SplineSet
93 0 m 1
 93 730 l 1
 300 730 l 2
 433 730 513 659 513 541 c 0
 513 462 472 405 403 386 c 1
 482 364 530 297 530 203 c 0
 530 78 448 0 315 0 c 2
 93 0 l 1
181 419 m 1
 299 419 l 2
 376 419 424 463 424 534 c 0
 424 605 377 649 300 649 c 2
 181 649 l 1
 181 419 l 1
181 81 m 1
 305 81 l 2
 389 81 441 129 441 206 c 0
 441 286 389 341 305 341 c 2
 181 341 l 1
 181 81 l 1
EndSplineSet
Validated: 1
EndChar

StartChar: C
Encoding: 67 67 27
Width: 600
GlyphClass: 2
Flags: W
AnchorPoint: "Anchor-2" 305 0 basechar 0
AnchorPoint: "Anchor-0" 305 730 basechar 0
LayerCount: 2
Fore
SplineSet
304 -10 m 0
 171 -10 88 69 88 200 c 2
 88 530 l 2
 88 661 171 740 304 740 c 0
 435 740 518 659 518 530 c 1
 428 530 l 1
 428 613 382 659 304 659 c 0
 225 659 178 613 178 531 c 2
 178 200 l 2
 178 117 225 71 304 71 c 0
 382 71 428 117 428 200 c 1
 518 200 l 1
 518 71 435 -10 304 -10 c 0
EndSplineSet
Validated: 1
EndChar

StartChar: Cacute
Encoding: 262 262 28
Width: 600
GlyphClass: 2
Flags: W
AnchorPoint: "Anchor-2" 305 0 basechar 0
AnchorPoint: "Anchor-0" 305 730 basechar 0
LayerCount: 2
Fore
SplineSet
247 810 m 1
 353 950 l 1
 450 950 l 1
 339 810 l 1
 247 810 l 1
304 -10 m 0
 171 -10 88 69 88 200 c 2
 88 530 l 2
 88 661 171 740 304 740 c 0
 435 740 518 659 518 530 c 1
 428 530 l 1
 428 613 382 659 304 659 c 0
 225 659 178 613 178 531 c 2
 178 200 l 2
 178 117 225 71 304 71 c 0
 382 71 428 117 428 200 c 1
 518 200 l 1
 518 71 435 -10 304 -10 c 0
EndSplineSet
Validated: 1
EndChar

StartChar: Ccaron
Encoding: 268 268 29
Width: 600
GlyphClass: 2
Flags: W
AnchorPoint: "Anchor-2" 305 0 basechar 0
AnchorPoint: "Anchor-0" 305 730 basechar 0
LayerCount: 2
Fore
SplineSet
264 810 m 1
 124 950 l 1
 223 950 l 1
 305 872 l 1
 385 950 l 1
 486 950 l 1
 347 810 l 1
 264 810 l 1
304 -10 m 0
 171 -10 88 69 88 200 c 2
 88 530 l 2
 88 661 171 740 304 740 c 0
 435 740 518 659 518 530 c 1
 428 530 l 1
 428 613 382 659 304 659 c 0
 225 659 178 613 178 531 c 2
 178 200 l 2
 178 117 225 71 304 71 c 0
 382 71 428 117 428 200 c 1
 518 200 l 1
 518 71 435 -10 304 -10 c 0
EndSplineSet
Validated: 1
EndChar

StartChar: Ccedilla
Encoding: 199 199 30
Width: 600
GlyphClass: 2
Flags: W
AnchorPoint: "Anchor-2" 305 0 basechar 0
AnchorPoint: "Anchor-0" 305 730 basechar 0
LayerCount: 2
Fore
SplineSet
210 -203 m 1
 210 -148 l 1
 280 -148 l 2
 309 -148 329 -130 329 -112 c 0
 329 -89 291 -69 224 -69 c 1
 248 -5 l 1
 148 15 88 89 88 200 c 2
 88 530 l 2
 88 661 171 740 304 740 c 0
 435 740 518 659 518 530 c 1
 428 530 l 1
 428 613 382 659 304 659 c 0
 225 659 178 613 178 531 c 2
 178 200 l 2
 178 117 225 71 304 71 c 0
 382 71 428 117 428 200 c 1
 518 200 l 1
 518 71 435 -10 304 -10 c 1
 295 -35 l 1
 347 -41 415 -68 415 -120 c 0
 415 -166 367 -203 295 -203 c 2
 210 -203 l 1
EndSplineSet
Validated: 1
EndChar

StartChar: Ccircumflex
Encoding: 264 264 31
Width: 600
GlyphClass: 2
Flags: W
AnchorPoint: "Anchor-2" 305 0 basechar 0
AnchorPoint: "Anchor-0" 305 730 basechar 0
LayerCount: 2
Fore
SplineSet
124 810 m 1
 263 950 l 1
 346 950 l 1
 486 810 l 1
 387 810 l 1
 305 888 l 1
 225 810 l 1
 124 810 l 1
304 -10 m 0
 171 -10 88 69 88 200 c 2
 88 530 l 2
 88 661 171 740 304 740 c 0
 435 740 518 659 518 530 c 1
 428 530 l 1
 428 613 382 659 304 659 c 0
 225 659 178 613 178 531 c 2
 178 200 l 2
 178 117 225 71 304 71 c 0
 382 71 428 117 428 200 c 1
 518 200 l 1
 518 71 435 -10 304 -10 c 0
EndSplineSet
Validated: 1
EndChar

StartChar: Cdotaccent
Encoding: 266 266 32
Width: 600
GlyphClass: 2
Flags: W
AnchorPoint: "Anchor-2" 305 0 basechar 0
AnchorPoint: "Anchor-0" 305 730 basechar 0
LayerCount: 2
Fore
SplineSet
305 816 m 0
 261 816 234 841 234 880 c 0
 234 919 261 944 305 944 c 0
 349 944 376 919 376 880 c 0
 376 841 349 816 305 816 c 0
304 -10 m 0
 171 -10 88 69 88 200 c 2
 88 530 l 2
 88 661 171 740 304 740 c 0
 435 740 518 659 518 530 c 1
 428 530 l 1
 428 613 382 659 304 659 c 0
 225 659 178 613 178 531 c 2
 178 200 l 2
 178 117 225 71 304 71 c 0
 382 71 428 117 428 200 c 1
 518 200 l 1
 518 71 435 -10 304 -10 c 0
EndSplineSet
Validated: 1
EndChar

StartChar: D
Encoding: 68 68 33
Width: 600
GlyphClass: 2
Flags: W
AnchorPoint: "Anchor-4" 300 365 basechar 0
AnchorPoint: "Anchor-2" 300 0 basechar 0
AnchorPoint: "Anchor-0" 300 730 basechar 0
LayerCount: 2
Fore
SplineSet
92 0 m 1
 92 730 l 1
 281 730 l 2
 422 730 512 644 512 511 c 2
 512 220 l 2
 512 86 422 0 281 0 c 2
 92 0 l 1
182 80 m 1
 281 80 l 2
 369 80 422 132 422 220 c 2
 422 511 l 2
 422 598 369 650 281 650 c 2
 182 650 l 1
 182 80 l 1
EndSplineSet
Validated: 1
EndChar

StartChar: Eth
Encoding: 208 208 34
Width: 600
GlyphClass: 2
Flags: W
AnchorPoint: "Anchor-4" 300 365 basechar 0
AnchorPoint: "Anchor-2" 300 0 basechar 0
AnchorPoint: "Anchor-0" 300 730 basechar 0
LayerCount: 2
Fore
SplineSet
92 0 m 1
 92 335 l 1
 10 335 l 1
 10 410 l 1
 92 410 l 1
 92 730 l 1
 281 730 l 2
 422 730 512 644 512 511 c 2
 512 220 l 2
 512 86 422 0 281 0 c 2
 92 0 l 1
182 80 m 1
 281 80 l 2
 369 80 422 132 422 220 c 2
 422 511 l 2
 422 598 369 650 281 650 c 2
 182 650 l 1
 182 410 l 1
 290 410 l 1
 290 335 l 1
 182 335 l 1
 182 80 l 1
EndSplineSet
Validated: 1
EndChar

StartChar: Dcaron
Encoding: 270 270 35
Width: 600
GlyphClass: 2
Flags: W
AnchorPoint: "Anchor-4" 300 365 basechar 0
AnchorPoint: "Anchor-2" 300 0 basechar 0
AnchorPoint: "Anchor-0" 300 730 basechar 0
LayerCount: 2
Fore
SplineSet
259 810 m 1
 119 950 l 1
 218 950 l 1
 300 872 l 1
 380 950 l 1
 481 950 l 1
 342 810 l 1
 259 810 l 1
92 0 m 1
 92 730 l 1
 281 730 l 2
 422 730 512 644 512 511 c 2
 512 220 l 2
 512 86 422 0 281 0 c 2
 92 0 l 1
182 80 m 1
 281 80 l 2
 369 80 422 132 422 220 c 2
 422 511 l 2
 422 598 369 650 281 650 c 2
 182 650 l 1
 182 80 l 1
EndSplineSet
Validated: 1
EndChar

StartChar: Dcroat
Encoding: 272 272 36
Width: 600
GlyphClass: 2
Flags: W
AnchorPoint: "Anchor-4" 300 365 basechar 0
AnchorPoint: "Anchor-2" 300 0 basechar 0
AnchorPoint: "Anchor-0" 300 730 basechar 0
LayerCount: 2
Fore
SplineSet
92 0 m 1
 92 335 l 1
 10 335 l 1
 10 410 l 1
 92 410 l 1
 92 730 l 1
 281 730 l 2
 422 730 512 644 512 511 c 2
 512 220 l 2
 512 86 422 0 281 0 c 2
 92 0 l 1
182 80 m 1
 281 80 l 2
 369 80 422 132 422 220 c 2
 422 511 l 2
 422 598 369 650 281 650 c 2
 182 650 l 1
 182 410 l 1
 290 410 l 1
 290 335 l 1
 182 335 l 1
 182 80 l 1
EndSplineSet
Validated: 1
EndChar

StartChar: E
Encoding: 69 69 37
Width: 600
GlyphClass: 2
Flags: W
AnchorPoint: "Anchor-3" 440 0 basechar 0
AnchorPoint: "Anchor-2" 320 0 basechar 0
AnchorPoint: "Anchor-0" 320 730 basechar 0
LayerCount: 2
Fore
SplineSet
100 0 m 1
 100 730 l 1
 520 730 l 1
 520 648 l 1
 189 648 l 1
 189 422 l 1
 485 422 l 1
 485 341 l 1
 189 341 l 1
 189 82 l 1
 520 82 l 1
 520 0 l 1
 100 0 l 1
EndSplineSet
Validated: 1
EndChar

StartChar: Eacute
Encoding: 201 201 38
Width: 600
GlyphClass: 2
Flags: W
AnchorPoint: "Anchor-3" 440 0 basechar 0
AnchorPoint: "Anchor-2" 320 0 basechar 0
AnchorPoint: "Anchor-0" 320 730 basechar 0
LayerCount: 2
Fore
SplineSet
262 810 m 1
 368 950 l 1
 465 950 l 1
 354 810 l 1
 262 810 l 1
100 0 m 1
 100 730 l 1
 520 730 l 1
 520 648 l 1
 189 648 l 1
 189 422 l 1
 485 422 l 1
 485 341 l 1
 189 341 l 1
 189 82 l 1
 520 82 l 1
 520 0 l 1
 100 0 l 1
EndSplineSet
Validated: 1
EndChar

StartChar: Ebreve
Encoding: 276 276 39
Width: 600
GlyphClass: 2
Flags: W
AnchorPoint: "Anchor-3" 440 0 basechar 0
AnchorPoint: "Anchor-2" 320 0 basechar 0
AnchorPoint: "Anchor-0" 320 730 basechar 0
LayerCount: 2
Fore
SplineSet
320 805 m 0
 224 805 160 863 160 950 c 1
 231 950 l 1
 231 898 266 863 319 863 c 0
 373 863 409 898 409 950 c 1
 480 950 l 1
 480 863 416 805 320 805 c 0
100 0 m 1
 100 730 l 1
 520 730 l 1
 520 648 l 1
 189 648 l 1
 189 422 l 1
 485 422 l 1
 485 341 l 1
 189 341 l 1
 189 82 l 1
 520 82 l 1
 520 0 l 1
 100 0 l 1
EndSplineSet
Validated: 1
EndChar

StartChar: Ecaron
Encoding: 282 282 40
Width: 600
GlyphClass: 2
Flags: W
AnchorPoint: "Anchor-3" 440 0 basechar 0
AnchorPoint: "Anchor-2" 320 0 basechar 0
AnchorPoint: "Anchor-0" 320 730 basechar 0
LayerCount: 2
Fore
SplineSet
279 810 m 1
 139 950 l 1
 238 950 l 1
 320 872 l 1
 400 950 l 1
 501 950 l 1
 362 810 l 1
 279 810 l 1
100 0 m 1
 100 730 l 1
 520 730 l 1
 520 648 l 1
 189 648 l 1
 189 422 l 1
 485 422 l 1
 485 341 l 1
 189 341 l 1
 189 82 l 1
 520 82 l 1
 520 0 l 1
 100 0 l 1
EndSplineSet
Validated: 1
EndChar

StartChar: Ecircumflex
Encoding: 202 202 41
Width: 600
GlyphClass: 2
Flags: W
AnchorPoint: "Anchor-3" 440 0 basechar 0
AnchorPoint: "Anchor-2" 320 0 basechar 0
AnchorPoint: "Anchor-0" 320 730 basechar 0
LayerCount: 2
Fore
SplineSet
139 810 m 1
 278 950 l 1
 361 950 l 1
 501 810 l 1
 402 810 l 1
 320 888 l 1
 240 810 l 1
 139 810 l 1
100 0 m 1
 100 730 l 1
 520 730 l 1
 520 648 l 1
 189 648 l 1
 189 422 l 1
 485 422 l 1
 485 341 l 1
 189 341 l 1
 189 82 l 1
 520 82 l 1
 520 0 l 1
 100 0 l 1
EndSplineSet
Validated: 1
EndChar

StartChar: uni1EBE
Encoding: 7870 7870 42
Width: 600
GlyphClass: 2
Flags: W
AnchorPoint: "Anchor-3" 440 0 basechar 0
AnchorPoint: "Anchor-2" 320 0 basechar 0
AnchorPoint: "Anchor-0" 320 730 basechar 0
LayerCount: 2
Fore
SplineSet
428 900 m 1
 533 1020 l 1
 635 1020 l 1
 525 900 l 1
 428 900 l 1
140 780 m 1
 278 920 l 1
 362 920 l 1
 501 780 l 1
 400 780 l 1
 320 858 l 1
 239 780 l 1
 140 780 l 1
100 0 m 1
 100 730 l 1
 520 730 l 1
 520 648 l 1
 189 648 l 1
 189 422 l 1
 485 422 l 1
 485 341 l 1
 189 341 l 1
 189 82 l 1
 520 82 l 1
 520 0 l 1
 100 0 l 1
EndSplineSet
Validated: 1
EndChar

StartChar: uni1EC6
Encoding: 7878 7878 43
Width: 600
GlyphClass: 2
Flags: W
AnchorPoint: "Anchor-3" 440 0 basechar 0
AnchorPoint: "Anchor-2" 320 0 basechar 0
AnchorPoint: "Anchor-0" 320 730 basechar 0
LayerCount: 2
Fore
SplineSet
139 810 m 1
 278 950 l 1
 361 950 l 1
 501 810 l 1
 402 810 l 1
 320 888 l 1
 240 810 l 1
 139 810 l 1
100 0 m 1
 100 730 l 1
 520 730 l 1
 520 648 l 1
 189 648 l 1
 189 422 l 1
 485 422 l 1
 485 341 l 1
 189 341 l 1
 189 82 l 1
 520 82 l 1
 520 0 l 1
 100 0 l 1
320 -213 m 0
 276 -213 249 -189 249 -150 c 0
 249 -110 276 -85 320 -85 c 0
 364 -85 391 -110 391 -150 c 0
 391 -189 364 -213 320 -213 c 0
EndSplineSet
Validated: 1
EndChar

StartChar: uni1EC0
Encoding: 7872 7872 44
Width: 600
GlyphClass: 2
Flags: W
AnchorPoint: "Anchor-3" 440 0 basechar 0
AnchorPoint: "Anchor-2" 320 0 basechar 0
AnchorPoint: "Anchor-0" 320 730 basechar 0
LayerCount: 2
Fore
SplineSet
465 900 m 1
 345 1020 l 1
 445 1020 l 1
 560 900 l 1
 465 900 l 1
140 780 m 1
 278 920 l 1
 362 920 l 1
 501 780 l 1
 400 780 l 1
 320 858 l 1
 239 780 l 1
 140 780 l 1
100 0 m 1
 100 730 l 1
 520 730 l 1
 520 648 l 1
 189 648 l 1
 189 422 l 1
 485 422 l 1
 485 341 l 1
 189 341 l 1
 189 82 l 1
 520 82 l 1
 520 0 l 1
 100 0 l 1
EndSplineSet
Validated: 1
EndChar

StartChar: uni1EC2
Encoding: 7874 7874 45
Width: 600
GlyphClass: 2
Flags: W
AnchorPoint: "Anchor-3" 440 0 basechar 0
AnchorPoint: "Anchor-2" 320 0 basechar 0
AnchorPoint: "Anchor-0" 320 730 basechar 0
LayerCount: 2
Fore
SplineSet
440 880 m 1
 488 927 l 2
 493 932 496 939 496 946 c 0
 496 955 490 962 481 962 c 2
 415 962 l 1
 415 1020 l 1
 500 1020 l 2
 543 1020 570 995 570 958 c 0
 570 940 564 924 554 914 c 2
 518 880 l 1
 440 880 l 1
140 780 m 1
 278 920 l 1
 362 920 l 1
 501 780 l 1
 400 780 l 1
 320 858 l 1
 239 780 l 1
 140 780 l 1
100 0 m 1
 100 730 l 1
 520 730 l 1
 520 648 l 1
 189 648 l 1
 189 422 l 1
 485 422 l 1
 485 341 l 1
 189 341 l 1
 189 82 l 1
 520 82 l 1
 520 0 l 1
 100 0 l 1
EndSplineSet
Validated: 1
EndChar

StartChar: uni1EC4
Encoding: 7876 7876 46
Width: 600
GlyphClass: 2
Flags: W
AnchorPoint: "Anchor-3" 440 0 basechar 0
AnchorPoint: "Anchor-2" 320 0 basechar 0
AnchorPoint: "Anchor-0" 320 730 basechar 0
LayerCount: 2
Fore
SplineSet
397 920 m 0
 313 920 295 967 250 967 c 0
 232 967 220 955 220 937 c 2
 220 930 l 1
 155 930 l 1
 155 937 l 2
 155 988 190 1020 245 1020 c 0
 330 1020 345 973 390 973 c 0
 408 973 420 985 420 1003 c 2
 420 1010 l 1
 485 1010 l 1
 485 1003 l 2
 485 952 451 920 397 920 c 0
140 780 m 1
 256 890 l 1
 384 890 l 1
 500 780 l 1
 399 780 l 1
 320 853 l 1
 239 780 l 1
 140 780 l 1
100 0 m 1
 100 730 l 1
 520 730 l 1
 520 648 l 1
 189 648 l 1
 189 422 l 1
 485 422 l 1
 485 341 l 1
 189 341 l 1
 189 82 l 1
 520 82 l 1
 520 0 l 1
 100 0 l 1
EndSplineSet
Validated: 1
EndChar

StartChar: Edieresis
Encoding: 203 203 47
Width: 600
GlyphClass: 2
Flags: W
AnchorPoint: "Anchor-3" 440 0 basechar 0
AnchorPoint: "Anchor-2" 320 0 basechar 0
AnchorPoint: "Anchor-0" 320 730 basechar 0
LayerCount: 2
Fore
SplineSet
431 817 m 0
 392 817 367 841 367 880 c 0
 367 920 392 945 431 945 c 0
 470 945 495 920 495 880 c 0
 495 841 470 817 431 817 c 0
209 817 m 0
 170 817 145 841 145 880 c 0
 145 920 170 945 209 945 c 0
 248 945 273 920 273 880 c 0
 273 841 248 817 209 817 c 0
100 0 m 1
 100 730 l 1
 520 730 l 1
 520 648 l 1
 189 648 l 1
 189 422 l 1
 485 422 l 1
 485 341 l 1
 189 341 l 1
 189 82 l 1
 520 82 l 1
 520 0 l 1
 100 0 l 1
EndSplineSet
Validated: 1
EndChar

StartChar: Edotaccent
Encoding: 278 278 48
Width: 600
GlyphClass: 2
Flags: W
AnchorPoint: "Anchor-3" 440 0 basechar 0
AnchorPoint: "Anchor-2" 320 0 basechar 0
AnchorPoint: "Anchor-0" 320 730 basechar 0
LayerCount: 2
Fore
SplineSet
320 816 m 0
 276 816 249 841 249 880 c 0
 249 919 276 944 320 944 c 0
 364 944 391 919 391 880 c 0
 391 841 364 816 320 816 c 0
100 0 m 1
 100 730 l 1
 520 730 l 1
 520 648 l 1
 189 648 l 1
 189 422 l 1
 485 422 l 1
 485 341 l 1
 189 341 l 1
 189 82 l 1
 520 82 l 1
 520 0 l 1
 100 0 l 1
EndSplineSet
Validated: 1
EndChar

StartChar: uni1EB8
Encoding: 7864 7864 49
Width: 600
GlyphClass: 2
Flags: W
AnchorPoint: "Anchor-3" 440 0 basechar 0
AnchorPoint: "Anchor-2" 320 0 basechar 0
AnchorPoint: "Anchor-0" 320 730 basechar 0
LayerCount: 2
Fore
SplineSet
100 0 m 1
 100 730 l 1
 520 730 l 1
 520 648 l 1
 189 648 l 1
 189 422 l 1
 485 422 l 1
 485 341 l 1
 189 341 l 1
 189 82 l 1
 520 82 l 1
 520 0 l 1
 100 0 l 1
320 -213 m 0
 276 -213 249 -189 249 -150 c 0
 249 -110 276 -85 320 -85 c 0
 364 -85 391 -110 391 -150 c 0
 391 -189 364 -213 320 -213 c 0
EndSplineSet
Validated: 1
EndChar

StartChar: Egrave
Encoding: 200 200 50
Width: 600
GlyphClass: 2
Flags: W
AnchorPoint: "Anchor-3" 440 0 basechar 0
AnchorPoint: "Anchor-2" 320 0 basechar 0
AnchorPoint: "Anchor-0" 320 730 basechar 0
LayerCount: 2
Fore
SplineSet
287 810 m 1
 172 950 l 1
 272 950 l 1
 382 810 l 1
 287 810 l 1
100 0 m 1
 100 730 l 1
 520 730 l 1
 520 648 l 1
 189 648 l 1
 189 422 l 1
 485 422 l 1
 485 341 l 1
 189 341 l 1
 189 82 l 1
 520 82 l 1
 520 0 l 1
 100 0 l 1
EndSplineSet
Validated: 1
EndChar

StartChar: uni1EBA
Encoding: 7866 7866 51
Width: 600
GlyphClass: 2
Flags: W
AnchorPoint: "Anchor-3" 440 0 basechar 0
AnchorPoint: "Anchor-2" 320 0 basechar 0
AnchorPoint: "Anchor-0" 320 730 basechar 0
LayerCount: 2
Fore
SplineSet
278 800 m 1
 323 863 l 2
 333 877 337 887 337 895 c 0
 337 909 327 915 305 915 c 2
 230 915 l 1
 230 980 l 1
 310 980 l 2
 373 980 415 950 415 905 c 0
 415 888 409 868 398 852 c 2
 363 800 l 1
 278 800 l 1
100 0 m 1
 100 730 l 1
 520 730 l 1
 520 648 l 1
 189 648 l 1
 189 422 l 1
 485 422 l 1
 485 341 l 1
 189 341 l 1
 189 82 l 1
 520 82 l 1
 520 0 l 1
 100 0 l 1
EndSplineSet
Validated: 1
EndChar

StartChar: Emacron
Encoding: 274 274 52
Width: 600
GlyphClass: 2
Flags: W
AnchorPoint: "Anchor-3" 440 0 basechar 0
AnchorPoint: "Anchor-2" 320 0 basechar 0
AnchorPoint: "Anchor-0" 320 730 basechar 0
LayerCount: 2
Fore
SplineSet
160 840 m 1
 160 915 l 1
 480 915 l 1
 480 840 l 1
 160 840 l 1
100 0 m 1
 100 730 l 1
 520 730 l 1
 520 648 l 1
 189 648 l 1
 189 422 l 1
 485 422 l 1
 485 341 l 1
 189 341 l 1
 189 82 l 1
 520 82 l 1
 520 0 l 1
 100 0 l 1
EndSplineSet
Validated: 1
EndChar

StartChar: Eogonek
Encoding: 280 280 53
Width: 600
GlyphClass: 2
Flags: W
AnchorPoint: "Anchor-3" 440 0 basechar 0
AnchorPoint: "Anchor-2" 320 0 basechar 0
AnchorPoint: "Anchor-0" 320 730 basechar 0
LayerCount: 2
Fore
SplineSet
100 0 m 1
 100 730 l 1
 520 730 l 1
 520 648 l 1
 189 648 l 1
 189 422 l 1
 485 422 l 1
 485 341 l 1
 189 341 l 1
 189 82 l 1
 520 82 l 1
 520 0 l 1
 473 0 l 1
 429 -37 410 -65 410 -93 c 0
 410 -122 431 -143 465 -143 c 2
 525 -143 l 1
 525 -203 l 1
 447 -203 l 2
 373 -203 325 -164 325 -110 c 0
 325 -75 344 -40 396 0 c 1
 100 0 l 1
EndSplineSet
Validated: 1
EndChar

StartChar: uni1EBC
Encoding: 7868 7868 54
Width: 600
GlyphClass: 2
Flags: W
AnchorPoint: "Anchor-3" 440 0 basechar 0
AnchorPoint: "Anchor-2" 320 0 basechar 0
AnchorPoint: "Anchor-0" 320 730 basechar 0
LayerCount: 2
Fore
SplineSet
390 815 m 0
 310 815 300 885 255 885 c 0
 237 885 225 874 225 850 c 2
 225 820 l 1
 160 820 l 1
 160 850 l 2
 160 910 196 945 250 945 c 0
 330 945 340 875 385 875 c 0
 403 875 415 886 415 910 c 2
 415 940 l 1
 480 940 l 1
 480 910 l 2
 480 850 444 815 390 815 c 0
100 0 m 1
 100 730 l 1
 520 730 l 1
 520 648 l 1
 189 648 l 1
 189 422 l 1
 485 422 l 1
 485 341 l 1
 189 341 l 1
 189 82 l 1
 520 82 l 1
 520 0 l 1
 100 0 l 1
EndSplineSet
Validated: 1
EndChar

StartChar: F
Encoding: 70 70 55
Width: 600
GlyphClass: 2
Flags: W
AnchorPoint: "Anchor-0" 300 730 basechar 0
LayerCount: 2
Fore
SplineSet
95 0 m 1
 95 730 l 1
 525 730 l 1
 525 648 l 1
 183 648 l 1
 183 406 l 1
 499 406 l 1
 499 324 l 1
 185 324 l 1
 185 0 l 1
 95 0 l 1
EndSplineSet
Validated: 1
EndChar

StartChar: G
Encoding: 71 71 56
Width: 600
GlyphClass: 2
Flags: W
AnchorPoint: "Anchor-2" 304 0 basechar 0
AnchorPoint: "Anchor-0" 300 730 basechar 0
LayerCount: 2
Fore
SplineSet
304 -10 m 0
 171 -10 88 69 88 200 c 2
 88 530 l 2
 88 661 171 740 304 740 c 0
 435 740 518 659 518 530 c 1
 428 530 l 1
 428 613 382 659 304 659 c 0
 225 659 178 613 178 531 c 2
 178 200 l 2
 178 117 225 70 304 70 c 0
 382 70 428 117 428 200 c 2
 428 290 l 1
 280 290 l 1
 280 372 l 1
 518 372 l 1
 518 200 l 2
 518 71 435 -10 304 -10 c 0
EndSplineSet
Validated: 1
EndChar

StartChar: uni01F4
Encoding: 500 500 57
Width: 600
GlyphClass: 2
Flags: W
AnchorPoint: "Anchor-2" 304 0 basechar 0
AnchorPoint: "Anchor-0" 300 730 basechar 0
LayerCount: 2
Fore
SplineSet
242 810 m 1
 348 950 l 1
 445 950 l 1
 334 810 l 1
 242 810 l 1
304 -10 m 0
 171 -10 88 69 88 200 c 2
 88 530 l 2
 88 661 171 740 304 740 c 0
 435 740 518 659 518 530 c 1
 428 530 l 1
 428 613 382 659 304 659 c 0
 225 659 178 613 178 531 c 2
 178 200 l 2
 178 117 225 70 304 70 c 0
 382 70 428 117 428 200 c 2
 428 290 l 1
 280 290 l 1
 280 372 l 1
 518 372 l 1
 518 200 l 2
 518 71 435 -10 304 -10 c 0
EndSplineSet
Validated: 1
EndChar

StartChar: Gbreve
Encoding: 286 286 58
Width: 600
GlyphClass: 2
Flags: W
AnchorPoint: "Anchor-2" 304 0 basechar 0
AnchorPoint: "Anchor-0" 300 730 basechar 0
LayerCount: 2
Fore
SplineSet
300 805 m 0
 204 805 140 863 140 950 c 1
 211 950 l 1
 211 898 246 863 299 863 c 0
 353 863 389 898 389 950 c 1
 460 950 l 1
 460 863 396 805 300 805 c 0
304 -10 m 0
 171 -10 88 69 88 200 c 2
 88 530 l 2
 88 661 171 740 304 740 c 0
 435 740 518 659 518 530 c 1
 428 530 l 1
 428 613 382 659 304 659 c 0
 225 659 178 613 178 531 c 2
 178 200 l 2
 178 117 225 70 304 70 c 0
 382 70 428 117 428 200 c 2
 428 290 l 1
 280 290 l 1
 280 372 l 1
 518 372 l 1
 518 200 l 2
 518 71 435 -10 304 -10 c 0
EndSplineSet
Validated: 1
EndChar

StartChar: Gcaron
Encoding: 486 486 59
Width: 600
GlyphClass: 2
Flags: W
AnchorPoint: "Anchor-2" 304 0 basechar 0
AnchorPoint: "Anchor-0" 300 730 basechar 0
LayerCount: 2
Fore
SplineSet
259 810 m 1
 119 950 l 1
 218 950 l 1
 300 872 l 1
 380 950 l 1
 481 950 l 1
 342 810 l 1
 259 810 l 1
304 -10 m 0
 171 -10 88 69 88 200 c 2
 88 530 l 2
 88 661 171 740 304 740 c 0
 435 740 518 659 518 530 c 1
 428 530 l 1
 428 613 382 659 304 659 c 0
 225 659 178 613 178 531 c 2
 178 200 l 2
 178 117 225 70 304 70 c 0
 382 70 428 117 428 200 c 2
 428 290 l 1
 280 290 l 1
 280 372 l 1
 518 372 l 1
 518 200 l 2
 518 71 435 -10 304 -10 c 0
EndSplineSet
Validated: 1
EndChar

StartChar: Gcircumflex
Encoding: 284 284 60
Width: 600
GlyphClass: 2
Flags: W
AnchorPoint: "Anchor-2" 304 0 basechar 0
AnchorPoint: "Anchor-0" 300 730 basechar 0
LayerCount: 2
Fore
SplineSet
119 810 m 1
 258 950 l 1
 341 950 l 1
 481 810 l 1
 382 810 l 1
 300 888 l 1
 220 810 l 1
 119 810 l 1
304 -10 m 0
 171 -10 88 69 88 200 c 2
 88 530 l 2
 88 661 171 740 304 740 c 0
 435 740 518 659 518 530 c 1
 428 530 l 1
 428 613 382 659 304 659 c 0
 225 659 178 613 178 531 c 2
 178 200 l 2
 178 117 225 70 304 70 c 0
 382 70 428 117 428 200 c 2
 428 290 l 1
 280 290 l 1
 280 372 l 1
 518 372 l 1
 518 200 l 2
 518 71 435 -10 304 -10 c 0
EndSplineSet
Validated: 1
EndChar

StartChar: uni0122
Encoding: 290 290 61
Width: 600
GlyphClass: 2
Flags: W
AnchorPoint: "Anchor-2" 304 0 basechar 0
AnchorPoint: "Anchor-0" 300 730 basechar 0
LayerCount: 2
Fore
SplineSet
304 -10 m 0
 171 -10 88 69 88 200 c 2
 88 530 l 2
 88 661 171 740 304 740 c 0
 435 740 518 659 518 530 c 1
 428 530 l 1
 428 613 382 659 304 659 c 0
 225 659 178 613 178 531 c 2
 178 200 l 2
 178 117 225 70 304 70 c 0
 382 70 428 117 428 200 c 2
 428 290 l 1
 280 290 l 1
 280 372 l 1
 518 372 l 1
 518 200 l 2
 518 71 435 -10 304 -10 c 0
194 -240 m 1
 289 -95 l 1
 394 -95 l 1
 289 -240 l 1
 194 -240 l 1
EndSplineSet
Validated: 1
EndChar

StartChar: Gdotaccent
Encoding: 288 288 62
Width: 600
GlyphClass: 2
Flags: W
AnchorPoint: "Anchor-2" 304 0 basechar 0
AnchorPoint: "Anchor-0" 300 730 basechar 0
LayerCount: 2
Fore
SplineSet
300 816 m 0
 256 816 229 841 229 880 c 0
 229 919 256 944 300 944 c 0
 344 944 371 919 371 880 c 0
 371 841 344 816 300 816 c 0
304 -10 m 0
 171 -10 88 69 88 200 c 2
 88 530 l 2
 88 661 171 740 304 740 c 0
 435 740 518 659 518 530 c 1
 428 530 l 1
 428 613 382 659 304 659 c 0
 225 659 178 613 178 531 c 2
 178 200 l 2
 178 117 225 70 304 70 c 0
 382 70 428 117 428 200 c 2
 428 290 l 1
 280 290 l 1
 280 372 l 1
 518 372 l 1
 518 200 l 2
 518 71 435 -10 304 -10 c 0
EndSplineSet
Validated: 1
EndChar

StartChar: H
Encoding: 72 72 63
Width: 600
GlyphClass: 2
Flags: W
AnchorPoint: "Anchor-0" 300 730 basechar 0
LayerCount: 2
Fore
SplineSet
93 0 m 1
 93 730 l 1
 183 730 l 1
 183 418 l 1
 417 418 l 1
 417 730 l 1
 507 730 l 1
 507 0 l 1
 417 0 l 1
 417 336 l 1
 183 336 l 1
 183 0 l 1
 93 0 l 1
EndSplineSet
Validated: 1
EndChar

StartChar: Hbar
Encoding: 294 294 64
Width: 600
GlyphClass: 2
Flags: W
AnchorPoint: "Anchor-0" 300 730 basechar 0
LayerCount: 2
Fore
SplineSet
93 0 m 1
 93 525 l 1
 10 525 l 1
 10 600 l 1
 93 600 l 1
 93 730 l 1
 183 730 l 1
 183 600 l 1
 417 600 l 1
 417 730 l 1
 507 730 l 1
 507 600 l 1
 590 600 l 1
 590 525 l 1
 507 525 l 1
 507 0 l 1
 417 0 l 1
 417 336 l 1
 183 336 l 1
 183 0 l 1
 93 0 l 1
183 418 m 1
 417 418 l 1
 417 525 l 1
 183 525 l 1
 183 418 l 1
EndSplineSet
Validated: 1
EndChar

StartChar: Hcircumflex
Encoding: 292 292 65
Width: 600
GlyphClass: 2
Flags: W
AnchorPoint: "Anchor-0" 300 730 basechar 0
LayerCount: 2
Fore
SplineSet
119 810 m 1
 258 950 l 1
 341 950 l 1
 481 810 l 1
 382 810 l 1
 300 888 l 1
 220 810 l 1
 119 810 l 1
93 0 m 1
 93 730 l 1
 183 730 l 1
 183 418 l 1
 417 418 l 1
 417 730 l 1
 507 730 l 1
 507 0 l 1
 417 0 l 1
 417 336 l 1
 183 336 l 1
 183 0 l 1
 93 0 l 1
EndSplineSet
Validated: 1
EndChar

StartChar: I
Encoding: 73 73 66
Width: 600
GlyphClass: 2
Flags: W
AnchorPoint: "Anchor-3" 320 0 basechar 0
AnchorPoint: "Anchor-2" 300 0 basechar 0
AnchorPoint: "Anchor-0" 300 730 basechar 0
LayerCount: 2
Fore
SplineSet
105 0 m 1
 105 82 l 1
 254 82 l 1
 254 648 l 1
 105 648 l 1
 105 730 l 1
 495 730 l 1
 495 648 l 1
 346 648 l 1
 346 82 l 1
 495 82 l 1
 495 0 l 1
 105 0 l 1
EndSplineSet
Validated: 1
EndChar

StartChar: Iacute
Encoding: 205 205 67
Width: 600
GlyphClass: 2
Flags: W
AnchorPoint: "Anchor-3" 320 0 basechar 0
AnchorPoint: "Anchor-2" 300 0 basechar 0
AnchorPoint: "Anchor-0" 300 730 basechar 0
LayerCount: 2
Fore
SplineSet
242 810 m 1
 348 950 l 1
 445 950 l 1
 334 810 l 1
 242 810 l 1
105 0 m 1
 105 82 l 1
 254 82 l 1
 254 648 l 1
 105 648 l 1
 105 730 l 1
 495 730 l 1
 495 648 l 1
 346 648 l 1
 346 82 l 1
 495 82 l 1
 495 0 l 1
 105 0 l 1
EndSplineSet
Validated: 1
EndChar

StartChar: Ibreve
Encoding: 300 300 68
Width: 600
GlyphClass: 2
Flags: W
AnchorPoint: "Anchor-3" 320 0 basechar 0
AnchorPoint: "Anchor-2" 300 0 basechar 0
AnchorPoint: "Anchor-0" 300 730 basechar 0
LayerCount: 2
Fore
SplineSet
300 805 m 0
 204 805 140 863 140 950 c 1
 211 950 l 1
 211 898 246 863 299 863 c 0
 353 863 389 898 389 950 c 1
 460 950 l 1
 460 863 396 805 300 805 c 0
105 0 m 1
 105 82 l 1
 254 82 l 1
 254 648 l 1
 105 648 l 1
 105 730 l 1
 495 730 l 1
 495 648 l 1
 346 648 l 1
 346 82 l 1
 495 82 l 1
 495 0 l 1
 105 0 l 1
EndSplineSet
Validated: 1
EndChar

StartChar: Icircumflex
Encoding: 206 206 69
Width: 600
GlyphClass: 2
Flags: W
AnchorPoint: "Anchor-3" 320 0 basechar 0
AnchorPoint: "Anchor-2" 300 0 basechar 0
AnchorPoint: "Anchor-0" 300 730 basechar 0
LayerCount: 2
Fore
SplineSet
119 810 m 1
 258 950 l 1
 341 950 l 1
 481 810 l 1
 382 810 l 1
 300 888 l 1
 220 810 l 1
 119 810 l 1
105 0 m 1
 105 82 l 1
 254 82 l 1
 254 648 l 1
 105 648 l 1
 105 730 l 1
 495 730 l 1
 495 648 l 1
 346 648 l 1
 346 82 l 1
 495 82 l 1
 495 0 l 1
 105 0 l 1
EndSplineSet
Validated: 1
EndChar

StartChar: Idieresis
Encoding: 207 207 70
Width: 600
GlyphClass: 2
Flags: W
AnchorPoint: "Anchor-3" 320 0 basechar 0
AnchorPoint: "Anchor-2" 300 0 basechar 0
AnchorPoint: "Anchor-0" 300 730 basechar 0
LayerCount: 2
Fore
SplineSet
411 817 m 0
 372 817 347 841 347 880 c 0
 347 920 372 945 411 945 c 0
 450 945 475 920 475 880 c 0
 475 841 450 817 411 817 c 0
189 817 m 0
 150 817 125 841 125 880 c 0
 125 920 150 945 189 945 c 0
 228 945 253 920 253 880 c 0
 253 841 228 817 189 817 c 0
105 0 m 1
 105 82 l 1
 254 82 l 1
 254 648 l 1
 105 648 l 1
 105 730 l 1
 495 730 l 1
 495 648 l 1
 346 648 l 1
 346 82 l 1
 495 82 l 1
 495 0 l 1
 105 0 l 1
EndSplineSet
Validated: 1
EndChar

StartChar: Idotaccent
Encoding: 304 304 71
Width: 600
GlyphClass: 2
Flags: W
AnchorPoint: "Anchor-3" 320 0 basechar 0
AnchorPoint: "Anchor-2" 300 0 basechar 0
AnchorPoint: "Anchor-0" 300 730 basechar 0
LayerCount: 2
Fore
SplineSet
300 816 m 0
 256 816 229 841 229 880 c 0
 229 919 256 944 300 944 c 0
 344 944 371 919 371 880 c 0
 371 841 344 816 300 816 c 0
105 0 m 1
 105 82 l 1
 254 82 l 1
 254 648 l 1
 105 648 l 1
 105 730 l 1
 495 730 l 1
 495 648 l 1
 346 648 l 1
 346 82 l 1
 495 82 l 1
 495 0 l 1
 105 0 l 1
EndSplineSet
Validated: 1
EndChar

StartChar: uni1ECA
Encoding: 7882 7882 72
Width: 600
GlyphClass: 2
Flags: W
AnchorPoint: "Anchor-3" 320 0 basechar 0
AnchorPoint: "Anchor-2" 300 0 basechar 0
AnchorPoint: "Anchor-0" 300 730 basechar 0
LayerCount: 2
Fore
SplineSet
105 0 m 1
 105 82 l 1
 254 82 l 1
 254 648 l 1
 105 648 l 1
 105 730 l 1
 495 730 l 1
 495 648 l 1
 346 648 l 1
 346 82 l 1
 495 82 l 1
 495 0 l 1
 105 0 l 1
300 -213 m 0
 256 -213 229 -189 229 -150 c 0
 229 -110 256 -85 300 -85 c 0
 344 -85 371 -110 371 -150 c 0
 371 -189 344 -213 300 -213 c 0
EndSplineSet
Validated: 1
EndChar

StartChar: Igrave
Encoding: 204 204 73
Width: 600
GlyphClass: 2
Flags: W
AnchorPoint: "Anchor-3" 320 0 basechar 0
AnchorPoint: "Anchor-2" 300 0 basechar 0
AnchorPoint: "Anchor-0" 300 730 basechar 0
LayerCount: 2
Fore
SplineSet
267 810 m 1
 152 950 l 1
 252 950 l 1
 362 810 l 1
 267 810 l 1
105 0 m 1
 105 82 l 1
 254 82 l 1
 254 648 l 1
 105 648 l 1
 105 730 l 1
 495 730 l 1
 495 648 l 1
 346 648 l 1
 346 82 l 1
 495 82 l 1
 495 0 l 1
 105 0 l 1
EndSplineSet
Validated: 1
EndChar

StartChar: uni1EC8
Encoding: 7880 7880 74
Width: 600
GlyphClass: 2
Flags: W
AnchorPoint: "Anchor-3" 320 0 basechar 0
AnchorPoint: "Anchor-2" 300 0 basechar 0
AnchorPoint: "Anchor-0" 300 730 basechar 0
LayerCount: 2
Fore
SplineSet
258 800 m 1
 303 863 l 2
 313 877 317 887 317 895 c 0
 317 909 307 915 285 915 c 2
 210 915 l 1
 210 980 l 1
 290 980 l 2
 353 980 395 950 395 905 c 0
 395 888 389 868 378 852 c 2
 343 800 l 1
 258 800 l 1
105 0 m 1
 105 82 l 1
 254 82 l 1
 254 648 l 1
 105 648 l 1
 105 730 l 1
 495 730 l 1
 495 648 l 1
 346 648 l 1
 346 82 l 1
 495 82 l 1
 495 0 l 1
 105 0 l 1
EndSplineSet
Validated: 1
EndChar

StartChar: Imacron
Encoding: 298 298 75
Width: 600
GlyphClass: 2
Flags: W
AnchorPoint: "Anchor-3" 320 0 basechar 0
AnchorPoint: "Anchor-2" 300 0 basechar 0
AnchorPoint: "Anchor-0" 300 730 basechar 0
LayerCount: 2
Fore
SplineSet
140 840 m 1
 140 915 l 1
 460 915 l 1
 460 840 l 1
 140 840 l 1
105 0 m 1
 105 82 l 1
 254 82 l 1
 254 648 l 1
 105 648 l 1
 105 730 l 1
 495 730 l 1
 495 648 l 1
 346 648 l 1
 346 82 l 1
 495 82 l 1
 495 0 l 1
 105 0 l 1
EndSplineSet
Validated: 1
EndChar

StartChar: Iogonek
Encoding: 302 302 76
Width: 600
GlyphClass: 2
Flags: W
AnchorPoint: "Anchor-3" 320 0 basechar 0
AnchorPoint: "Anchor-2" 300 0 basechar 0
AnchorPoint: "Anchor-0" 300 730 basechar 0
LayerCount: 2
Fore
SplineSet
105 0 m 1
 105 82 l 1
 254 82 l 1
 254 648 l 1
 105 648 l 1
 105 730 l 1
 495 730 l 1
 495 648 l 1
 346 648 l 1
 346 82 l 1
 495 82 l 1
 495 0 l 1
 333 0 l 1
 289 -37 270 -65 270 -93 c 0
 270 -122 291 -143 325 -143 c 2
 385 -143 l 1
 385 -203 l 1
 307 -203 l 2
 233 -203 185 -164 185 -110 c 0
 185 -75 204 -40 256 0 c 1
 105 0 l 1
EndSplineSet
Validated: 1
EndChar

StartChar: Itilde
Encoding: 296 296 77
Width: 600
GlyphClass: 2
Flags: W
AnchorPoint: "Anchor-3" 320 0 basechar 0
AnchorPoint: "Anchor-2" 300 0 basechar 0
AnchorPoint: "Anchor-0" 300 730 basechar 0
LayerCount: 2
Fore
SplineSet
370 815 m 0
 290 815 280 885 235 885 c 0
 217 885 205 874 205 850 c 2
 205 820 l 1
 140 820 l 1
 140 850 l 2
 140 910 176 945 230 945 c 0
 310 945 320 875 365 875 c 0
 383 875 395 886 395 910 c 2
 395 940 l 1
 460 940 l 1
 460 910 l 2
 460 850 424 815 370 815 c 0
105 0 m 1
 105 82 l 1
 254 82 l 1
 254 648 l 1
 105 648 l 1
 105 730 l 1
 495 730 l 1
 495 648 l 1
 346 648 l 1
 346 82 l 1
 495 82 l 1
 495 0 l 1
 105 0 l 1
EndSplineSet
Validated: 1
EndChar

StartChar: J
Encoding: 74 74 78
Width: 600
GlyphClass: 2
Flags: W
AnchorPoint: "Anchor-0" 360 730 basechar 0
LayerCount: 2
Fore
SplineSet
270 -10 m 0
 130 -10 45 74 45 210 c 1
 135 210 l 1
 135 121 185 70 270 70 c 0
 355 70 405 121 405 210 c 2
 405 648 l 1
 200 648 l 1
 200 730 l 1
 495 730 l 1
 495 210 l 2
 495 74 409 -10 270 -10 c 0
EndSplineSet
Validated: 1
EndChar

StartChar: Jcircumflex
Encoding: 308 308 79
Width: 600
GlyphClass: 2
Flags: W
AnchorPoint: "Anchor-0" 360 730 basechar 0
LayerCount: 2
Fore
SplineSet
179 810 m 1
 318 950 l 1
 401 950 l 1
 541 810 l 1
 442 810 l 1
 360 888 l 1
 280 810 l 1
 179 810 l 1
270 -10 m 0
 130 -10 45 74 45 210 c 1
 135 210 l 1
 135 121 185 70 270 70 c 0
 355 70 405 121 405 210 c 2
 405 648 l 1
 200 648 l 1
 200 730 l 1
 495 730 l 1
 495 210 l 2
 495 74 409 -10 270 -10 c 0
EndSplineSet
Validated: 1
EndChar

StartChar: K
Encoding: 75 75 80
Width: 600
GlyphClass: 2
Flags: W
AnchorPoint: "Anchor-2" 300 0 basechar 0
AnchorPoint: "Anchor-0" 300 730 basechar 0
LayerCount: 2
Fore
SplineSet
92 0 m 1
 92 730 l 1
 182 730 l 1
 182 417 l 1
 290 417 l 1
 452 730 l 1
 550 730 l 1
 369 379 l 1
 560 0 l 1
 457 0 l 1
 287 338 l 1
 182 338 l 1
 182 0 l 1
 92 0 l 1
EndSplineSet
Validated: 1
EndChar

StartChar: uni0136
Encoding: 310 310 81
Width: 600
GlyphClass: 2
Flags: W
AnchorPoint: "Anchor-2" 300 0 basechar 0
AnchorPoint: "Anchor-0" 300 730 basechar 0
LayerCount: 2
Fore
SplineSet
92 0 m 1
 92 730 l 1
 182 730 l 1
 182 417 l 1
 290 417 l 1
 452 730 l 1
 550 730 l 1
 369 379 l 1
 560 0 l 1
 457 0 l 1
 287 338 l 1
 182 338 l 1
 182 0 l 1
 92 0 l 1
190 -240 m 1
 285 -95 l 1
 390 -95 l 1
 285 -240 l 1
 190 -240 l 1
EndSplineSet
Validated: 1
EndChar

StartChar: L
Encoding: 76 76 82
Width: 600
GlyphClass: 2
Flags: W
AnchorPoint: "Anchor-2" 320 0 basechar 0
AnchorPoint: "Anchor-0" 161 730 basechar 0
LayerCount: 2
Fore
SplineSet
115 0 m 1
 115 730 l 1
 205 730 l 1
 205 82 l 1
 535 82 l 1
 535 0 l 1
 115 0 l 1
EndSplineSet
Validated: 1
EndChar

StartChar: Lacute
Encoding: 313 313 83
Width: 600
GlyphClass: 2
Flags: W
AnchorPoint: "Anchor-2" 320 0 basechar 0
AnchorPoint: "Anchor-0" 161 730 basechar 0
LayerCount: 2
Fore
SplineSet
103 810 m 1
 209 950 l 1
 306 950 l 1
 195 810 l 1
 103 810 l 1
115 0 m 1
 115 730 l 1
 205 730 l 1
 205 82 l 1
 535 82 l 1
 535 0 l 1
 115 0 l 1
EndSplineSet
Validated: 1
EndChar

StartChar: Lcaron
Encoding: 317 317 84
Width: 600
GlyphClass: 2
Flags: W
AnchorPoint: "Anchor-2" 320 0 basechar 0
AnchorPoint: "Anchor-0" 161 730 basechar 0
LayerCount: 2
Fore
SplineSet
115 0 m 1
 115 730 l 1
 205 730 l 1
 205 82 l 1
 535 82 l 1
 535 0 l 1
 115 0 l 1
356 550 m 1
 366 730 l 1
 451 730 l 1
 431 550 l 1
 356 550 l 1
EndSplineSet
Validated: 1
EndChar

StartChar: uni013B
Encoding: 315 315 85
Width: 600
GlyphClass: 2
Flags: W
AnchorPoint: "Anchor-2" 320 0 basechar 0
AnchorPoint: "Anchor-0" 161 730 basechar 0
LayerCount: 2
Fore
SplineSet
115 0 m 1
 115 730 l 1
 205 730 l 1
 205 82 l 1
 535 82 l 1
 535 0 l 1
 115 0 l 1
210 -240 m 1
 305 -95 l 1
 410 -95 l 1
 305 -240 l 1
 210 -240 l 1
EndSplineSet
Validated: 1
EndChar

StartChar: Ldot
Encoding: 319 319 86
Width: 600
GlyphClass: 2
Flags: W
AnchorPoint: "Anchor-2" 320 0 basechar 0
AnchorPoint: "Anchor-0" 161 730 basechar 0
LayerCount: 2
Fore
SplineSet
115 0 m 1
 115 730 l 1
 205 730 l 1
 205 82 l 1
 535 82 l 1
 535 0 l 1
 115 0 l 1
445 265 m 0
 394 265 362 296 362 346 c 0
 362 398 394 431 445 431 c 0
 496 431 528 398 528 346 c 0
 528 296 496 265 445 265 c 0
EndSplineSet
Validated: 1
EndChar

StartChar: Lslash
Encoding: 321 321 87
Width: 600
GlyphClass: 2
Flags: W
AnchorPoint: "Anchor-2" 320 0 basechar 0
AnchorPoint: "Anchor-0" 161 730 basechar 0
LayerCount: 2
Fore
SplineSet
115 0 m 1
 115 294 l 1
 20 230 l 1
 20 310 l 1
 115 374 l 1
 115 730 l 1
 205 730 l 1
 205 435 l 1
 390 560 l 1
 390 480 l 1
 205 355 l 1
 205 82 l 1
 535 82 l 1
 535 0 l 1
 115 0 l 1
EndSplineSet
Validated: 1
EndChar

StartChar: M
Encoding: 77 77 88
Width: 600
GlyphClass: 2
Flags: W
AnchorPoint: "Anchor-2" 300 0 basechar 0
AnchorPoint: "Anchor-0" 300 730 basechar 0
LayerCount: 2
Fore
SplineSet
76 0 m 1
 76 730 l 1
 194 730 l 1
 272 494 l 2
 286 451 297 405 302 382 c 1
 307 405 318 451 332 495 c 2
 406 730 l 1
 524 730 l 1
 524 0 l 1
 436 0 l 1
 436 265 l 2
 436 383 451 578 462 685 c 1
 343 320 l 1
 257 320 l 1
 137 685 l 1
 149 582 164 396 164 265 c 2
 164 0 l 1
 76 0 l 1
EndSplineSet
Validated: 1
EndChar

StartChar: N
Encoding: 78 78 89
Width: 600
GlyphClass: 2
Flags: W
AnchorPoint: "Anchor-2" 300 0 basechar 0
AnchorPoint: "Anchor-0" 300 730 basechar 0
LayerCount: 2
Fore
SplineSet
90 0 m 1
 90 730 l 1
 210 730 l 1
 433 105 l 1
 429 154 423 247 423 320 c 2
 423 730 l 1
 510 730 l 1
 510 0 l 1
 390 0 l 1
 168 625 l 1
 172 576 177 483 177 410 c 2
 177 0 l 1
 90 0 l 1
EndSplineSet
Validated: 1
EndChar

StartChar: Nacute
Encoding: 323 323 90
Width: 600
GlyphClass: 2
Flags: W
AnchorPoint: "Anchor-2" 300 0 basechar 0
AnchorPoint: "Anchor-0" 300 730 basechar 0
LayerCount: 2
Fore
SplineSet
242 810 m 1
 348 950 l 1
 445 950 l 1
 334 810 l 1
 242 810 l 1
90 0 m 1
 90 730 l 1
 210 730 l 1
 433 105 l 1
 429 154 423 247 423 320 c 2
 423 730 l 1
 510 730 l 1
 510 0 l 1
 390 0 l 1
 168 625 l 1
 172 576 177 483 177 410 c 2
 177 0 l 1
 90 0 l 1
EndSplineSet
Validated: 1
EndChar

StartChar: Ncaron
Encoding: 327 327 91
Width: 600
GlyphClass: 2
Flags: W
AnchorPoint: "Anchor-2" 300 0 basechar 0
AnchorPoint: "Anchor-0" 300 730 basechar 0
LayerCount: 2
Fore
SplineSet
259 810 m 1
 119 950 l 1
 218 950 l 1
 300 872 l 1
 380 950 l 1
 481 950 l 1
 342 810 l 1
 259 810 l 1
90 0 m 1
 90 730 l 1
 210 730 l 1
 433 105 l 1
 429 154 423 247 423 320 c 2
 423 730 l 1
 510 730 l 1
 510 0 l 1
 390 0 l 1
 168 625 l 1
 172 576 177 483 177 410 c 2
 177 0 l 1
 90 0 l 1
EndSplineSet
Validated: 1
EndChar

StartChar: uni0145
Encoding: 325 325 92
Width: 600
GlyphClass: 2
Flags: W
AnchorPoint: "Anchor-2" 300 0 basechar 0
AnchorPoint: "Anchor-0" 300 730 basechar 0
LayerCount: 2
Fore
SplineSet
90 0 m 1
 90 730 l 1
 210 730 l 1
 433 105 l 1
 429 154 423 247 423 320 c 2
 423 730 l 1
 510 730 l 1
 510 0 l 1
 390 0 l 1
 168 625 l 1
 172 576 177 483 177 410 c 2
 177 0 l 1
 90 0 l 1
190 -240 m 1
 285 -95 l 1
 390 -95 l 1
 285 -240 l 1
 190 -240 l 1
EndSplineSet
Validated: 1
EndChar

StartChar: Eng
Encoding: 330 330 93
Width: 600
Flags: W
LayerCount: 2
Fore
SplineSet
240 -180 m 1
 240 -98 l 1
 305 -98 l 2
 376 -98 420 -55 420 15 c 1
 168 625 l 1
 172 576 177 483 177 410 c 2
 177 0 l 1
 90 0 l 1
 90 730 l 1
 210 730 l 1
 433 181 l 1
 429 231 423 324 423 397 c 2
 423 730 l 1
 510 730 l 1
 510 15 l 2
 510 -103 429 -180 305 -180 c 2
 240 -180 l 1
EndSplineSet
Validated: 1
EndChar

StartChar: Ntilde
Encoding: 209 209 94
Width: 600
GlyphClass: 2
Flags: W
AnchorPoint: "Anchor-2" 300 0 basechar 0
AnchorPoint: "Anchor-0" 300 730 basechar 0
LayerCount: 2
Fore
SplineSet
370 815 m 0
 290 815 280 885 235 885 c 0
 217 885 205 874 205 850 c 2
 205 820 l 1
 140 820 l 1
 140 850 l 2
 140 910 176 945 230 945 c 0
 310 945 320 875 365 875 c 0
 383 875 395 886 395 910 c 2
 395 940 l 1
 460 940 l 1
 460 910 l 2
 460 850 424 815 370 815 c 0
90 0 m 1
 90 730 l 1
 210 730 l 1
 433 105 l 1
 429 154 423 247 423 320 c 2
 423 730 l 1
 510 730 l 1
 510 0 l 1
 390 0 l 1
 168 625 l 1
 172 576 177 483 177 410 c 2
 177 0 l 1
 90 0 l 1
EndSplineSet
Validated: 1
EndChar

StartChar: O
Encoding: 79 79 95
Width: 600
GlyphClass: 2
Flags: W
AnchorPoint: "Anchor-4" 300 365 basechar 0
AnchorPoint: "Anchor-3" 350 0 basechar 0
AnchorPoint: "Anchor-2" 300 0 basechar 0
AnchorPoint: "Anchor-1" 320 700 basechar 0
AnchorPoint: "Anchor-0" 300 730 basechar 0
LayerCount: 2
Fore
SplineSet
300 -10 m 0
 169 -10 88 69 88 200 c 2
 88 530 l 2
 88 661 169 740 300 740 c 0
 431 740 512 661 512 531 c 2
 512 200 l 2
 512 69 431 -10 300 -10 c 0
300 71 m 0
 378 71 422 117 422 200 c 2
 422 530 l 2
 422 613 378 659 300 659 c 0
 222 659 178 613 178 530 c 2
 178 200 l 2
 178 117 222 71 300 71 c 0
EndSplineSet
Validated: 1
Substitution2: "Single Substitution lookup 375 subtable" ordmasculine
Substitution2: "'aalt' Access All Alternates in Latin lookup 0 subtable" ordmasculine
EndChar

StartChar: Oacute
Encoding: 211 211 96
Width: 600
GlyphClass: 2
Flags: W
AnchorPoint: "Anchor-4" 300 365 basechar 0
AnchorPoint: "Anchor-3" 350 0 basechar 0
AnchorPoint: "Anchor-2" 300 0 basechar 0
AnchorPoint: "Anchor-1" 320 700 basechar 0
AnchorPoint: "Anchor-0" 300 730 basechar 0
LayerCount: 2
Fore
SplineSet
242 810 m 1
 348 950 l 1
 445 950 l 1
 334 810 l 1
 242 810 l 1
300 -10 m 0
 169 -10 88 69 88 200 c 2
 88 530 l 2
 88 661 169 740 300 740 c 0
 431 740 512 661 512 531 c 2
 512 200 l 2
 512 69 431 -10 300 -10 c 0
300 71 m 0
 378 71 422 117 422 200 c 2
 422 530 l 2
 422 613 378 659 300 659 c 0
 222 659 178 613 178 530 c 2
 178 200 l 2
 178 117 222 71 300 71 c 0
EndSplineSet
Validated: 1
EndChar

StartChar: Obreve
Encoding: 334 334 97
Width: 600
GlyphClass: 2
Flags: W
AnchorPoint: "Anchor-4" 300 365 basechar 0
AnchorPoint: "Anchor-3" 350 0 basechar 0
AnchorPoint: "Anchor-2" 300 0 basechar 0
AnchorPoint: "Anchor-1" 320 700 basechar 0
AnchorPoint: "Anchor-0" 300 730 basechar 0
LayerCount: 2
Fore
SplineSet
300 805 m 0
 204 805 140 863 140 950 c 1
 211 950 l 1
 211 898 246 863 299 863 c 0
 353 863 389 898 389 950 c 1
 460 950 l 1
 460 863 396 805 300 805 c 0
300 -10 m 0
 169 -10 88 69 88 200 c 2
 88 530 l 2
 88 661 169 740 300 740 c 0
 431 740 512 661 512 531 c 2
 512 200 l 2
 512 69 431 -10 300 -10 c 0
300 71 m 0
 378 71 422 117 422 200 c 2
 422 530 l 2
 422 613 378 659 300 659 c 0
 222 659 178 613 178 530 c 2
 178 200 l 2
 178 117 222 71 300 71 c 0
EndSplineSet
Validated: 1
EndChar

StartChar: Ocircumflex
Encoding: 212 212 98
Width: 600
GlyphClass: 2
Flags: W
AnchorPoint: "Anchor-4" 300 365 basechar 0
AnchorPoint: "Anchor-3" 350 0 basechar 0
AnchorPoint: "Anchor-2" 300 0 basechar 0
AnchorPoint: "Anchor-1" 320 700 basechar 0
AnchorPoint: "Anchor-0" 300 730 basechar 0
LayerCount: 2
Fore
SplineSet
119 810 m 1
 258 950 l 1
 341 950 l 1
 481 810 l 1
 382 810 l 1
 300 888 l 1
 220 810 l 1
 119 810 l 1
300 -10 m 0
 169 -10 88 69 88 200 c 2
 88 530 l 2
 88 661 169 740 300 740 c 0
 431 740 512 661 512 531 c 2
 512 200 l 2
 512 69 431 -10 300 -10 c 0
300 71 m 0
 378 71 422 117 422 200 c 2
 422 530 l 2
 422 613 378 659 300 659 c 0
 222 659 178 613 178 530 c 2
 178 200 l 2
 178 117 222 71 300 71 c 0
EndSplineSet
Validated: 1
EndChar

StartChar: uni1ED0
Encoding: 7888 7888 99
Width: 600
GlyphClass: 2
Flags: W
AnchorPoint: "Anchor-4" 300 365 basechar 0
AnchorPoint: "Anchor-3" 350 0 basechar 0
AnchorPoint: "Anchor-2" 300 0 basechar 0
AnchorPoint: "Anchor-1" 320 700 basechar 0
AnchorPoint: "Anchor-0" 300 730 basechar 0
LayerCount: 2
Fore
SplineSet
408 900 m 1
 513 1020 l 1
 615 1020 l 1
 505 900 l 1
 408 900 l 1
120 780 m 1
 258 920 l 1
 342 920 l 1
 481 780 l 1
 380 780 l 1
 300 858 l 1
 219 780 l 1
 120 780 l 1
300 -10 m 0
 169 -10 88 69 88 200 c 2
 88 530 l 2
 88 661 169 740 300 740 c 0
 431 740 512 661 512 531 c 2
 512 200 l 2
 512 69 431 -10 300 -10 c 0
300 71 m 0
 378 71 422 117 422 200 c 2
 422 530 l 2
 422 613 378 659 300 659 c 0
 222 659 178 613 178 530 c 2
 178 200 l 2
 178 117 222 71 300 71 c 0
EndSplineSet
Validated: 1
EndChar

StartChar: uni1ED8
Encoding: 7896 7896 100
Width: 600
GlyphClass: 2
Flags: W
AnchorPoint: "Anchor-4" 300 365 basechar 0
AnchorPoint: "Anchor-3" 350 0 basechar 0
AnchorPoint: "Anchor-2" 300 0 basechar 0
AnchorPoint: "Anchor-1" 320 700 basechar 0
AnchorPoint: "Anchor-0" 300 730 basechar 0
LayerCount: 2
Fore
SplineSet
119 810 m 1
 258 950 l 1
 341 950 l 1
 481 810 l 1
 382 810 l 1
 300 888 l 1
 220 810 l 1
 119 810 l 1
300 -10 m 0
 169 -10 88 69 88 200 c 2
 88 530 l 2
 88 661 169 740 300 740 c 0
 431 740 512 661 512 531 c 2
 512 200 l 2
 512 69 431 -10 300 -10 c 0
300 71 m 0
 378 71 422 117 422 200 c 2
 422 530 l 2
 422 613 378 659 300 659 c 0
 222 659 178 613 178 530 c 2
 178 200 l 2
 178 117 222 71 300 71 c 0
300 -213 m 0
 256 -213 229 -189 229 -150 c 0
 229 -110 256 -85 300 -85 c 0
 344 -85 371 -110 371 -150 c 0
 371 -189 344 -213 300 -213 c 0
EndSplineSet
Validated: 1
EndChar

StartChar: uni1ED2
Encoding: 7890 7890 101
Width: 600
GlyphClass: 2
Flags: W
AnchorPoint: "Anchor-4" 300 365 basechar 0
AnchorPoint: "Anchor-3" 350 0 basechar 0
AnchorPoint: "Anchor-2" 300 0 basechar 0
AnchorPoint: "Anchor-1" 320 700 basechar 0
AnchorPoint: "Anchor-0" 300 730 basechar 0
LayerCount: 2
Fore
SplineSet
445 900 m 1
 325 1020 l 1
 425 1020 l 1
 540 900 l 1
 445 900 l 1
120 780 m 1
 258 920 l 1
 342 920 l 1
 481 780 l 1
 380 780 l 1
 300 858 l 1
 219 780 l 1
 120 780 l 1
300 -10 m 0
 169 -10 88 69 88 200 c 2
 88 530 l 2
 88 661 169 740 300 740 c 0
 431 740 512 661 512 531 c 2
 512 200 l 2
 512 69 431 -10 300 -10 c 0
300 71 m 0
 378 71 422 117 422 200 c 2
 422 530 l 2
 422 613 378 659 300 659 c 0
 222 659 178 613 178 530 c 2
 178 200 l 2
 178 117 222 71 300 71 c 0
EndSplineSet
Validated: 1
EndChar

StartChar: uni1ED4
Encoding: 7892 7892 102
Width: 600
GlyphClass: 2
Flags: W
AnchorPoint: "Anchor-4" 300 365 basechar 0
AnchorPoint: "Anchor-3" 350 0 basechar 0
AnchorPoint: "Anchor-2" 300 0 basechar 0
AnchorPoint: "Anchor-1" 320 700 basechar 0
AnchorPoint: "Anchor-0" 300 730 basechar 0
LayerCount: 2
Fore
SplineSet
420 880 m 1
 468 927 l 2
 473 932 476 939 476 946 c 0
 476 955 470 962 461 962 c 2
 395 962 l 1
 395 1020 l 1
 480 1020 l 2
 523 1020 550 995 550 958 c 0
 550 940 544 924 534 914 c 2
 498 880 l 1
 420 880 l 1
120 780 m 1
 258 920 l 1
 342 920 l 1
 481 780 l 1
 380 780 l 1
 300 858 l 1
 219 780 l 1
 120 780 l 1
300 -10 m 0
 169 -10 88 69 88 200 c 2
 88 530 l 2
 88 661 169 740 300 740 c 0
 431 740 512 661 512 531 c 2
 512 200 l 2
 512 69 431 -10 300 -10 c 0
300 71 m 0
 378 71 422 117 422 200 c 2
 422 530 l 2
 422 613 378 659 300 659 c 0
 222 659 178 613 178 530 c 2
 178 200 l 2
 178 117 222 71 300 71 c 0
EndSplineSet
Validated: 1
EndChar

StartChar: uni1ED6
Encoding: 7894 7894 103
Width: 600
GlyphClass: 2
Flags: W
AnchorPoint: "Anchor-4" 300 365 basechar 0
AnchorPoint: "Anchor-3" 350 0 basechar 0
AnchorPoint: "Anchor-2" 300 0 basechar 0
AnchorPoint: "Anchor-1" 320 700 basechar 0
AnchorPoint: "Anchor-0" 300 730 basechar 0
LayerCount: 2
Fore
SplineSet
377 920 m 0
 293 920 275 967 230 967 c 0
 212 967 200 955 200 937 c 2
 200 930 l 1
 135 930 l 1
 135 937 l 2
 135 988 170 1020 225 1020 c 0
 310 1020 325 973 370 973 c 0
 388 973 400 985 400 1003 c 2
 400 1010 l 1
 465 1010 l 1
 465 1003 l 2
 465 952 431 920 377 920 c 0
120 780 m 1
 236 890 l 1
 364 890 l 1
 480 780 l 1
 379 780 l 1
 300 853 l 1
 219 780 l 1
 120 780 l 1
300 -10 m 0
 169 -10 88 69 88 200 c 2
 88 530 l 2
 88 661 169 740 300 740 c 0
 431 740 512 661 512 531 c 2
 512 200 l 2
 512 69 431 -10 300 -10 c 0
300 71 m 0
 378 71 422 117 422 200 c 2
 422 530 l 2
 422 613 378 659 300 659 c 0
 222 659 178 613 178 530 c 2
 178 200 l 2
 178 117 222 71 300 71 c 0
EndSplineSet
Validated: 1
EndChar

StartChar: Odieresis
Encoding: 214 214 104
Width: 600
GlyphClass: 2
Flags: W
AnchorPoint: "Anchor-4" 300 365 basechar 0
AnchorPoint: "Anchor-3" 350 0 basechar 0
AnchorPoint: "Anchor-2" 300 0 basechar 0
AnchorPoint: "Anchor-1" 320 700 basechar 0
AnchorPoint: "Anchor-0" 300 730 basechar 0
LayerCount: 2
Fore
SplineSet
411 817 m 0
 372 817 347 841 347 880 c 0
 347 920 372 945 411 945 c 0
 450 945 475 920 475 880 c 0
 475 841 450 817 411 817 c 0
189 817 m 0
 150 817 125 841 125 880 c 0
 125 920 150 945 189 945 c 0
 228 945 253 920 253 880 c 0
 253 841 228 817 189 817 c 0
300 -10 m 0
 169 -10 88 69 88 200 c 2
 88 530 l 2
 88 661 169 740 300 740 c 0
 431 740 512 661 512 531 c 2
 512 200 l 2
 512 69 431 -10 300 -10 c 0
300 71 m 0
 378 71 422 117 422 200 c 2
 422 530 l 2
 422 613 378 659 300 659 c 0
 222 659 178 613 178 530 c 2
 178 200 l 2
 178 117 222 71 300 71 c 0
EndSplineSet
Validated: 1
EndChar

StartChar: uni1ECC
Encoding: 7884 7884 105
Width: 600
GlyphClass: 2
Flags: W
AnchorPoint: "Anchor-4" 300 365 basechar 0
AnchorPoint: "Anchor-3" 350 0 basechar 0
AnchorPoint: "Anchor-2" 300 0 basechar 0
AnchorPoint: "Anchor-1" 320 700 basechar 0
AnchorPoint: "Anchor-0" 300 730 basechar 0
LayerCount: 2
Fore
SplineSet
300 -10 m 0
 169 -10 88 69 88 200 c 2
 88 530 l 2
 88 661 169 740 300 740 c 0
 431 740 512 661 512 531 c 2
 512 200 l 2
 512 69 431 -10 300 -10 c 0
300 71 m 0
 378 71 422 117 422 200 c 2
 422 530 l 2
 422 613 378 659 300 659 c 0
 222 659 178 613 178 530 c 2
 178 200 l 2
 178 117 222 71 300 71 c 0
300 -213 m 0
 256 -213 229 -189 229 -150 c 0
 229 -110 256 -85 300 -85 c 0
 344 -85 371 -110 371 -150 c 0
 371 -189 344 -213 300 -213 c 0
EndSplineSet
Validated: 1
EndChar

StartChar: Ograve
Encoding: 210 210 106
Width: 600
GlyphClass: 2
Flags: W
AnchorPoint: "Anchor-4" 300 365 basechar 0
AnchorPoint: "Anchor-3" 350 0 basechar 0
AnchorPoint: "Anchor-2" 300 0 basechar 0
AnchorPoint: "Anchor-1" 320 700 basechar 0
AnchorPoint: "Anchor-0" 300 730 basechar 0
LayerCount: 2
Fore
SplineSet
267 810 m 1
 152 950 l 1
 252 950 l 1
 362 810 l 1
 267 810 l 1
300 -10 m 0
 169 -10 88 69 88 200 c 2
 88 530 l 2
 88 661 169 740 300 740 c 0
 431 740 512 661 512 531 c 2
 512 200 l 2
 512 69 431 -10 300 -10 c 0
300 71 m 0
 378 71 422 117 422 200 c 2
 422 530 l 2
 422 613 378 659 300 659 c 0
 222 659 178 613 178 530 c 2
 178 200 l 2
 178 117 222 71 300 71 c 0
EndSplineSet
Validated: 1
EndChar

StartChar: uni1ECE
Encoding: 7886 7886 107
Width: 600
GlyphClass: 2
Flags: W
AnchorPoint: "Anchor-4" 300 365 basechar 0
AnchorPoint: "Anchor-3" 350 0 basechar 0
AnchorPoint: "Anchor-2" 300 0 basechar 0
AnchorPoint: "Anchor-1" 320 700 basechar 0
AnchorPoint: "Anchor-0" 300 730 basechar 0
LayerCount: 2
Fore
SplineSet
258 800 m 1
 303 863 l 2
 313 877 317 887 317 895 c 0
 317 909 307 915 285 915 c 2
 210 915 l 1
 210 980 l 1
 290 980 l 2
 353 980 395 950 395 905 c 0
 395 888 389 868 378 852 c 2
 343 800 l 1
 258 800 l 1
300 -10 m 0
 169 -10 88 69 88 200 c 2
 88 530 l 2
 88 661 169 740 300 740 c 0
 431 740 512 661 512 531 c 2
 512 200 l 2
 512 69 431 -10 300 -10 c 0
300 71 m 0
 378 71 422 117 422 200 c 2
 422 530 l 2
 422 613 378 659 300 659 c 0
 222 659 178 613 178 530 c 2
 178 200 l 2
 178 117 222 71 300 71 c 0
EndSplineSet
Validated: 1
EndChar

StartChar: Ohorn
Encoding: 416 416 108
Width: 600
GlyphClass: 2
Flags: W
AnchorPoint: "Anchor-4" 300 365 basechar 0
AnchorPoint: "Anchor-3" 350 0 basechar 0
AnchorPoint: "Anchor-2" 300 0 basechar 0
AnchorPoint: "Anchor-1" 320 700 basechar 0
AnchorPoint: "Anchor-0" 290 730 basechar 0
LayerCount: 2
Fore
SplineSet
300 -10 m 0
 169 -10 88 69 88 200 c 2
 88 530 l 2
 88 661 169 740 300 740 c 0
 354 740 399 727 434 702 c 1
 447 707 455 719 455 735 c 2
 455 810 l 1
 530 810 l 1
 530 730 l 2
 530 692 513 664 483 648 c 1
 502 616 512 577 512 531 c 2
 512 200 l 2
 512 69 431 -10 300 -10 c 0
300 71 m 0
 378 71 422 117 422 200 c 2
 422 530 l 2
 422 613 378 659 300 659 c 0
 222 659 178 613 178 530 c 2
 178 200 l 2
 178 117 222 71 300 71 c 0
EndSplineSet
Validated: 1
EndChar

StartChar: uni1EDA
Encoding: 7898 7898 109
Width: 600
GlyphClass: 2
Flags: W
AnchorPoint: "Anchor-4" 300 365 basechar 0
AnchorPoint: "Anchor-3" 350 0 basechar 0
AnchorPoint: "Anchor-2" 300 0 basechar 0
AnchorPoint: "Anchor-1" 320 700 basechar 0
AnchorPoint: "Anchor-0" 290 730 basechar 0
LayerCount: 2
Fore
SplineSet
232 810 m 1
 338 950 l 1
 435 950 l 1
 324 810 l 1
 232 810 l 1
300 -10 m 0
 169 -10 88 69 88 200 c 2
 88 530 l 2
 88 661 169 740 300 740 c 0
 354 740 399 727 434 702 c 1
 447 707 455 719 455 735 c 2
 455 810 l 1
 530 810 l 1
 530 730 l 2
 530 692 513 664 483 648 c 1
 502 616 512 577 512 531 c 2
 512 200 l 2
 512 69 431 -10 300 -10 c 0
300 71 m 0
 378 71 422 117 422 200 c 2
 422 530 l 2
 422 613 378 659 300 659 c 0
 222 659 178 613 178 530 c 2
 178 200 l 2
 178 117 222 71 300 71 c 0
EndSplineSet
Validated: 1
EndChar

StartChar: uni1EE2
Encoding: 7906 7906 110
Width: 600
GlyphClass: 2
Flags: W
AnchorPoint: "Anchor-4" 300 365 basechar 0
AnchorPoint: "Anchor-3" 350 0 basechar 0
AnchorPoint: "Anchor-2" 300 0 basechar 0
AnchorPoint: "Anchor-1" 320 700 basechar 0
AnchorPoint: "Anchor-0" 290 730 basechar 0
LayerCount: 2
Fore
SplineSet
300 -10 m 0
 169 -10 88 69 88 200 c 2
 88 530 l 2
 88 661 169 740 300 740 c 0
 354 740 399 727 434 702 c 1
 447 707 455 719 455 735 c 2
 455 810 l 1
 530 810 l 1
 530 730 l 2
 530 692 513 664 483 648 c 1
 502 616 512 577 512 531 c 2
 512 200 l 2
 512 69 431 -10 300 -10 c 0
300 71 m 0
 378 71 422 117 422 200 c 2
 422 530 l 2
 422 613 378 659 300 659 c 0
 222 659 178 613 178 530 c 2
 178 200 l 2
 178 117 222 71 300 71 c 0
300 -213 m 0
 256 -213 229 -189 229 -150 c 0
 229 -110 256 -85 300 -85 c 0
 344 -85 371 -110 371 -150 c 0
 371 -189 344 -213 300 -213 c 0
EndSplineSet
Validated: 1
EndChar

StartChar: uni1EDC
Encoding: 7900 7900 111
Width: 600
GlyphClass: 2
Flags: W
AnchorPoint: "Anchor-4" 300 365 basechar 0
AnchorPoint: "Anchor-3" 350 0 basechar 0
AnchorPoint: "Anchor-2" 300 0 basechar 0
AnchorPoint: "Anchor-1" 320 700 basechar 0
AnchorPoint: "Anchor-0" 290 730 basechar 0
LayerCount: 2
Fore
SplineSet
257 810 m 1
 142 950 l 1
 242 950 l 1
 352 810 l 1
 257 810 l 1
300 -10 m 0
 169 -10 88 69 88 200 c 2
 88 530 l 2
 88 661 169 740 300 740 c 0
 354 740 399 727 434 702 c 1
 447 707 455 719 455 735 c 2
 455 810 l 1
 530 810 l 1
 530 730 l 2
 530 692 513 664 483 648 c 1
 502 616 512 577 512 531 c 2
 512 200 l 2
 512 69 431 -10 300 -10 c 0
300 71 m 0
 378 71 422 117 422 200 c 2
 422 530 l 2
 422 613 378 659 300 659 c 0
 222 659 178 613 178 530 c 2
 178 200 l 2
 178 117 222 71 300 71 c 0
EndSplineSet
Validated: 1
EndChar

StartChar: uni1EDE
Encoding: 7902 7902 112
Width: 600
GlyphClass: 2
Flags: W
AnchorPoint: "Anchor-4" 300 365 basechar 0
AnchorPoint: "Anchor-3" 350 0 basechar 0
AnchorPoint: "Anchor-2" 300 0 basechar 0
AnchorPoint: "Anchor-1" 320 700 basechar 0
AnchorPoint: "Anchor-0" 290 730 basechar 0
LayerCount: 2
Fore
SplineSet
248 800 m 1
 293 863 l 2
 303 877 307 887 307 895 c 0
 307 909 297 915 275 915 c 2
 200 915 l 1
 200 980 l 1
 280 980 l 2
 343 980 385 950 385 905 c 0
 385 888 379 868 368 852 c 2
 333 800 l 1
 248 800 l 1
300 -10 m 0
 169 -10 88 69 88 200 c 2
 88 530 l 2
 88 661 169 740 300 740 c 0
 354 740 399 727 434 702 c 1
 447 707 455 719 455 735 c 2
 455 810 l 1
 530 810 l 1
 530 730 l 2
 530 692 513 664 483 648 c 1
 502 616 512 577 512 531 c 2
 512 200 l 2
 512 69 431 -10 300 -10 c 0
300 71 m 0
 378 71 422 117 422 200 c 2
 422 530 l 2
 422 613 378 659 300 659 c 0
 222 659 178 613 178 530 c 2
 178 200 l 2
 178 117 222 71 300 71 c 0
EndSplineSet
Validated: 1
EndChar

StartChar: uni1EE0
Encoding: 7904 7904 113
Width: 600
GlyphClass: 2
Flags: W
AnchorPoint: "Anchor-4" 300 365 basechar 0
AnchorPoint: "Anchor-3" 350 0 basechar 0
AnchorPoint: "Anchor-2" 300 0 basechar 0
AnchorPoint: "Anchor-1" 320 700 basechar 0
AnchorPoint: "Anchor-0" 290 730 basechar 0
LayerCount: 2
Fore
SplineSet
360 815 m 0
 280 815 270 885 225 885 c 0
 207 885 195 874 195 850 c 2
 195 820 l 1
 130 820 l 1
 130 850 l 2
 130 910 166 945 220 945 c 0
 300 945 310 875 355 875 c 0
 373 875 385 886 385 910 c 2
 385 940 l 1
 450 940 l 1
 450 910 l 2
 450 850 414 815 360 815 c 0
300 -10 m 0
 169 -10 88 69 88 200 c 2
 88 530 l 2
 88 661 169 740 300 740 c 0
 354 740 399 727 434 702 c 1
 447 707 455 719 455 735 c 2
 455 810 l 1
 530 810 l 1
 530 730 l 2
 530 692 513 664 483 648 c 1
 502 616 512 577 512 531 c 2
 512 200 l 2
 512 69 431 -10 300 -10 c 0
300 71 m 0
 378 71 422 117 422 200 c 2
 422 530 l 2
 422 613 378 659 300 659 c 0
 222 659 178 613 178 530 c 2
 178 200 l 2
 178 117 222 71 300 71 c 0
EndSplineSet
Validated: 1
EndChar

StartChar: Ohungarumlaut
Encoding: 336 336 114
Width: 600
GlyphClass: 2
Flags: W
AnchorPoint: "Anchor-4" 300 365 basechar 0
AnchorPoint: "Anchor-3" 350 0 basechar 0
AnchorPoint: "Anchor-2" 300 0 basechar 0
AnchorPoint: "Anchor-1" 320 700 basechar 0
AnchorPoint: "Anchor-0" 300 730 basechar 0
LayerCount: 2
Fore
SplineSet
326 810 m 1
 436 950 l 1
 528 950 l 1
 413 810 l 1
 326 810 l 1
147 810 m 1
 257 950 l 1
 349 950 l 1
 234 810 l 1
 147 810 l 1
300 -10 m 0
 169 -10 88 69 88 200 c 2
 88 530 l 2
 88 661 169 740 300 740 c 0
 431 740 512 661 512 531 c 2
 512 200 l 2
 512 69 431 -10 300 -10 c 0
300 71 m 0
 378 71 422 117 422 200 c 2
 422 530 l 2
 422 613 378 659 300 659 c 0
 222 659 178 613 178 530 c 2
 178 200 l 2
 178 117 222 71 300 71 c 0
EndSplineSet
Validated: 1
EndChar

StartChar: Omacron
Encoding: 332 332 115
Width: 600
GlyphClass: 2
Flags: W
AnchorPoint: "Anchor-4" 300 365 basechar 0
AnchorPoint: "Anchor-3" 350 0 basechar 0
AnchorPoint: "Anchor-2" 300 0 basechar 0
AnchorPoint: "Anchor-1" 320 700 basechar 0
AnchorPoint: "Anchor-0" 300 730 basechar 0
LayerCount: 2
Fore
SplineSet
140 840 m 1
 140 915 l 1
 460 915 l 1
 460 840 l 1
 140 840 l 1
300 -10 m 0
 169 -10 88 69 88 200 c 2
 88 530 l 2
 88 661 169 740 300 740 c 0
 431 740 512 661 512 531 c 2
 512 200 l 2
 512 69 431 -10 300 -10 c 0
300 71 m 0
 378 71 422 117 422 200 c 2
 422 530 l 2
 422 613 378 659 300 659 c 0
 222 659 178 613 178 530 c 2
 178 200 l 2
 178 117 222 71 300 71 c 0
EndSplineSet
Validated: 1
EndChar

StartChar: uni01EA
Encoding: 490 490 116
Width: 600
GlyphClass: 2
Flags: W
AnchorPoint: "Anchor-1" 320 700 basechar 0
AnchorPoint: "Anchor-0" 300 730 basechar 0
LayerCount: 2
Fore
SplineSet
379 -203 m 2
 305 -203 257 -164 257 -110 c 0
 257 -82 277 -45 313 -10 c 1
 300 -10 l 2
 169 -10 88 69 88 200 c 2
 88 530 l 2
 88 661 169 740 300 740 c 0
 431 740 512 661 512 531 c 2
 512 200 l 2
 512 121 482 60 430 25 c 1
 401 1 l 2
 357 -36 342 -65 342 -93 c 0
 342 -122 363 -143 397 -143 c 2
 457 -143 l 1
 457 -203 l 1
 379 -203 l 2
300 71 m 0
 378 71 422 117 422 200 c 2
 422 530 l 2
 422 613 378 659 300 659 c 0
 222 659 178 613 178 530 c 2
 178 200 l 2
 178 117 222 71 300 71 c 0
EndSplineSet
Validated: 1
EndChar

StartChar: Oslash
Encoding: 216 216 117
Width: 600
GlyphClass: 2
Flags: W
AnchorPoint: "Anchor-2" 300 0 basechar 0
AnchorPoint: "Anchor-1" 320 730 basechar 0
AnchorPoint: "Anchor-0" 300 730 basechar 0
LayerCount: 2
Fore
SplineSet
35 -40 m 1
 111 94 l 1
 96 124 88 159 88 200 c 2
 88 530 l 2
 88 661 169 740 300 740 c 0
 361 740 412 723 448 691 c 1
 481 750 l 1
 565 750 l 1
 495 625 l 1
 506 598 512 566 512 531 c 2
 512 200 l 2
 512 69 431 -10 300 -10 c 0
 243 -10 196 5 160 33 c 1
 119 -40 l 1
 35 -40 l 1
178 530 m 2
 178 213 l 1
 402 610 l 1
 382 642 347 659 300 659 c 0
 222 659 178 613 178 530 c 2
300 71 m 0
 378 71 422 117 422 200 c 2
 422 497 l 1
 204 111 l 1
 225 85 257 71 300 71 c 0
EndSplineSet
Validated: 1
EndChar

StartChar: Oslashacute
Encoding: 510 510 118
Width: 600
GlyphClass: 2
Flags: W
AnchorPoint: "Anchor-2" 300 0 basechar 0
AnchorPoint: "Anchor-1" 320 730 basechar 0
AnchorPoint: "Anchor-0" 300 730 basechar 0
LayerCount: 2
Fore
SplineSet
242 810 m 1
 348 950 l 1
 445 950 l 1
 334 810 l 1
 242 810 l 1
35 -40 m 1
 111 94 l 1
 96 124 88 159 88 200 c 2
 88 530 l 2
 88 661 169 740 300 740 c 0
 361 740 412 723 448 691 c 1
 481 750 l 1
 565 750 l 1
 495 625 l 1
 506 598 512 566 512 531 c 2
 512 200 l 2
 512 69 431 -10 300 -10 c 0
 243 -10 196 5 160 33 c 1
 119 -40 l 1
 35 -40 l 1
178 530 m 2
 178 213 l 1
 402 610 l 1
 382 642 347 659 300 659 c 0
 222 659 178 613 178 530 c 2
300 71 m 0
 378 71 422 117 422 200 c 2
 422 497 l 1
 204 111 l 1
 225 85 257 71 300 71 c 0
EndSplineSet
Validated: 1
EndChar

StartChar: Otilde
Encoding: 213 213 119
Width: 600
GlyphClass: 2
Flags: W
AnchorPoint: "Anchor-4" 300 365 basechar 0
AnchorPoint: "Anchor-3" 350 0 basechar 0
AnchorPoint: "Anchor-2" 300 0 basechar 0
AnchorPoint: "Anchor-1" 320 700 basechar 0
AnchorPoint: "Anchor-0" 300 730 basechar 0
LayerCount: 2
Fore
SplineSet
370 815 m 0
 290 815 280 885 235 885 c 0
 217 885 205 874 205 850 c 2
 205 820 l 1
 140 820 l 1
 140 850 l 2
 140 910 176 945 230 945 c 0
 310 945 320 875 365 875 c 0
 383 875 395 886 395 910 c 2
 395 940 l 1
 460 940 l 1
 460 910 l 2
 460 850 424 815 370 815 c 0
300 -10 m 0
 169 -10 88 69 88 200 c 2
 88 530 l 2
 88 661 169 740 300 740 c 0
 431 740 512 661 512 531 c 2
 512 200 l 2
 512 69 431 -10 300 -10 c 0
300 71 m 0
 378 71 422 117 422 200 c 2
 422 530 l 2
 422 613 378 659 300 659 c 0
 222 659 178 613 178 530 c 2
 178 200 l 2
 178 117 222 71 300 71 c 0
EndSplineSet
Validated: 1
EndChar

StartChar: OE
Encoding: 338 338 120
Width: 600
Flags: W
LayerCount: 2
Fore
SplineSet
195 -10 m 0
 99 -10 40 63 40 180 c 2
 40 550 l 2
 40 667 99 740 195 740 c 0
 264 740 299 689 305 650 c 1
 310 650 l 1
 310 730 l 1
 575 730 l 1
 575 648 l 1
 398 648 l 1
 398 418 l 1
 550 418 l 1
 550 336 l 1
 398 336 l 1
 398 82 l 1
 575 82 l 1
 575 0 l 1
 310 0 l 1
 310 80 l 1
 305 80 l 1
 299 41 264 -10 195 -10 c 0
220 70 m 0
 276 70 310 112 310 180 c 2
 310 550 l 2
 310 618 276 660 220 660 c 0
 164 660 130 618 130 550 c 2
 130 180 l 2
 130 112 164 70 220 70 c 0
EndSplineSet
Validated: 1
EndChar

StartChar: P
Encoding: 80 80 121
Width: 600
GlyphClass: 2
Flags: W
AnchorPoint: "Anchor-0" 300 730 basechar 0
LayerCount: 2
Fore
SplineSet
92 0 m 1
 92 730 l 1
 327 730 l 2
 463 730 550 646 550 515 c 0
 550 384 463 300 327 300 c 2
 182 300 l 1
 182 0 l 1
 92 0 l 1
182 381 m 1
 327 381 l 2
 406 381 457 433 457 515 c 0
 457 597 406 649 327 649 c 2
 182 649 l 1
 182 381 l 1
EndSplineSet
Validated: 1
EndChar

StartChar: Thorn
Encoding: 222 222 122
Width: 600
Flags: W
LayerCount: 2
Fore
SplineSet
90 0 m 1
 90 730 l 1
 180 730 l 1
 180 580 l 1
 333 580 l 2
 464 580 550 500 550 380 c 0
 550 258 465 180 333 180 c 2
 180 180 l 1
 180 0 l 1
 90 0 l 1
180 260 m 1
 333 260 l 2
 410 260 457 306 457 380 c 0
 457 454 409 500 333 500 c 2
 180 500 l 1
 180 260 l 1
EndSplineSet
Validated: 1
EndChar

StartChar: Q
Encoding: 81 81 123
Width: 600
GlyphClass: 2
Flags: W
AnchorPoint: "Anchor-0" 300 730 basechar 0
LayerCount: 2
Fore
SplineSet
422 -180 m 1
 319 -9 l 1
 314 -10 307 -10 300 -10 c 0
 165 -10 80 74 80 205 c 2
 80 525 l 2
 80 656 165 740 300 740 c 0
 435 740 520 656 520 525 c 2
 520 205 l 2
 520 115 479 46 409 13 c 1
 526 -180 l 1
 422 -180 l 1
300 70 m 0
 379 70 430 123 430 205 c 2
 430 525 l 2
 430 607 379 660 300 660 c 0
 221 660 170 607 170 525 c 2
 170 205 l 2
 170 123 221 70 300 70 c 0
EndSplineSet
Validated: 1
EndChar

StartChar: R
Encoding: 82 82 124
Width: 600
GlyphClass: 2
Flags: W
AnchorPoint: "Anchor-2" 300 0 basechar 0
AnchorPoint: "Anchor-0" 300 730 basechar 0
LayerCount: 2
Fore
SplineSet
92 0 m 1
 92 730 l 1
 318 730 l 2
 448 730 535 645 535 520 c 0
 535 421 480 347 392 320 c 1
 545 0 l 1
 439 0 l 1
 299 310 l 1
 182 310 l 1
 182 0 l 1
 92 0 l 1
182 391 m 1
 318 391 l 2
 393 391 442 442 442 520 c 0
 442 598 392 649 318 649 c 2
 182 649 l 1
 182 391 l 1
EndSplineSet
Validated: 1
EndChar

StartChar: Racute
Encoding: 340 340 125
Width: 600
GlyphClass: 2
Flags: W
AnchorPoint: "Anchor-2" 300 0 basechar 0
AnchorPoint: "Anchor-0" 300 730 basechar 0
LayerCount: 2
Fore
SplineSet
242 810 m 1
 348 950 l 1
 445 950 l 1
 334 810 l 1
 242 810 l 1
92 0 m 1
 92 730 l 1
 318 730 l 2
 448 730 535 645 535 520 c 0
 535 421 480 347 392 320 c 1
 545 0 l 1
 439 0 l 1
 299 310 l 1
 182 310 l 1
 182 0 l 1
 92 0 l 1
182 391 m 1
 318 391 l 2
 393 391 442 442 442 520 c 0
 442 598 392 649 318 649 c 2
 182 649 l 1
 182 391 l 1
EndSplineSet
Validated: 1
EndChar

StartChar: Rcaron
Encoding: 344 344 126
Width: 600
GlyphClass: 2
Flags: W
AnchorPoint: "Anchor-2" 300 0 basechar 0
AnchorPoint: "Anchor-0" 300 730 basechar 0
LayerCount: 2
Fore
SplineSet
259 810 m 1
 119 950 l 1
 218 950 l 1
 300 872 l 1
 380 950 l 1
 481 950 l 1
 342 810 l 1
 259 810 l 1
92 0 m 1
 92 730 l 1
 318 730 l 2
 448 730 535 645 535 520 c 0
 535 421 480 347 392 320 c 1
 545 0 l 1
 439 0 l 1
 299 310 l 1
 182 310 l 1
 182 0 l 1
 92 0 l 1
182 391 m 1
 318 391 l 2
 393 391 442 442 442 520 c 0
 442 598 392 649 318 649 c 2
 182 649 l 1
 182 391 l 1
EndSplineSet
Validated: 1
EndChar

StartChar: uni0156
Encoding: 342 342 127
Width: 600
GlyphClass: 2
Flags: W
AnchorPoint: "Anchor-2" 300 0 basechar 0
AnchorPoint: "Anchor-0" 300 730 basechar 0
LayerCount: 2
Fore
SplineSet
92 0 m 1
 92 730 l 1
 318 730 l 2
 448 730 535 645 535 520 c 0
 535 421 480 347 392 320 c 1
 545 0 l 1
 439 0 l 1
 299 310 l 1
 182 310 l 1
 182 0 l 1
 92 0 l 1
182 391 m 1
 318 391 l 2
 393 391 442 442 442 520 c 0
 442 598 392 649 318 649 c 2
 182 649 l 1
 182 391 l 1
190 -240 m 1
 285 -95 l 1
 390 -95 l 1
 285 -240 l 1
 190 -240 l 1
EndSplineSet
Validated: 1
EndChar

StartChar: S
Encoding: 83 83 128
Width: 600
GlyphClass: 2
Flags: W
AnchorPoint: "Anchor-2" 300 0 basechar 0
AnchorPoint: "Anchor-0" 300 730 basechar 0
LayerCount: 2
Fore
SplineSet
304 -10 m 0
 161 -10 74 66 72 190 c 1
 162 190 l 1
 162 116 214 71 304 71 c 0
 388 71 438 115 438 188 c 0
 438 246 405 293 347 311 c 2
 248 342 l 2
 148 373 92 448 92 546 c 0
 92 663 176 741 306 741 c 0
 434 741 517 663 519 545 c 1
 429 545 l 1
 429 617 384 660 305 660 c 0
 227 660 182 620 182 554 c 0
 182 494 215 448 275 429 c 2
 375 397 l 2
 472 366 528 289 528 190 c 0
 528 70 438 -10 304 -10 c 0
EndSplineSet
Validated: 1
EndChar

StartChar: Sacute
Encoding: 346 346 129
Width: 600
GlyphClass: 2
Flags: W
AnchorPoint: "Anchor-2" 300 0 basechar 0
AnchorPoint: "Anchor-0" 300 730 basechar 0
LayerCount: 2
Fore
SplineSet
242 810 m 1
 348 950 l 1
 445 950 l 1
 334 810 l 1
 242 810 l 1
304 -10 m 0
 161 -10 74 66 72 190 c 1
 162 190 l 1
 162 116 214 71 304 71 c 0
 388 71 438 115 438 188 c 0
 438 246 405 293 347 311 c 2
 248 342 l 2
 148 373 92 448 92 546 c 0
 92 663 176 741 306 741 c 0
 434 741 517 663 519 545 c 1
 429 545 l 1
 429 617 384 660 305 660 c 0
 227 660 182 620 182 554 c 0
 182 494 215 448 275 429 c 2
 375 397 l 2
 472 366 528 289 528 190 c 0
 528 70 438 -10 304 -10 c 0
EndSplineSet
Validated: 1
EndChar

StartChar: Scaron
Encoding: 352 352 130
Width: 600
GlyphClass: 2
Flags: W
AnchorPoint: "Anchor-2" 300 0 basechar 0
AnchorPoint: "Anchor-0" 300 730 basechar 0
LayerCount: 2
Fore
SplineSet
259 810 m 1
 119 950 l 1
 218 950 l 1
 300 872 l 1
 380 950 l 1
 481 950 l 1
 342 810 l 1
 259 810 l 1
304 -10 m 0
 161 -10 74 66 72 190 c 1
 162 190 l 1
 162 116 214 71 304 71 c 0
 388 71 438 115 438 188 c 0
 438 246 405 293 347 311 c 2
 248 342 l 2
 148 373 92 448 92 546 c 0
 92 663 176 741 306 741 c 0
 434 741 517 663 519 545 c 1
 429 545 l 1
 429 617 384 660 305 660 c 0
 227 660 182 620 182 554 c 0
 182 494 215 448 275 429 c 2
 375 397 l 2
 472 366 528 289 528 190 c 0
 528 70 438 -10 304 -10 c 0
EndSplineSet
Validated: 1
EndChar

StartChar: Scedilla
Encoding: 350 350 131
Width: 600
GlyphClass: 2
Flags: W
AnchorPoint: "Anchor-2" 300 0 basechar 0
AnchorPoint: "Anchor-0" 300 730 basechar 0
LayerCount: 2
Fore
SplineSet
205 -203 m 1
 205 -148 l 1
 275 -148 l 2
 304 -148 324 -130 324 -112 c 0
 324 -89 286 -69 219 -69 c 1
 243 -5 l 1
 136 14 74 85 72 190 c 1
 162 190 l 1
 162 116 214 71 304 71 c 0
 388 71 438 115 438 188 c 0
 438 246 405 293 347 311 c 2
 248 342 l 2
 148 373 92 448 92 546 c 0
 92 663 176 741 306 741 c 0
 434 741 517 663 519 545 c 1
 429 545 l 1
 429 617 384 660 305 660 c 0
 227 660 182 620 182 554 c 0
 182 494 215 448 275 429 c 2
 375 397 l 2
 472 366 528 289 528 190 c 0
 528 70 438 -10 304 -10 c 0
 302 -10 300 -10 299 -10 c 2
 290 -35 l 1
 342 -41 410 -68 410 -120 c 0
 410 -166 362 -203 290 -203 c 2
 205 -203 l 1
EndSplineSet
Validated: 1
Substitution2: "'locl' Localized Forms in Latin lookup 366 subtable" uni0218
Substitution2: "'aalt' Access All Alternates in Latin lookup 0 subtable" uni0218
EndChar

StartChar: Scircumflex
Encoding: 348 348 132
Width: 600
GlyphClass: 2
Flags: W
AnchorPoint: "Anchor-2" 300 0 basechar 0
AnchorPoint: "Anchor-0" 300 730 basechar 0
LayerCount: 2
Fore
SplineSet
119 810 m 1
 258 950 l 1
 341 950 l 1
 481 810 l 1
 382 810 l 1
 300 888 l 1
 220 810 l 1
 119 810 l 1
304 -10 m 0
 161 -10 74 66 72 190 c 1
 162 190 l 1
 162 116 214 71 304 71 c 0
 388 71 438 115 438 188 c 0
 438 246 405 293 347 311 c 2
 248 342 l 2
 148 373 92 448 92 546 c 0
 92 663 176 741 306 741 c 0
 434 741 517 663 519 545 c 1
 429 545 l 1
 429 617 384 660 305 660 c 0
 227 660 182 620 182 554 c 0
 182 494 215 448 275 429 c 2
 375 397 l 2
 472 366 528 289 528 190 c 0
 528 70 438 -10 304 -10 c 0
EndSplineSet
Validated: 1
EndChar

StartChar: uni0218
Encoding: 536 536 133
Width: 600
GlyphClass: 2
Flags: W
AnchorPoint: "Anchor-2" 300 0 basechar 0
AnchorPoint: "Anchor-0" 300 730 basechar 0
LayerCount: 2
Fore
SplineSet
304 -10 m 0
 161 -10 74 66 72 190 c 1
 162 190 l 1
 162 116 214 71 304 71 c 0
 388 71 438 115 438 188 c 0
 438 246 405 293 347 311 c 2
 248 342 l 2
 148 373 92 448 92 546 c 0
 92 663 176 741 306 741 c 0
 434 741 517 663 519 545 c 1
 429 545 l 1
 429 617 384 660 305 660 c 0
 227 660 182 620 182 554 c 0
 182 494 215 448 275 429 c 2
 375 397 l 2
 472 366 528 289 528 190 c 0
 528 70 438 -10 304 -10 c 0
190 -240 m 1
 285 -95 l 1
 390 -95 l 1
 285 -240 l 1
 190 -240 l 1
EndSplineSet
Validated: 1
EndChar

StartChar: uni1E9E
Encoding: 7838 7838 134
Width: 600
Flags: W
LayerCount: 2
Fore
SplineSet
92 0 m 1
 92 524 l 2
 92 648 176 730 302 730 c 2
 529 730 l 1
 529 642 l 1
 367 423 l 1
 471 417 540 336 540 215 c 0
 540 86 454 0 325 0 c 2
 258 0 l 1
 258 82 l 1
 315 82 l 2
 395 82 445 133 445 215 c 0
 445 295 395 345 315 345 c 2
 270 345 l 1
 270 423 l 1
 434 648 l 1
 302 648 l 2
 228 648 182 601 182 524 c 2
 182 0 l 1
 92 0 l 1
EndSplineSet
Validated: 1
EndChar

StartChar: uni018F
Encoding: 399 399 135
Width: 600
Flags: W
LayerCount: 2
Fore
SplineSet
300 -10 m 0
 170 -10 90 73 90 200 c 2
 90 400 l 1
 420 400 l 1
 420 531 l 2
 420 613 379 660 300 660 c 0
 222 660 180 613 180 530 c 1
 90 530 l 1
 90 659 169 740 300 740 c 0
 433 740 510 661 510 530 c 2
 510 200 l 2
 510 73 430 -10 300 -10 c 0
300 65 m 0
 382 65 420 113 420 200 c 2
 420 330 l 1
 180 330 l 1
 180 200 l 2
 180 113 218 65 300 65 c 0
EndSplineSet
Validated: 1
EndChar

StartChar: T
Encoding: 84 84 136
Width: 600
GlyphClass: 2
Flags: W
AnchorPoint: "Anchor-2" 300 0 basechar 0
AnchorPoint: "Anchor-0" 300 730 basechar 0
LayerCount: 2
Fore
SplineSet
255 0 m 1
 255 648 l 1
 55 648 l 1
 55 730 l 1
 545 730 l 1
 545 648 l 1
 345 648 l 1
 345 0 l 1
 255 0 l 1
EndSplineSet
Validated: 1
EndChar

StartChar: Tbar
Encoding: 358 358 137
Width: 600
GlyphClass: 2
Flags: W
AnchorPoint: "Anchor-2" 300 0 basechar 0
AnchorPoint: "Anchor-0" 300 730 basechar 0
LayerCount: 2
Fore
SplineSet
255 0 m 1
 255 295 l 1
 110 295 l 1
 110 370 l 1
 255 370 l 1
 255 648 l 1
 55 648 l 1
 55 730 l 1
 545 730 l 1
 545 648 l 1
 345 648 l 1
 345 370 l 1
 490 370 l 1
 490 295 l 1
 345 295 l 1
 345 0 l 1
 255 0 l 1
EndSplineSet
Validated: 1
EndChar

StartChar: Tcaron
Encoding: 356 356 138
Width: 600
GlyphClass: 2
Flags: W
AnchorPoint: "Anchor-2" 300 0 basechar 0
AnchorPoint: "Anchor-0" 300 730 basechar 0
LayerCount: 2
Fore
SplineSet
259 810 m 1
 119 950 l 1
 218 950 l 1
 300 872 l 1
 380 950 l 1
 481 950 l 1
 342 810 l 1
 259 810 l 1
255 0 m 1
 255 648 l 1
 55 648 l 1
 55 730 l 1
 545 730 l 1
 545 648 l 1
 345 648 l 1
 345 0 l 1
 255 0 l 1
EndSplineSet
Validated: 1
EndChar

StartChar: uni0162
Encoding: 354 354 139
Width: 600
GlyphClass: 2
Flags: W
AnchorPoint: "Anchor-2" 300 0 basechar 0
AnchorPoint: "Anchor-0" 300 730 basechar 0
LayerCount: 2
Fore
SplineSet
255 0 m 1
 255 648 l 1
 55 648 l 1
 55 730 l 1
 545 730 l 1
 545 648 l 1
 345 648 l 1
 345 0 l 1
 333 -35 l 1
 385 -41 453 -68 453 -120 c 0
 453 -166 405 -203 333 -203 c 2
 248 -203 l 1
 248 -148 l 1
 318 -148 l 2
 347 -148 367 -130 367 -112 c 0
 367 -89 329 -69 262 -69 c 1
 287 0 l 1
 255 0 l 1
EndSplineSet
Validated: 1
Substitution2: "'locl' Localized Forms in Latin lookup 366 subtable" uni021A
Substitution2: "'aalt' Access All Alternates in Latin lookup 0 subtable" uni021A
EndChar

StartChar: uni021A
Encoding: 538 538 140
Width: 600
GlyphClass: 2
Flags: W
AnchorPoint: "Anchor-2" 300 0 basechar 0
AnchorPoint: "Anchor-0" 300 730 basechar 0
LayerCount: 2
Fore
SplineSet
255 0 m 1
 255 648 l 1
 55 648 l 1
 55 730 l 1
 545 730 l 1
 545 648 l 1
 345 648 l 1
 345 0 l 1
 255 0 l 1
190 -240 m 1
 285 -95 l 1
 390 -95 l 1
 285 -240 l 1
 190 -240 l 1
EndSplineSet
Validated: 1
EndChar

StartChar: U
Encoding: 85 85 141
Width: 600
GlyphClass: 2
Flags: W
AnchorPoint: "Anchor-3" 350 0 basechar 0
AnchorPoint: "Anchor-2" 300 0 basechar 0
AnchorPoint: "Anchor-1" 385 730 basechar 0
AnchorPoint: "Anchor-0" 300 730 basechar 0
LayerCount: 2
Fore
SplineSet
300 -10 m 0
 164 -10 90 70 90 200 c 2
 90 730 l 1
 180 730 l 1
 180 200 l 2
 180 120 219 70 300 70 c 0
 380 70 420 120 420 200 c 2
 420 730 l 1
 510 730 l 1
 510 200 l 2
 510 69 437 -10 300 -10 c 0
EndSplineSet
Validated: 1
EndChar

StartChar: Uacute
Encoding: 218 218 142
Width: 600
GlyphClass: 2
Flags: W
AnchorPoint: "Anchor-3" 350 0 basechar 0
AnchorPoint: "Anchor-2" 300 0 basechar 0
AnchorPoint: "Anchor-1" 385 730 basechar 0
AnchorPoint: "Anchor-0" 300 730 basechar 0
LayerCount: 2
Fore
SplineSet
242 810 m 1
 348 950 l 1
 445 950 l 1
 334 810 l 1
 242 810 l 1
300 -10 m 0
 164 -10 90 70 90 200 c 2
 90 730 l 1
 180 730 l 1
 180 200 l 2
 180 120 219 70 300 70 c 0
 380 70 420 120 420 200 c 2
 420 730 l 1
 510 730 l 1
 510 200 l 2
 510 69 437 -10 300 -10 c 0
EndSplineSet
Validated: 1
EndChar

StartChar: Ubreve
Encoding: 364 364 143
Width: 600
GlyphClass: 2
Flags: W
AnchorPoint: "Anchor-3" 350 0 basechar 0
AnchorPoint: "Anchor-2" 300 0 basechar 0
AnchorPoint: "Anchor-1" 385 730 basechar 0
AnchorPoint: "Anchor-0" 300 730 basechar 0
LayerCount: 2
Fore
SplineSet
300 805 m 0
 204 805 140 863 140 950 c 1
 211 950 l 1
 211 898 246 863 299 863 c 0
 353 863 389 898 389 950 c 1
 460 950 l 1
 460 863 396 805 300 805 c 0
300 -10 m 0
 164 -10 90 70 90 200 c 2
 90 730 l 1
 180 730 l 1
 180 200 l 2
 180 120 219 70 300 70 c 0
 380 70 420 120 420 200 c 2
 420 730 l 1
 510 730 l 1
 510 200 l 2
 510 69 437 -10 300 -10 c 0
EndSplineSet
Validated: 1
EndChar

StartChar: Ucircumflex
Encoding: 219 219 144
Width: 600
GlyphClass: 2
Flags: W
AnchorPoint: "Anchor-3" 350 0 basechar 0
AnchorPoint: "Anchor-2" 300 0 basechar 0
AnchorPoint: "Anchor-1" 385 730 basechar 0
AnchorPoint: "Anchor-0" 300 730 basechar 0
LayerCount: 2
Fore
SplineSet
119 810 m 1
 258 950 l 1
 341 950 l 1
 481 810 l 1
 382 810 l 1
 300 888 l 1
 220 810 l 1
 119 810 l 1
300 -10 m 0
 164 -10 90 70 90 200 c 2
 90 730 l 1
 180 730 l 1
 180 200 l 2
 180 120 219 70 300 70 c 0
 380 70 420 120 420 200 c 2
 420 730 l 1
 510 730 l 1
 510 200 l 2
 510 69 437 -10 300 -10 c 0
EndSplineSet
Validated: 1
EndChar

StartChar: Udieresis
Encoding: 220 220 145
Width: 600
GlyphClass: 2
Flags: W
AnchorPoint: "Anchor-3" 350 0 basechar 0
AnchorPoint: "Anchor-2" 300 0 basechar 0
AnchorPoint: "Anchor-1" 385 730 basechar 0
AnchorPoint: "Anchor-0" 300 730 basechar 0
LayerCount: 2
Fore
SplineSet
411 817 m 0
 372 817 347 841 347 880 c 0
 347 920 372 945 411 945 c 0
 450 945 475 920 475 880 c 0
 475 841 450 817 411 817 c 0
189 817 m 0
 150 817 125 841 125 880 c 0
 125 920 150 945 189 945 c 0
 228 945 253 920 253 880 c 0
 253 841 228 817 189 817 c 0
300 -10 m 0
 164 -10 90 70 90 200 c 2
 90 730 l 1
 180 730 l 1
 180 200 l 2
 180 120 219 70 300 70 c 0
 380 70 420 120 420 200 c 2
 420 730 l 1
 510 730 l 1
 510 200 l 2
 510 69 437 -10 300 -10 c 0
EndSplineSet
Validated: 1
EndChar

StartChar: uni1EE4
Encoding: 7908 7908 146
Width: 600
GlyphClass: 2
Flags: W
AnchorPoint: "Anchor-3" 350 0 basechar 0
AnchorPoint: "Anchor-2" 300 0 basechar 0
AnchorPoint: "Anchor-1" 385 730 basechar 0
AnchorPoint: "Anchor-0" 300 730 basechar 0
LayerCount: 2
Fore
SplineSet
300 -10 m 0
 164 -10 90 70 90 200 c 2
 90 730 l 1
 180 730 l 1
 180 200 l 2
 180 120 219 70 300 70 c 0
 380 70 420 120 420 200 c 2
 420 730 l 1
 510 730 l 1
 510 200 l 2
 510 69 437 -10 300 -10 c 0
300 -213 m 0
 256 -213 229 -189 229 -150 c 0
 229 -110 256 -85 300 -85 c 0
 344 -85 371 -110 371 -150 c 0
 371 -189 344 -213 300 -213 c 0
EndSplineSet
Validated: 1
EndChar

StartChar: Ugrave
Encoding: 217 217 147
Width: 600
GlyphClass: 2
Flags: W
AnchorPoint: "Anchor-3" 350 0 basechar 0
AnchorPoint: "Anchor-2" 300 0 basechar 0
AnchorPoint: "Anchor-1" 385 730 basechar 0
AnchorPoint: "Anchor-0" 300 730 basechar 0
LayerCount: 2
Fore
SplineSet
267 810 m 1
 152 950 l 1
 252 950 l 1
 362 810 l 1
 267 810 l 1
300 -10 m 0
 164 -10 90 70 90 200 c 2
 90 730 l 1
 180 730 l 1
 180 200 l 2
 180 120 219 70 300 70 c 0
 380 70 420 120 420 200 c 2
 420 730 l 1
 510 730 l 1
 510 200 l 2
 510 69 437 -10 300 -10 c 0
EndSplineSet
Validated: 1
EndChar

StartChar: uni1EE6
Encoding: 7910 7910 148
Width: 600
GlyphClass: 2
Flags: W
AnchorPoint: "Anchor-3" 350 0 basechar 0
AnchorPoint: "Anchor-2" 300 0 basechar 0
AnchorPoint: "Anchor-1" 385 730 basechar 0
AnchorPoint: "Anchor-0" 300 730 basechar 0
LayerCount: 2
Fore
SplineSet
258 800 m 1
 303 863 l 2
 313 877 317 887 317 895 c 0
 317 909 307 915 285 915 c 2
 210 915 l 1
 210 980 l 1
 290 980 l 2
 353 980 395 950 395 905 c 0
 395 888 389 868 378 852 c 2
 343 800 l 1
 258 800 l 1
300 -10 m 0
 164 -10 90 70 90 200 c 2
 90 730 l 1
 180 730 l 1
 180 200 l 2
 180 120 219 70 300 70 c 0
 380 70 420 120 420 200 c 2
 420 730 l 1
 510 730 l 1
 510 200 l 2
 510 69 437 -10 300 -10 c 0
EndSplineSet
Validated: 1
EndChar

StartChar: Uhorn
Encoding: 431 431 149
Width: 600
GlyphClass: 2
Flags: W
AnchorPoint: "Anchor-3" 350 0 basechar 0
AnchorPoint: "Anchor-2" 300 0 basechar 0
AnchorPoint: "Anchor-1" 385 730 basechar 0
AnchorPoint: "Anchor-0" 300 730 basechar 0
LayerCount: 2
Fore
SplineSet
300 -10 m 0
 164 -10 90 70 90 200 c 2
 90 730 l 1
 180 730 l 1
 180 200 l 2
 180 120 219 70 300 70 c 0
 380 70 420 120 420 200 c 2
 420 730 l 1
 485 730 l 2
 506 730 520 744 520 765 c 2
 520 840 l 1
 595 840 l 1
 595 760 l 2
 595 708 562 673 510 666 c 1
 510 200 l 2
 510 69 437 -10 300 -10 c 0
EndSplineSet
Validated: 1
EndChar

StartChar: uni1EE8
Encoding: 7912 7912 150
Width: 600
GlyphClass: 2
Flags: W
AnchorPoint: "Anchor-3" 350 0 basechar 0
AnchorPoint: "Anchor-2" 300 0 basechar 0
AnchorPoint: "Anchor-1" 385 730 basechar 0
AnchorPoint: "Anchor-0" 300 730 basechar 0
LayerCount: 2
Fore
SplineSet
242 810 m 1
 348 950 l 1
 445 950 l 1
 334 810 l 1
 242 810 l 1
300 -10 m 0
 164 -10 90 70 90 200 c 2
 90 730 l 1
 180 730 l 1
 180 200 l 2
 180 120 219 70 300 70 c 0
 380 70 420 120 420 200 c 2
 420 730 l 1
 485 730 l 2
 506 730 520 744 520 765 c 2
 520 840 l 1
 595 840 l 1
 595 760 l 2
 595 708 562 673 510 666 c 1
 510 200 l 2
 510 69 437 -10 300 -10 c 0
EndSplineSet
Validated: 1
EndChar

StartChar: uni1EF0
Encoding: 7920 7920 151
Width: 600
GlyphClass: 2
Flags: W
AnchorPoint: "Anchor-3" 350 0 basechar 0
AnchorPoint: "Anchor-2" 300 0 basechar 0
AnchorPoint: "Anchor-1" 385 730 basechar 0
AnchorPoint: "Anchor-0" 300 730 basechar 0
LayerCount: 2
Fore
SplineSet
300 -10 m 0
 164 -10 90 70 90 200 c 2
 90 730 l 1
 180 730 l 1
 180 200 l 2
 180 120 219 70 300 70 c 0
 380 70 420 120 420 200 c 2
 420 730 l 1
 485 730 l 2
 506 730 520 744 520 765 c 2
 520 840 l 1
 595 840 l 1
 595 760 l 2
 595 708 562 673 510 666 c 1
 510 200 l 2
 510 69 437 -10 300 -10 c 0
300 -213 m 0
 256 -213 229 -189 229 -150 c 0
 229 -110 256 -85 300 -85 c 0
 344 -85 371 -110 371 -150 c 0
 371 -189 344 -213 300 -213 c 0
EndSplineSet
Validated: 1
EndChar

StartChar: uni1EEA
Encoding: 7914 7914 152
Width: 600
GlyphClass: 2
Flags: W
AnchorPoint: "Anchor-3" 350 0 basechar 0
AnchorPoint: "Anchor-2" 300 0 basechar 0
AnchorPoint: "Anchor-1" 385 730 basechar 0
AnchorPoint: "Anchor-0" 300 730 basechar 0
LayerCount: 2
Fore
SplineSet
267 810 m 1
 152 950 l 1
 252 950 l 1
 362 810 l 1
 267 810 l 1
300 -10 m 0
 164 -10 90 70 90 200 c 2
 90 730 l 1
 180 730 l 1
 180 200 l 2
 180 120 219 70 300 70 c 0
 380 70 420 120 420 200 c 2
 420 730 l 1
 485 730 l 2
 506 730 520 744 520 765 c 2
 520 840 l 1
 595 840 l 1
 595 760 l 2
 595 708 562 673 510 666 c 1
 510 200 l 2
 510 69 437 -10 300 -10 c 0
EndSplineSet
Validated: 1
EndChar

StartChar: uni1EEC
Encoding: 7916 7916 153
Width: 600
GlyphClass: 2
Flags: W
AnchorPoint: "Anchor-3" 350 0 basechar 0
AnchorPoint: "Anchor-2" 300 0 basechar 0
AnchorPoint: "Anchor-1" 385 730 basechar 0
AnchorPoint: "Anchor-0" 300 730 basechar 0
LayerCount: 2
Fore
SplineSet
258 800 m 1
 303 863 l 2
 313 877 317 887 317 895 c 0
 317 909 307 915 285 915 c 2
 210 915 l 1
 210 980 l 1
 290 980 l 2
 353 980 395 950 395 905 c 0
 395 888 389 868 378 852 c 2
 343 800 l 1
 258 800 l 1
300 -10 m 0
 164 -10 90 70 90 200 c 2
 90 730 l 1
 180 730 l 1
 180 200 l 2
 180 120 219 70 300 70 c 0
 380 70 420 120 420 200 c 2
 420 730 l 1
 485 730 l 2
 506 730 520 744 520 765 c 2
 520 840 l 1
 595 840 l 1
 595 760 l 2
 595 708 562 673 510 666 c 1
 510 200 l 2
 510 69 437 -10 300 -10 c 0
EndSplineSet
Validated: 1
EndChar

StartChar: uni1EEE
Encoding: 7918 7918 154
Width: 600
GlyphClass: 2
Flags: W
AnchorPoint: "Anchor-3" 350 0 basechar 0
AnchorPoint: "Anchor-2" 300 0 basechar 0
AnchorPoint: "Anchor-1" 385 730 basechar 0
AnchorPoint: "Anchor-0" 300 730 basechar 0
LayerCount: 2
Fore
SplineSet
370 815 m 0
 290 815 280 885 235 885 c 0
 217 885 205 874 205 850 c 2
 205 820 l 1
 140 820 l 1
 140 850 l 2
 140 910 176 945 230 945 c 0
 310 945 320 875 365 875 c 0
 383 875 395 886 395 910 c 2
 395 940 l 1
 460 940 l 1
 460 910 l 2
 460 850 424 815 370 815 c 0
300 -10 m 0
 164 -10 90 70 90 200 c 2
 90 730 l 1
 180 730 l 1
 180 200 l 2
 180 120 219 70 300 70 c 0
 380 70 420 120 420 200 c 2
 420 730 l 1
 485 730 l 2
 506 730 520 744 520 765 c 2
 520 840 l 1
 595 840 l 1
 595 760 l 2
 595 708 562 673 510 666 c 1
 510 200 l 2
 510 69 437 -10 300 -10 c 0
EndSplineSet
Validated: 1
EndChar

StartChar: Uhungarumlaut
Encoding: 368 368 155
Width: 600
GlyphClass: 2
Flags: W
AnchorPoint: "Anchor-3" 350 0 basechar 0
AnchorPoint: "Anchor-2" 300 0 basechar 0
AnchorPoint: "Anchor-1" 385 730 basechar 0
AnchorPoint: "Anchor-0" 300 730 basechar 0
LayerCount: 2
Fore
SplineSet
326 810 m 1
 436 950 l 1
 528 950 l 1
 413 810 l 1
 326 810 l 1
147 810 m 1
 257 950 l 1
 349 950 l 1
 234 810 l 1
 147 810 l 1
300 -10 m 0
 164 -10 90 70 90 200 c 2
 90 730 l 1
 180 730 l 1
 180 200 l 2
 180 120 219 70 300 70 c 0
 380 70 420 120 420 200 c 2
 420 730 l 1
 510 730 l 1
 510 200 l 2
 510 69 437 -10 300 -10 c 0
EndSplineSet
Validated: 1
EndChar

StartChar: Umacron
Encoding: 362 362 156
Width: 600
GlyphClass: 2
Flags: W
AnchorPoint: "Anchor-3" 350 0 basechar 0
AnchorPoint: "Anchor-2" 300 0 basechar 0
AnchorPoint: "Anchor-1" 385 730 basechar 0
AnchorPoint: "Anchor-0" 300 730 basechar 0
LayerCount: 2
Fore
SplineSet
140 840 m 1
 140 915 l 1
 460 915 l 1
 460 840 l 1
 140 840 l 1
300 -10 m 0
 164 -10 90 70 90 200 c 2
 90 730 l 1
 180 730 l 1
 180 200 l 2
 180 120 219 70 300 70 c 0
 380 70 420 120 420 200 c 2
 420 730 l 1
 510 730 l 1
 510 200 l 2
 510 69 437 -10 300 -10 c 0
EndSplineSet
Validated: 1
EndChar

StartChar: Uogonek
Encoding: 370 370 157
Width: 600
GlyphClass: 2
Flags: W
AnchorPoint: "Anchor-1" 385 730 basechar 0
AnchorPoint: "Anchor-0" 300 730 basechar 0
LayerCount: 2
Fore
SplineSet
379 -203 m 2
 305 -203 257 -164 257 -110 c 0
 257 -82 277 -45 313 -10 c 1
 300 -10 l 2
 169 -10 90 69 90 200 c 2
 90 730 l 1
 180 730 l 1
 180 200 l 2
 180 117 222 71 300 71 c 0
 378 71 420 117 420 200 c 2
 420 730 l 1
 510 730 l 1
 510 200 l 2
 510 121 482 60 430 25 c 1
 401 1 l 2
 357 -36 342 -65 342 -93 c 0
 342 -122 363 -143 397 -143 c 2
 457 -143 l 1
 457 -203 l 1
 379 -203 l 2
EndSplineSet
Validated: 1
EndChar

StartChar: Uring
Encoding: 366 366 158
Width: 600
GlyphClass: 2
Flags: W
AnchorPoint: "Anchor-3" 350 0 basechar 0
AnchorPoint: "Anchor-2" 300 0 basechar 0
AnchorPoint: "Anchor-1" 385 730 basechar 0
AnchorPoint: "Anchor-0" 300 730 basechar 0
LayerCount: 2
Fore
SplineSet
300 766 m 0
 228 766 180 812 180 880 c 0
 180 948 228 994 300 994 c 0
 372 994 420 948 420 880 c 0
 420 812 372 766 300 766 c 0
300 819 m 0
 336 819 360 843 360 880 c 0
 360 917 336 942 300 942 c 0
 264 942 240 917 240 880 c 0
 240 843 264 819 300 819 c 0
300 -10 m 0
 164 -10 90 70 90 200 c 2
 90 730 l 1
 180 730 l 1
 180 200 l 2
 180 120 219 70 300 70 c 0
 380 70 420 120 420 200 c 2
 420 730 l 1
 510 730 l 1
 510 200 l 2
 510 69 437 -10 300 -10 c 0
EndSplineSet
Validated: 1
EndChar

StartChar: Utilde
Encoding: 360 360 159
Width: 600
GlyphClass: 2
Flags: W
AnchorPoint: "Anchor-3" 350 0 basechar 0
AnchorPoint: "Anchor-2" 300 0 basechar 0
AnchorPoint: "Anchor-1" 385 730 basechar 0
AnchorPoint: "Anchor-0" 300 730 basechar 0
LayerCount: 2
Fore
SplineSet
370 815 m 0
 290 815 280 885 235 885 c 0
 217 885 205 874 205 850 c 2
 205 820 l 1
 140 820 l 1
 140 850 l 2
 140 910 176 945 230 945 c 0
 310 945 320 875 365 875 c 0
 383 875 395 886 395 910 c 2
 395 940 l 1
 460 940 l 1
 460 910 l 2
 460 850 424 815 370 815 c 0
300 -10 m 0
 164 -10 90 70 90 200 c 2
 90 730 l 1
 180 730 l 1
 180 200 l 2
 180 120 219 70 300 70 c 0
 380 70 420 120 420 200 c 2
 420 730 l 1
 510 730 l 1
 510 200 l 2
 510 69 437 -10 300 -10 c 0
EndSplineSet
Validated: 1
EndChar

StartChar: V
Encoding: 86 86 160
Width: 600
GlyphClass: 2
Flags: W
AnchorPoint: "Anchor-0" 300 730 basechar 0
LayerCount: 2
Fore
SplineSet
238 0 m 1
 50 730 l 1
 143 730 l 1
 267 234 l 2
 284 165 297 100 302 70 c 1
 307 100 319 165 336 234 c 2
 459 730 l 1
 550 730 l 1
 361 0 l 1
 238 0 l 1
EndSplineSet
Validated: 1
EndChar

StartChar: W
Encoding: 87 87 161
Width: 600
GlyphClass: 2
Flags: W
AnchorPoint: "Anchor-2" 300 0 basechar 0
AnchorPoint: "Anchor-0" 300 730 basechar 0
LayerCount: 2
Fore
SplineSet
109 0 m 1
 25 730 l 1
 111 730 l 1
 166 190 l 2
 170 146 174 93 175 65 c 1
 178 93 182 146 188 190 c 2
 256 730 l 1
 349 730 l 1
 411 190 l 2
 416 146 422 93 425 65 c 1
 427 93 431 146 436 190 c 2
 493 730 l 1
 575 730 l 1
 489 0 l 1
 376 0 l 1
 314 550 l 2
 309 595 304 643 302 667 c 1
 299 643 294 595 289 550 c 2
 222 0 l 1
 109 0 l 1
EndSplineSet
Validated: 1
EndChar

StartChar: Wacute
Encoding: 7810 7810 162
Width: 600
GlyphClass: 2
Flags: W
AnchorPoint: "Anchor-2" 300 0 basechar 0
AnchorPoint: "Anchor-0" 300 730 basechar 0
LayerCount: 2
Fore
SplineSet
242 810 m 1
 348 950 l 1
 445 950 l 1
 334 810 l 1
 242 810 l 1
109 0 m 1
 25 730 l 1
 111 730 l 1
 166 190 l 2
 170 146 174 93 175 65 c 1
 178 93 182 146 188 190 c 2
 256 730 l 1
 349 730 l 1
 411 190 l 2
 416 146 422 93 425 65 c 1
 427 93 431 146 436 190 c 2
 493 730 l 1
 575 730 l 1
 489 0 l 1
 376 0 l 1
 314 550 l 2
 309 595 304 643 302 667 c 1
 299 643 294 595 289 550 c 2
 222 0 l 1
 109 0 l 1
EndSplineSet
Validated: 1
EndChar

StartChar: Wcircumflex
Encoding: 372 372 163
Width: 600
GlyphClass: 2
Flags: W
AnchorPoint: "Anchor-2" 300 0 basechar 0
AnchorPoint: "Anchor-0" 300 730 basechar 0
LayerCount: 2
Fore
SplineSet
119 810 m 1
 258 950 l 1
 341 950 l 1
 481 810 l 1
 382 810 l 1
 300 888 l 1
 220 810 l 1
 119 810 l 1
109 0 m 1
 25 730 l 1
 111 730 l 1
 166 190 l 2
 170 146 174 93 175 65 c 1
 178 93 182 146 188 190 c 2
 256 730 l 1
 349 730 l 1
 411 190 l 2
 416 146 422 93 425 65 c 1
 427 93 431 146 436 190 c 2
 493 730 l 1
 575 730 l 1
 489 0 l 1
 376 0 l 1
 314 550 l 2
 309 595 304 643 302 667 c 1
 299 643 294 595 289 550 c 2
 222 0 l 1
 109 0 l 1
EndSplineSet
Validated: 1
EndChar

StartChar: Wdieresis
Encoding: 7812 7812 164
Width: 600
GlyphClass: 2
Flags: W
AnchorPoint: "Anchor-2" 300 0 basechar 0
AnchorPoint: "Anchor-0" 300 730 basechar 0
LayerCount: 2
Fore
SplineSet
411 817 m 0
 372 817 347 841 347 880 c 0
 347 920 372 945 411 945 c 0
 450 945 475 920 475 880 c 0
 475 841 450 817 411 817 c 0
189 817 m 0
 150 817 125 841 125 880 c 0
 125 920 150 945 189 945 c 0
 228 945 253 920 253 880 c 0
 253 841 228 817 189 817 c 0
109 0 m 1
 25 730 l 1
 111 730 l 1
 166 190 l 2
 170 146 174 93 175 65 c 1
 178 93 182 146 188 190 c 2
 256 730 l 1
 349 730 l 1
 411 190 l 2
 416 146 422 93 425 65 c 1
 427 93 431 146 436 190 c 2
 493 730 l 1
 575 730 l 1
 489 0 l 1
 376 0 l 1
 314 550 l 2
 309 595 304 643 302 667 c 1
 299 643 294 595 289 550 c 2
 222 0 l 1
 109 0 l 1
EndSplineSet
Validated: 1
EndChar

StartChar: Wgrave
Encoding: 7808 7808 165
Width: 600
GlyphClass: 2
Flags: W
AnchorPoint: "Anchor-2" 300 0 basechar 0
AnchorPoint: "Anchor-0" 300 730 basechar 0
LayerCount: 2
Fore
SplineSet
267 810 m 1
 152 950 l 1
 252 950 l 1
 362 810 l 1
 267 810 l 1
109 0 m 1
 25 730 l 1
 111 730 l 1
 166 190 l 2
 170 146 174 93 175 65 c 1
 178 93 182 146 188 190 c 2
 256 730 l 1
 349 730 l 1
 411 190 l 2
 416 146 422 93 425 65 c 1
 427 93 431 146 436 190 c 2
 493 730 l 1
 575 730 l 1
 489 0 l 1
 376 0 l 1
 314 550 l 2
 309 595 304 643 302 667 c 1
 299 643 294 595 289 550 c 2
 222 0 l 1
 109 0 l 1
EndSplineSet
Validated: 1
EndChar

StartChar: X
Encoding: 88 88 166
Width: 600
GlyphClass: 2
Flags: W
AnchorPoint: "Anchor-0" 300 730 basechar 0
LayerCount: 2
Fore
SplineSet
40 0 m 1
 250 370 l 1
 51 730 l 1
 155 730 l 1
 268 514 l 2
 280 491 294 462 302 447 c 1
 309 462 323 491 335 514 c 2
 450 730 l 1
 549 730 l 1
 350 376 l 1
 560 0 l 1
 457 0 l 1
 332 232 l 2
 320 255 306 284 299 300 c 1
 292 284 278 255 266 233 c 2
 140 0 l 1
 40 0 l 1
EndSplineSet
Validated: 1
EndChar

StartChar: Y
Encoding: 89 89 167
Width: 600
GlyphClass: 2
Flags: W
AnchorPoint: "Anchor-2" 300 0 basechar 0
AnchorPoint: "Anchor-0" 300 730 basechar 0
LayerCount: 2
Fore
SplineSet
255 0 m 1
 255 273 l 1
 35 730 l 1
 128 730 l 1
 273 430 l 2
 289 397 298 372 301 362 c 1
 304 372 314 397 330 430 c 2
 472 730 l 1
 565 730 l 1
 345 273 l 1
 345 0 l 1
 255 0 l 1
EndSplineSet
Validated: 1
EndChar

StartChar: Yacute
Encoding: 221 221 168
Width: 600
GlyphClass: 2
Flags: W
AnchorPoint: "Anchor-2" 300 0 basechar 0
AnchorPoint: "Anchor-0" 300 730 basechar 0
LayerCount: 2
Fore
SplineSet
242 810 m 1
 348 950 l 1
 445 950 l 1
 334 810 l 1
 242 810 l 1
255 0 m 1
 255 273 l 1
 35 730 l 1
 128 730 l 1
 273 430 l 2
 289 397 298 372 301 362 c 1
 304 372 314 397 330 430 c 2
 472 730 l 1
 565 730 l 1
 345 273 l 1
 345 0 l 1
 255 0 l 1
EndSplineSet
Validated: 1
EndChar

StartChar: Ycircumflex
Encoding: 374 374 169
Width: 600
GlyphClass: 2
Flags: W
AnchorPoint: "Anchor-2" 300 0 basechar 0
AnchorPoint: "Anchor-0" 300 730 basechar 0
LayerCount: 2
Fore
SplineSet
119 810 m 1
 258 950 l 1
 341 950 l 1
 481 810 l 1
 382 810 l 1
 300 888 l 1
 220 810 l 1
 119 810 l 1
255 0 m 1
 255 273 l 1
 35 730 l 1
 128 730 l 1
 273 430 l 2
 289 397 298 372 301 362 c 1
 304 372 314 397 330 430 c 2
 472 730 l 1
 565 730 l 1
 345 273 l 1
 345 0 l 1
 255 0 l 1
EndSplineSet
Validated: 1
EndChar

StartChar: Ydieresis
Encoding: 376 376 170
Width: 600
GlyphClass: 2
Flags: W
AnchorPoint: "Anchor-2" 300 0 basechar 0
AnchorPoint: "Anchor-0" 300 730 basechar 0
LayerCount: 2
Fore
SplineSet
411 817 m 0
 372 817 347 841 347 880 c 0
 347 920 372 945 411 945 c 0
 450 945 475 920 475 880 c 0
 475 841 450 817 411 817 c 0
189 817 m 0
 150 817 125 841 125 880 c 0
 125 920 150 945 189 945 c 0
 228 945 253 920 253 880 c 0
 253 841 228 817 189 817 c 0
255 0 m 1
 255 273 l 1
 35 730 l 1
 128 730 l 1
 273 430 l 2
 289 397 298 372 301 362 c 1
 304 372 314 397 330 430 c 2
 472 730 l 1
 565 730 l 1
 345 273 l 1
 345 0 l 1
 255 0 l 1
EndSplineSet
Validated: 1
EndChar

StartChar: uni1EF4
Encoding: 7924 7924 171
Width: 600
GlyphClass: 2
Flags: W
AnchorPoint: "Anchor-2" 300 0 basechar 0
AnchorPoint: "Anchor-0" 300 730 basechar 0
LayerCount: 2
Fore
SplineSet
255 0 m 1
 255 273 l 1
 35 730 l 1
 128 730 l 1
 273 430 l 2
 289 397 298 372 301 362 c 1
 304 372 314 397 330 430 c 2
 472 730 l 1
 565 730 l 1
 345 273 l 1
 345 0 l 1
 255 0 l 1
300 -213 m 0
 256 -213 229 -189 229 -150 c 0
 229 -110 256 -85 300 -85 c 0
 344 -85 371 -110 371 -150 c 0
 371 -189 344 -213 300 -213 c 0
EndSplineSet
Validated: 1
EndChar

StartChar: Ygrave
Encoding: 7922 7922 172
Width: 600
GlyphClass: 2
Flags: W
AnchorPoint: "Anchor-2" 300 0 basechar 0
AnchorPoint: "Anchor-0" 300 730 basechar 0
LayerCount: 2
Fore
SplineSet
267 810 m 1
 152 950 l 1
 252 950 l 1
 362 810 l 1
 267 810 l 1
255 0 m 1
 255 273 l 1
 35 730 l 1
 128 730 l 1
 273 430 l 2
 289 397 298 372 301 362 c 1
 304 372 314 397 330 430 c 2
 472 730 l 1
 565 730 l 1
 345 273 l 1
 345 0 l 1
 255 0 l 1
EndSplineSet
Validated: 1
EndChar

StartChar: uni1EF6
Encoding: 7926 7926 173
Width: 600
GlyphClass: 2
Flags: W
AnchorPoint: "Anchor-2" 300 0 basechar 0
AnchorPoint: "Anchor-0" 300 730 basechar 0
LayerCount: 2
Fore
SplineSet
258 800 m 1
 303 863 l 2
 313 877 317 887 317 895 c 0
 317 909 307 915 285 915 c 2
 210 915 l 1
 210 980 l 1
 290 980 l 2
 353 980 395 950 395 905 c 0
 395 888 389 868 378 852 c 2
 343 800 l 1
 258 800 l 1
255 0 m 1
 255 273 l 1
 35 730 l 1
 128 730 l 1
 273 430 l 2
 289 397 298 372 301 362 c 1
 304 372 314 397 330 430 c 2
 472 730 l 1
 565 730 l 1
 345 273 l 1
 345 0 l 1
 255 0 l 1
EndSplineSet
Validated: 1
EndChar

StartChar: uni0232
Encoding: 562 562 174
Width: 600
GlyphClass: 2
Flags: W
AnchorPoint: "Anchor-2" 300 0 basechar 0
AnchorPoint: "Anchor-0" 300 730 basechar 0
LayerCount: 2
Fore
SplineSet
140 840 m 1
 140 915 l 1
 460 915 l 1
 460 840 l 1
 140 840 l 1
255 0 m 1
 255 273 l 1
 35 730 l 1
 128 730 l 1
 273 430 l 2
 289 397 298 372 301 362 c 1
 304 372 314 397 330 430 c 2
 472 730 l 1
 565 730 l 1
 345 273 l 1
 345 0 l 1
 255 0 l 1
EndSplineSet
Validated: 1
EndChar

StartChar: uni1EF8
Encoding: 7928 7928 175
Width: 600
GlyphClass: 2
Flags: W
AnchorPoint: "Anchor-2" 300 0 basechar 0
AnchorPoint: "Anchor-0" 300 730 basechar 0
LayerCount: 2
Fore
SplineSet
370 815 m 0
 290 815 280 885 235 885 c 0
 217 885 205 874 205 850 c 2
 205 820 l 1
 140 820 l 1
 140 850 l 2
 140 910 176 945 230 945 c 0
 310 945 320 875 365 875 c 0
 383 875 395 886 395 910 c 2
 395 940 l 1
 460 940 l 1
 460 910 l 2
 460 850 424 815 370 815 c 0
255 0 m 1
 255 273 l 1
 35 730 l 1
 128 730 l 1
 273 430 l 2
 289 397 298 372 301 362 c 1
 304 372 314 397 330 430 c 2
 472 730 l 1
 565 730 l 1
 345 273 l 1
 345 0 l 1
 255 0 l 1
EndSplineSet
Validated: 1
EndChar

StartChar: Z
Encoding: 90 90 176
Width: 600
GlyphClass: 2
Flags: W
AnchorPoint: "Anchor-0" 300 730 basechar 0
LayerCount: 2
Fore
SplineSet
85 0 m 1
 85 90 l 1
 414 648 l 1
 90 648 l 1
 90 730 l 1
 505 730 l 1
 505 640 l 1
 176 82 l 1
 515 82 l 1
 515 0 l 1
 85 0 l 1
EndSplineSet
Validated: 1
EndChar

StartChar: Zacute
Encoding: 377 377 177
Width: 600
GlyphClass: 2
Flags: W
AnchorPoint: "Anchor-0" 300 730 basechar 0
LayerCount: 2
Fore
SplineSet
242 810 m 1
 348 950 l 1
 445 950 l 1
 334 810 l 1
 242 810 l 1
85 0 m 1
 85 90 l 1
 414 648 l 1
 90 648 l 1
 90 730 l 1
 505 730 l 1
 505 640 l 1
 176 82 l 1
 515 82 l 1
 515 0 l 1
 85 0 l 1
EndSplineSet
Validated: 1
EndChar

StartChar: Zcaron
Encoding: 381 381 178
Width: 600
GlyphClass: 2
Flags: W
AnchorPoint: "Anchor-0" 300 730 basechar 0
LayerCount: 2
Fore
SplineSet
259 810 m 1
 119 950 l 1
 218 950 l 1
 300 872 l 1
 380 950 l 1
 481 950 l 1
 342 810 l 1
 259 810 l 1
85 0 m 1
 85 90 l 1
 414 648 l 1
 90 648 l 1
 90 730 l 1
 505 730 l 1
 505 640 l 1
 176 82 l 1
 515 82 l 1
 515 0 l 1
 85 0 l 1
EndSplineSet
Validated: 1
EndChar

StartChar: Zdotaccent
Encoding: 379 379 179
Width: 600
GlyphClass: 2
Flags: W
AnchorPoint: "Anchor-0" 300 730 basechar 0
LayerCount: 2
Fore
SplineSet
300 816 m 0
 256 816 229 841 229 880 c 0
 229 919 256 944 300 944 c 0
 344 944 371 919 371 880 c 0
 371 841 344 816 300 816 c 0
85 0 m 1
 85 90 l 1
 414 648 l 1
 90 648 l 1
 90 730 l 1
 505 730 l 1
 505 640 l 1
 176 82 l 1
 515 82 l 1
 515 0 l 1
 85 0 l 1
EndSplineSet
Validated: 1
EndChar

StartChar: a
Encoding: 97 97 180
Width: 600
GlyphClass: 2
Flags: W
AnchorPoint: "Anchor-3" 465 0 basechar 0
AnchorPoint: "Anchor-2" 305 0 basechar 0
AnchorPoint: "Anchor-0" 305 550 basechar 0
LayerCount: 2
Fore
SplineSet
252 -10 m 0
 136 -10 65 53 65 155 c 0
 65 257 137 320 250 320 c 2
 420 320 l 1
 420 375 l 2
 420 442 377 481 303 481 c 0
 238 481 192 452 183 405 c 1
 93 405 l 1
 105 499 189 560 305 560 c 0
 431 560 510 490 510 378 c 2
 510 0 l 1
 422 0 l 1
 422 105 l 1
 421 105 l 1
 413 34 348 -10 252 -10 c 0
274 61 m 0
 359 61 420 108 420 175 c 2
 420 253 l 1
 252 253 l 2
 192 253 155 217 155 160 c 0
 155 98 199 61 274 61 c 0
EndSplineSet
Validated: 1
Substitution2: "Single Substitution lookup 375 subtable" ordfeminine
Substitution2: "'aalt' Access All Alternates in Latin lookup 0 subtable" ordfeminine
EndChar

StartChar: aacute
Encoding: 225 225 181
Width: 600
GlyphClass: 2
Flags: W
AnchorPoint: "Anchor-3" 465 0 basechar 0
AnchorPoint: "Anchor-2" 305 0 basechar 0
AnchorPoint: "Anchor-0" 305 550 basechar 0
LayerCount: 2
Fore
SplineSet
247 645 m 1
 353 785 l 1
 450 785 l 1
 339 645 l 1
 247 645 l 1
252 -10 m 0
 136 -10 65 53 65 155 c 0
 65 257 137 320 250 320 c 2
 420 320 l 1
 420 375 l 2
 420 442 377 481 303 481 c 0
 238 481 192 452 183 405 c 1
 93 405 l 1
 105 499 189 560 305 560 c 0
 431 560 510 490 510 378 c 2
 510 0 l 1
 422 0 l 1
 422 105 l 1
 421 105 l 1
 413 34 348 -10 252 -10 c 0
274 61 m 0
 359 61 420 108 420 175 c 2
 420 253 l 1
 252 253 l 2
 192 253 155 217 155 160 c 0
 155 98 199 61 274 61 c 0
EndSplineSet
Validated: 1
EndChar

StartChar: abreve
Encoding: 259 259 182
Width: 600
GlyphClass: 2
Flags: W
AnchorPoint: "Anchor-3" 465 0 basechar 0
AnchorPoint: "Anchor-2" 305 0 basechar 0
AnchorPoint: "Anchor-0" 305 550 basechar 0
LayerCount: 2
Fore
SplineSet
305 640 m 0
 209 640 145 698 145 785 c 1
 216 785 l 1
 216 733 251 698 304 698 c 0
 358 698 394 733 394 785 c 1
 465 785 l 1
 465 698 401 640 305 640 c 0
252 -10 m 0
 136 -10 65 53 65 155 c 0
 65 257 137 320 250 320 c 2
 420 320 l 1
 420 375 l 2
 420 442 377 481 303 481 c 0
 238 481 192 452 183 405 c 1
 93 405 l 1
 105 499 189 560 305 560 c 0
 431 560 510 490 510 378 c 2
 510 0 l 1
 422 0 l 1
 422 105 l 1
 421 105 l 1
 413 34 348 -10 252 -10 c 0
274 61 m 0
 359 61 420 108 420 175 c 2
 420 253 l 1
 252 253 l 2
 192 253 155 217 155 160 c 0
 155 98 199 61 274 61 c 0
EndSplineSet
Validated: 1
EndChar

StartChar: uni1EAF
Encoding: 7855 7855 183
Width: 600
GlyphClass: 2
Flags: W
AnchorPoint: "Anchor-3" 465 0 basechar 0
AnchorPoint: "Anchor-2" 305 0 basechar 0
AnchorPoint: "Anchor-0" 305 550 basechar 0
LayerCount: 2
Fore
SplineSet
242 760 m 1
 357 890 l 1
 453 890 l 1
 333 760 l 1
 242 760 l 1
305 640 m 0
 203 640 135 692 135 770 c 1
 205 770 l 1
 205 728 245 700 305 700 c 0
 365 700 405 728 405 770 c 1
 475 770 l 1
 475 692 407 640 305 640 c 0
252 -10 m 0
 136 -10 65 53 65 155 c 0
 65 257 137 320 250 320 c 2
 420 320 l 1
 420 375 l 2
 420 442 377 481 303 481 c 0
 238 481 192 452 183 405 c 1
 93 405 l 1
 105 499 189 560 305 560 c 0
 431 560 510 490 510 378 c 2
 510 0 l 1
 422 0 l 1
 422 105 l 1
 421 105 l 1
 413 34 348 -10 252 -10 c 0
274 61 m 0
 359 61 420 108 420 175 c 2
 420 253 l 1
 252 253 l 2
 192 253 155 217 155 160 c 0
 155 98 199 61 274 61 c 0
EndSplineSet
Validated: 1
EndChar

StartChar: uni1EB7
Encoding: 7863 7863 184
Width: 600
GlyphClass: 2
Flags: W
AnchorPoint: "Anchor-3" 465 0 basechar 0
AnchorPoint: "Anchor-2" 305 0 basechar 0
AnchorPoint: "Anchor-0" 305 550 basechar 0
LayerCount: 2
Fore
SplineSet
305 640 m 0
 209 640 145 698 145 785 c 1
 216 785 l 1
 216 733 251 698 304 698 c 0
 358 698 394 733 394 785 c 1
 465 785 l 1
 465 698 401 640 305 640 c 0
252 -10 m 0
 136 -10 65 53 65 155 c 0
 65 257 137 320 250 320 c 2
 420 320 l 1
 420 375 l 2
 420 442 377 481 303 481 c 0
 238 481 192 452 183 405 c 1
 93 405 l 1
 105 499 189 560 305 560 c 0
 431 560 510 490 510 378 c 2
 510 0 l 1
 422 0 l 1
 422 105 l 1
 421 105 l 1
 413 34 348 -10 252 -10 c 0
274 61 m 0
 359 61 420 108 420 175 c 2
 420 253 l 1
 252 253 l 2
 192 253 155 217 155 160 c 0
 155 98 199 61 274 61 c 0
305 -213 m 0
 261 -213 234 -189 234 -150 c 0
 234 -110 261 -85 305 -85 c 0
 349 -85 376 -110 376 -150 c 0
 376 -189 349 -213 305 -213 c 0
EndSplineSet
Validated: 1
EndChar

StartChar: uni1EB1
Encoding: 7857 7857 185
Width: 600
GlyphClass: 2
Flags: W
AnchorPoint: "Anchor-3" 465 0 basechar 0
AnchorPoint: "Anchor-2" 305 0 basechar 0
AnchorPoint: "Anchor-0" 305 550 basechar 0
LayerCount: 2
Fore
SplineSet
277 760 m 1
 157 890 l 1
 253 890 l 1
 368 760 l 1
 277 760 l 1
305 640 m 0
 203 640 135 692 135 770 c 1
 205 770 l 1
 205 728 245 700 305 700 c 0
 365 700 405 728 405 770 c 1
 475 770 l 1
 475 692 407 640 305 640 c 0
252 -10 m 0
 136 -10 65 53 65 155 c 0
 65 257 137 320 250 320 c 2
 420 320 l 1
 420 375 l 2
 420 442 377 481 303 481 c 0
 238 481 192 452 183 405 c 1
 93 405 l 1
 105 499 189 560 305 560 c 0
 431 560 510 490 510 378 c 2
 510 0 l 1
 422 0 l 1
 422 105 l 1
 421 105 l 1
 413 34 348 -10 252 -10 c 0
274 61 m 0
 359 61 420 108 420 175 c 2
 420 253 l 1
 252 253 l 2
 192 253 155 217 155 160 c 0
 155 98 199 61 274 61 c 0
EndSplineSet
Validated: 1
EndChar

StartChar: uni1EB3
Encoding: 7859 7859 186
Width: 600
GlyphClass: 2
Flags: W
AnchorPoint: "Anchor-3" 465 0 basechar 0
AnchorPoint: "Anchor-2" 305 0 basechar 0
AnchorPoint: "Anchor-0" 305 550 basechar 0
LayerCount: 2
Fore
SplineSet
258 760 m 1
 303 821 l 2
 309 829 312 838 312 846 c 0
 312 861 302 870 285 870 c 2
 230 870 l 1
 230 930 l 1
 295 930 l 2
 352 930 389 901 389 859 c 0
 389 841 382 825 372 810 c 2
 337 760 l 1
 258 760 l 1
305 640 m 0
 203 640 135 692 135 770 c 1
 205 770 l 1
 205 728 245 700 305 700 c 0
 365 700 405 728 405 770 c 1
 475 770 l 1
 475 692 407 640 305 640 c 0
252 -10 m 0
 136 -10 65 53 65 155 c 0
 65 257 137 320 250 320 c 2
 420 320 l 1
 420 375 l 2
 420 442 377 481 303 481 c 0
 238 481 192 452 183 405 c 1
 93 405 l 1
 105 499 189 560 305 560 c 0
 431 560 510 490 510 378 c 2
 510 0 l 1
 422 0 l 1
 422 105 l 1
 421 105 l 1
 413 34 348 -10 252 -10 c 0
274 61 m 0
 359 61 420 108 420 175 c 2
 420 253 l 1
 252 253 l 2
 192 253 155 217 155 160 c 0
 155 98 199 61 274 61 c 0
EndSplineSet
Validated: 1
EndChar

StartChar: uni1EB5
Encoding: 7861 7861 187
Width: 600
GlyphClass: 2
Flags: W
AnchorPoint: "Anchor-3" 465 0 basechar 0
AnchorPoint: "Anchor-2" 305 0 basechar 0
AnchorPoint: "Anchor-0" 305 550 basechar 0
LayerCount: 2
Fore
SplineSet
371 812 m 0
 287 812 285 875 240 875 c 0
 221 875 210 865 210 845 c 2
 210 820 l 1
 145 820 l 1
 145 840 l 2
 145 893 183 928 239 928 c 0
 324 928 325 865 370 865 c 0
 390 865 400 876 400 895 c 2
 400 920 l 1
 465 920 l 1
 465 900 l 2
 465 847 427 812 371 812 c 0
305 645 m 0
 209 645 145 697 145 775 c 1
 210 775 l 1
 210 733 248 704 304 704 c 0
 361 704 400 733 400 775 c 1
 465 775 l 1
 465 697 401 645 305 645 c 0
252 -10 m 0
 136 -10 65 53 65 155 c 0
 65 257 137 320 250 320 c 2
 420 320 l 1
 420 375 l 2
 420 442 377 481 303 481 c 0
 238 481 192 452 183 405 c 1
 93 405 l 1
 105 499 189 560 305 560 c 0
 431 560 510 490 510 378 c 2
 510 0 l 1
 422 0 l 1
 422 105 l 1
 421 105 l 1
 413 34 348 -10 252 -10 c 0
274 61 m 0
 359 61 420 108 420 175 c 2
 420 253 l 1
 252 253 l 2
 192 253 155 217 155 160 c 0
 155 98 199 61 274 61 c 0
EndSplineSet
Validated: 1
EndChar

StartChar: uni01CE
Encoding: 462 462 188
Width: 600
GlyphClass: 2
Flags: W
AnchorPoint: "Anchor-3" 465 0 basechar 0
AnchorPoint: "Anchor-2" 305 0 basechar 0
AnchorPoint: "Anchor-0" 305 550 basechar 0
LayerCount: 2
Fore
SplineSet
264 645 m 1
 124 785 l 1
 223 785 l 1
 305 707 l 1
 385 785 l 1
 486 785 l 1
 347 645 l 1
 264 645 l 1
252 -10 m 0
 136 -10 65 53 65 155 c 0
 65 257 137 320 250 320 c 2
 420 320 l 1
 420 375 l 2
 420 442 377 481 303 481 c 0
 238 481 192 452 183 405 c 1
 93 405 l 1
 105 499 189 560 305 560 c 0
 431 560 510 490 510 378 c 2
 510 0 l 1
 422 0 l 1
 422 105 l 1
 421 105 l 1
 413 34 348 -10 252 -10 c 0
274 61 m 0
 359 61 420 108 420 175 c 2
 420 253 l 1
 252 253 l 2
 192 253 155 217 155 160 c 0
 155 98 199 61 274 61 c 0
EndSplineSet
Validated: 1
EndChar

StartChar: acircumflex
Encoding: 226 226 189
Width: 600
GlyphClass: 2
Flags: W
AnchorPoint: "Anchor-3" 465 0 basechar 0
AnchorPoint: "Anchor-2" 305 0 basechar 0
AnchorPoint: "Anchor-0" 305 550 basechar 0
LayerCount: 2
Fore
SplineSet
124 645 m 1
 263 785 l 1
 346 785 l 1
 486 645 l 1
 387 645 l 1
 305 723 l 1
 225 645 l 1
 124 645 l 1
252 -10 m 0
 136 -10 65 53 65 155 c 0
 65 257 137 320 250 320 c 2
 420 320 l 1
 420 375 l 2
 420 442 377 481 303 481 c 0
 238 481 192 452 183 405 c 1
 93 405 l 1
 105 499 189 560 305 560 c 0
 431 560 510 490 510 378 c 2
 510 0 l 1
 422 0 l 1
 422 105 l 1
 421 105 l 1
 413 34 348 -10 252 -10 c 0
274 61 m 0
 359 61 420 108 420 175 c 2
 420 253 l 1
 252 253 l 2
 192 253 155 217 155 160 c 0
 155 98 199 61 274 61 c 0
EndSplineSet
Validated: 1
EndChar

StartChar: uni1EA5
Encoding: 7845 7845 190
Width: 600
GlyphClass: 2
Flags: W
AnchorPoint: "Anchor-3" 465 0 basechar 0
AnchorPoint: "Anchor-2" 305 0 basechar 0
AnchorPoint: "Anchor-0" 305 550 basechar 0
LayerCount: 2
Fore
SplineSet
415 760 m 1
 530 900 l 1
 630 900 l 1
 510 760 l 1
 415 760 l 1
125 645 m 1
 263 785 l 1
 347 785 l 1
 486 645 l 1
 385 645 l 1
 305 723 l 1
 224 645 l 1
 125 645 l 1
252 -10 m 0
 136 -10 65 53 65 155 c 0
 65 257 137 320 250 320 c 2
 420 320 l 1
 420 375 l 2
 420 442 377 481 303 481 c 0
 238 481 192 452 183 405 c 1
 93 405 l 1
 105 499 189 560 305 560 c 0
 431 560 510 490 510 378 c 2
 510 0 l 1
 422 0 l 1
 422 105 l 1
 421 105 l 1
 413 34 348 -10 252 -10 c 0
274 61 m 0
 359 61 420 108 420 175 c 2
 420 253 l 1
 252 253 l 2
 192 253 155 217 155 160 c 0
 155 98 199 61 274 61 c 0
EndSplineSet
Validated: 1
EndChar

StartChar: uni1EAD
Encoding: 7853 7853 191
Width: 600
GlyphClass: 2
Flags: W
AnchorPoint: "Anchor-3" 465 0 basechar 0
AnchorPoint: "Anchor-2" 305 0 basechar 0
AnchorPoint: "Anchor-0" 305 550 basechar 0
LayerCount: 2
Fore
SplineSet
124 645 m 1
 263 785 l 1
 346 785 l 1
 486 645 l 1
 387 645 l 1
 305 723 l 1
 225 645 l 1
 124 645 l 1
252 -10 m 0
 136 -10 65 53 65 155 c 0
 65 257 137 320 250 320 c 2
 420 320 l 1
 420 375 l 2
 420 442 377 481 303 481 c 0
 238 481 192 452 183 405 c 1
 93 405 l 1
 105 499 189 560 305 560 c 0
 431 560 510 490 510 378 c 2
 510 0 l 1
 422 0 l 1
 422 105 l 1
 421 105 l 1
 413 34 348 -10 252 -10 c 0
274 61 m 0
 359 61 420 108 420 175 c 2
 420 253 l 1
 252 253 l 2
 192 253 155 217 155 160 c 0
 155 98 199 61 274 61 c 0
305 -213 m 0
 261 -213 234 -189 234 -150 c 0
 234 -110 261 -85 305 -85 c 0
 349 -85 376 -110 376 -150 c 0
 376 -189 349 -213 305 -213 c 0
EndSplineSet
Validated: 1
EndChar

StartChar: uni1EA7
Encoding: 7847 7847 192
Width: 600
GlyphClass: 2
Flags: W
AnchorPoint: "Anchor-3" 465 0 basechar 0
AnchorPoint: "Anchor-2" 305 0 basechar 0
AnchorPoint: "Anchor-0" 305 550 basechar 0
LayerCount: 2
Fore
SplineSet
455 760 m 1
 325 900 l 1
 425 900 l 1
 550 760 l 1
 455 760 l 1
125 645 m 1
 263 785 l 1
 347 785 l 1
 486 645 l 1
 385 645 l 1
 305 723 l 1
 224 645 l 1
 125 645 l 1
252 -10 m 0
 136 -10 65 53 65 155 c 0
 65 257 137 320 250 320 c 2
 420 320 l 1
 420 375 l 2
 420 442 377 481 303 481 c 0
 238 481 192 452 183 405 c 1
 93 405 l 1
 105 499 189 560 305 560 c 0
 431 560 510 490 510 378 c 2
 510 0 l 1
 422 0 l 1
 422 105 l 1
 421 105 l 1
 413 34 348 -10 252 -10 c 0
274 61 m 0
 359 61 420 108 420 175 c 2
 420 253 l 1
 252 253 l 2
 192 253 155 217 155 160 c 0
 155 98 199 61 274 61 c 0
EndSplineSet
Validated: 1
EndChar

StartChar: uni1EA9
Encoding: 7849 7849 193
Width: 600
GlyphClass: 2
Flags: W
AnchorPoint: "Anchor-3" 465 0 basechar 0
AnchorPoint: "Anchor-2" 305 0 basechar 0
AnchorPoint: "Anchor-0" 305 550 basechar 0
LayerCount: 2
Fore
SplineSet
428 760 m 1
 473 821 l 2
 479 830 482 837 482 845 c 0
 482 861 470 870 450 870 c 2
 400 870 l 1
 400 930 l 1
 455 930 l 2
 516 930 555 901 555 855 c 0
 555 840 550 827 538 810 c 2
 503 760 l 1
 428 760 l 1
125 645 m 1
 263 785 l 1
 347 785 l 1
 486 645 l 1
 385 645 l 1
 305 723 l 1
 224 645 l 1
 125 645 l 1
252 -10 m 0
 136 -10 65 53 65 155 c 0
 65 257 137 320 250 320 c 2
 420 320 l 1
 420 375 l 2
 420 442 377 481 303 481 c 0
 238 481 192 452 183 405 c 1
 93 405 l 1
 105 499 189 560 305 560 c 0
 431 560 510 490 510 378 c 2
 510 0 l 1
 422 0 l 1
 422 105 l 1
 421 105 l 1
 413 34 348 -10 252 -10 c 0
274 61 m 0
 359 61 420 108 420 175 c 2
 420 253 l 1
 252 253 l 2
 192 253 155 217 155 160 c 0
 155 98 199 61 274 61 c 0
EndSplineSet
Validated: 1
EndChar

StartChar: uni1EAB
Encoding: 7851 7851 194
Width: 600
GlyphClass: 2
Flags: W
AnchorPoint: "Anchor-3" 465 0 basechar 0
AnchorPoint: "Anchor-2" 305 0 basechar 0
AnchorPoint: "Anchor-0" 305 550 basechar 0
LayerCount: 2
Fore
SplineSet
371 812 m 0
 287 812 285 875 240 875 c 0
 221 875 210 865 210 845 c 2
 210 820 l 1
 145 820 l 1
 145 840 l 2
 145 893 183 928 239 928 c 0
 324 928 325 865 370 865 c 0
 390 865 400 876 400 895 c 2
 400 920 l 1
 465 920 l 1
 465 900 l 2
 465 847 427 812 371 812 c 0
125 645 m 1
 263 785 l 1
 347 785 l 1
 486 645 l 1
 385 645 l 1
 305 723 l 1
 224 645 l 1
 125 645 l 1
252 -10 m 0
 136 -10 65 53 65 155 c 0
 65 257 137 320 250 320 c 2
 420 320 l 1
 420 375 l 2
 420 442 377 481 303 481 c 0
 238 481 192 452 183 405 c 1
 93 405 l 1
 105 499 189 560 305 560 c 0
 431 560 510 490 510 378 c 2
 510 0 l 1
 422 0 l 1
 422 105 l 1
 421 105 l 1
 413 34 348 -10 252 -10 c 0
274 61 m 0
 359 61 420 108 420 175 c 2
 420 253 l 1
 252 253 l 2
 192 253 155 217 155 160 c 0
 155 98 199 61 274 61 c 0
EndSplineSet
Validated: 1
EndChar

StartChar: adieresis
Encoding: 228 228 195
Width: 600
GlyphClass: 2
Flags: W
AnchorPoint: "Anchor-3" 465 0 basechar 0
AnchorPoint: "Anchor-2" 305 0 basechar 0
AnchorPoint: "Anchor-0" 305 550 basechar 0
LayerCount: 2
Fore
SplineSet
416 649 m 0
 377 649 352 673 352 712 c 0
 352 752 377 777 416 777 c 0
 455 777 480 752 480 712 c 0
 480 673 455 649 416 649 c 0
194 649 m 0
 155 649 130 673 130 712 c 0
 130 752 155 777 194 777 c 0
 233 777 258 752 258 712 c 0
 258 673 233 649 194 649 c 0
252 -10 m 0
 136 -10 65 53 65 155 c 0
 65 257 137 320 250 320 c 2
 420 320 l 1
 420 375 l 2
 420 442 377 481 303 481 c 0
 238 481 192 452 183 405 c 1
 93 405 l 1
 105 499 189 560 305 560 c 0
 431 560 510 490 510 378 c 2
 510 0 l 1
 422 0 l 1
 422 105 l 1
 421 105 l 1
 413 34 348 -10 252 -10 c 0
274 61 m 0
 359 61 420 108 420 175 c 2
 420 253 l 1
 252 253 l 2
 192 253 155 217 155 160 c 0
 155 98 199 61 274 61 c 0
EndSplineSet
Validated: 1
EndChar

StartChar: uni1EA1
Encoding: 7841 7841 196
Width: 600
GlyphClass: 2
Flags: W
AnchorPoint: "Anchor-3" 465 0 basechar 0
AnchorPoint: "Anchor-2" 305 0 basechar 0
AnchorPoint: "Anchor-0" 305 550 basechar 0
LayerCount: 2
Fore
SplineSet
252 -10 m 0
 136 -10 65 53 65 155 c 0
 65 257 137 320 250 320 c 2
 420 320 l 1
 420 375 l 2
 420 442 377 481 303 481 c 0
 238 481 192 452 183 405 c 1
 93 405 l 1
 105 499 189 560 305 560 c 0
 431 560 510 490 510 378 c 2
 510 0 l 1
 422 0 l 1
 422 105 l 1
 421 105 l 1
 413 34 348 -10 252 -10 c 0
274 61 m 0
 359 61 420 108 420 175 c 2
 420 253 l 1
 252 253 l 2
 192 253 155 217 155 160 c 0
 155 98 199 61 274 61 c 0
305 -213 m 0
 261 -213 234 -189 234 -150 c 0
 234 -110 261 -85 305 -85 c 0
 349 -85 376 -110 376 -150 c 0
 376 -189 349 -213 305 -213 c 0
EndSplineSet
Validated: 1
EndChar

StartChar: agrave
Encoding: 224 224 197
Width: 600
GlyphClass: 2
Flags: W
AnchorPoint: "Anchor-3" 465 0 basechar 0
AnchorPoint: "Anchor-2" 305 0 basechar 0
AnchorPoint: "Anchor-0" 305 550 basechar 0
LayerCount: 2
Fore
SplineSet
272 645 m 1
 157 785 l 1
 257 785 l 1
 367 645 l 1
 272 645 l 1
252 -10 m 0
 136 -10 65 53 65 155 c 0
 65 257 137 320 250 320 c 2
 420 320 l 1
 420 375 l 2
 420 442 377 481 303 481 c 0
 238 481 192 452 183 405 c 1
 93 405 l 1
 105 499 189 560 305 560 c 0
 431 560 510 490 510 378 c 2
 510 0 l 1
 422 0 l 1
 422 105 l 1
 421 105 l 1
 413 34 348 -10 252 -10 c 0
274 61 m 0
 359 61 420 108 420 175 c 2
 420 253 l 1
 252 253 l 2
 192 253 155 217 155 160 c 0
 155 98 199 61 274 61 c 0
EndSplineSet
Validated: 1
EndChar

StartChar: uni1EA3
Encoding: 7843 7843 198
Width: 600
GlyphClass: 2
Flags: W
AnchorPoint: "Anchor-3" 465 0 basechar 0
AnchorPoint: "Anchor-2" 305 0 basechar 0
AnchorPoint: "Anchor-0" 305 550 basechar 0
LayerCount: 2
Fore
SplineSet
263 645 m 1
 313 708 l 2
 322 720 327 730 327 740 c 0
 327 754 317 760 295 760 c 2
 215 760 l 1
 215 825 l 1
 320 825 l 2
 371 825 405 797 405 751 c 0
 405 731 399 711 388 697 c 2
 348 645 l 1
 263 645 l 1
252 -10 m 0
 136 -10 65 53 65 155 c 0
 65 257 137 320 250 320 c 2
 420 320 l 1
 420 375 l 2
 420 442 377 481 303 481 c 0
 238 481 192 452 183 405 c 1
 93 405 l 1
 105 499 189 560 305 560 c 0
 431 560 510 490 510 378 c 2
 510 0 l 1
 422 0 l 1
 422 105 l 1
 421 105 l 1
 413 34 348 -10 252 -10 c 0
274 61 m 0
 359 61 420 108 420 175 c 2
 420 253 l 1
 252 253 l 2
 192 253 155 217 155 160 c 0
 155 98 199 61 274 61 c 0
EndSplineSet
Validated: 1
EndChar

StartChar: amacron
Encoding: 257 257 199
Width: 600
GlyphClass: 2
Flags: W
AnchorPoint: "Anchor-3" 465 0 basechar 0
AnchorPoint: "Anchor-2" 305 0 basechar 0
AnchorPoint: "Anchor-0" 305 550 basechar 0
LayerCount: 2
Fore
SplineSet
145 670 m 1
 145 745 l 1
 465 745 l 1
 465 670 l 1
 145 670 l 1
252 -10 m 0
 136 -10 65 53 65 155 c 0
 65 257 137 320 250 320 c 2
 420 320 l 1
 420 375 l 2
 420 442 377 481 303 481 c 0
 238 481 192 452 183 405 c 1
 93 405 l 1
 105 499 189 560 305 560 c 0
 431 560 510 490 510 378 c 2
 510 0 l 1
 422 0 l 1
 422 105 l 1
 421 105 l 1
 413 34 348 -10 252 -10 c 0
274 61 m 0
 359 61 420 108 420 175 c 2
 420 253 l 1
 252 253 l 2
 192 253 155 217 155 160 c 0
 155 98 199 61 274 61 c 0
EndSplineSet
Validated: 1
EndChar

StartChar: aogonek
Encoding: 261 261 200
Width: 600
GlyphClass: 2
Flags: W
AnchorPoint: "Anchor-3" 465 0 basechar 0
AnchorPoint: "Anchor-2" 305 0 basechar 0
AnchorPoint: "Anchor-0" 305 550 basechar 0
LayerCount: 2
Fore
SplineSet
252 -10 m 0
 136 -10 65 53 65 155 c 0
 65 257 137 320 250 320 c 2
 420 320 l 1
 420 375 l 2
 420 442 377 481 303 481 c 0
 238 481 192 452 183 405 c 1
 93 405 l 1
 105 499 189 560 305 560 c 0
 431 560 510 490 510 378 c 2
 510 0 l 1
 465 -37 446 -65 446 -93 c 0
 446 -122 467 -143 501 -143 c 2
 561 -143 l 1
 561 -203 l 1
 483 -203 l 2
 409 -203 361 -164 361 -110 c 0
 361 -75 380 -40 432 0 c 1
 422 0 l 1
 422 105 l 1
 421 105 l 1
 413 34 348 -10 252 -10 c 0
274 61 m 0
 359 61 420 108 420 175 c 2
 420 253 l 1
 252 253 l 2
 192 253 155 217 155 160 c 0
 155 98 199 61 274 61 c 0
EndSplineSet
Validated: 1
EndChar

StartChar: aring
Encoding: 229 229 201
Width: 600
GlyphClass: 2
Flags: W
AnchorPoint: "Anchor-3" 465 0 basechar 0
AnchorPoint: "Anchor-2" 305 0 basechar 0
AnchorPoint: "Anchor-0" 305 550 basechar 0
LayerCount: 2
Fore
SplineSet
305 608 m 0
 233 608 185 654 185 722 c 0
 185 790 233 836 305 836 c 0
 377 836 425 790 425 722 c 0
 425 654 377 608 305 608 c 0
305 661 m 0
 341 661 365 685 365 722 c 0
 365 759 341 784 305 784 c 0
 269 784 245 759 245 722 c 0
 245 685 269 661 305 661 c 0
252 -10 m 0
 136 -10 65 53 65 155 c 0
 65 257 137 320 250 320 c 2
 420 320 l 1
 420 375 l 2
 420 442 377 481 303 481 c 0
 238 481 192 452 183 405 c 1
 93 405 l 1
 105 499 189 560 305 560 c 0
 431 560 510 490 510 378 c 2
 510 0 l 1
 422 0 l 1
 422 105 l 1
 421 105 l 1
 413 34 348 -10 252 -10 c 0
274 61 m 0
 359 61 420 108 420 175 c 2
 420 253 l 1
 252 253 l 2
 192 253 155 217 155 160 c 0
 155 98 199 61 274 61 c 0
EndSplineSet
Validated: 1
EndChar

StartChar: atilde
Encoding: 227 227 202
Width: 600
GlyphClass: 2
Flags: W
AnchorPoint: "Anchor-3" 465 0 basechar 0
AnchorPoint: "Anchor-2" 305 0 basechar 0
AnchorPoint: "Anchor-0" 305 550 basechar 0
LayerCount: 2
Fore
SplineSet
375 650 m 0
 295 650 285 720 240 720 c 0
 222 720 210 709 210 685 c 2
 210 655 l 1
 145 655 l 1
 145 685 l 2
 145 745 181 780 235 780 c 0
 315 780 325 710 370 710 c 0
 388 710 400 721 400 745 c 2
 400 775 l 1
 465 775 l 1
 465 745 l 2
 465 685 429 650 375 650 c 0
252 -10 m 0
 136 -10 65 53 65 155 c 0
 65 257 137 320 250 320 c 2
 420 320 l 1
 420 375 l 2
 420 442 377 481 303 481 c 0
 238 481 192 452 183 405 c 1
 93 405 l 1
 105 499 189 560 305 560 c 0
 431 560 510 490 510 378 c 2
 510 0 l 1
 422 0 l 1
 422 105 l 1
 421 105 l 1
 413 34 348 -10 252 -10 c 0
274 61 m 0
 359 61 420 108 420 175 c 2
 420 253 l 1
 252 253 l 2
 192 253 155 217 155 160 c 0
 155 98 199 61 274 61 c 0
EndSplineSet
Validated: 1
EndChar

StartChar: ae
Encoding: 230 230 203
Width: 600
GlyphClass: 2
Flags: W
AnchorPoint: "Anchor-0" 300 550 basechar 0
LayerCount: 2
Fore
SplineSet
170 -10 m 0
 87 -10 35 44 35 130 c 2
 35 190 l 2
 35 272 95 325 188 325 c 2
 262 325 l 1
 262 399 l 2
 262 457 241 483 195 483 c 0
 157 483 132 458 132 420 c 1
 47 420 l 1
 47 504 100 560 180 560 c 0
 258 560 295 514 301 480 c 1
 305 480 l 1
 311 514 346 560 420 560 c 0
 510 560 565 499 565 400 c 2
 565 255 l 1
 343 255 l 1
 343 150 l 2
 343 100 370 67 410 67 c 0
 453 67 480 91 480 130 c 1
 565 130 l 1
 565 46 507 -10 420 -10 c 0
 345 -10 310 36 305 70 c 1
 301 70 l 1
 295 36 255 -10 170 -10 c 0
343 325 m 1
 480 325 l 1
 480 400 l 2
 480 450 454 483 410 483 c 0
 368 483 343 450 343 400 c 2
 343 325 l 1
190 67 m 0
 233 67 262 100 262 150 c 2
 262 255 l 1
 190 255 l 2
 149 255 125 230 125 190 c 2
 125 130 l 2
 125 91 150 67 190 67 c 0
EndSplineSet
Validated: 1
EndChar

StartChar: aeacute
Encoding: 509 509 204
Width: 600
GlyphClass: 2
Flags: W
AnchorPoint: "Anchor-0" 300 550 basechar 0
LayerCount: 2
Fore
SplineSet
242 645 m 1
 348 785 l 1
 445 785 l 1
 334 645 l 1
 242 645 l 1
170 -10 m 0
 87 -10 35 44 35 130 c 2
 35 190 l 2
 35 272 95 325 188 325 c 2
 262 325 l 1
 262 399 l 2
 262 457 241 483 195 483 c 0
 157 483 132 458 132 420 c 1
 47 420 l 1
 47 504 100 560 180 560 c 0
 258 560 295 514 301 480 c 1
 305 480 l 1
 311 514 346 560 420 560 c 0
 510 560 565 499 565 400 c 2
 565 255 l 1
 343 255 l 1
 343 150 l 2
 343 100 370 67 410 67 c 0
 453 67 480 91 480 130 c 1
 565 130 l 1
 565 46 507 -10 420 -10 c 0
 345 -10 310 36 305 70 c 1
 301 70 l 1
 295 36 255 -10 170 -10 c 0
343 325 m 1
 480 325 l 1
 480 400 l 2
 480 450 454 483 410 483 c 0
 368 483 343 450 343 400 c 2
 343 325 l 1
190 67 m 0
 233 67 262 100 262 150 c 2
 262 255 l 1
 190 255 l 2
 149 255 125 230 125 190 c 2
 125 130 l 2
 125 91 150 67 190 67 c 0
EndSplineSet
Validated: 1
EndChar

StartChar: b
Encoding: 98 98 205
Width: 600
GlyphClass: 2
Flags: W
AnchorPoint: "Anchor-2" 300 0 basechar 0
AnchorPoint: "Anchor-0" 300 730 basechar 0
LayerCount: 2
Fore
SplineSet
332 -10 m 0
 249 -10 192 33 183 105 c 1
 182 105 l 1
 182 0 l 1
 92 0 l 1
 92 730 l 1
 182 730 l 1
 182 570 l 1
 180 445 l 1
 183 445 l 1
 193 516 250 560 332 560 c 0
 443 560 515 482 515 355 c 2
 515 194 l 2
 515 68 442 -10 332 -10 c 0
302 68 m 0
 378 68 425 115 425 200 c 2
 425 350 l 2
 425 435 378 482 302 482 c 0
 228 482 182 433 182 350 c 2
 182 200 l 2
 182 117 228 68 302 68 c 0
EndSplineSet
Validated: 1
EndChar

StartChar: c
Encoding: 99 99 206
Width: 600
GlyphClass: 2
Flags: W
AnchorPoint: "Anchor-2" 304 0 basechar 0
AnchorPoint: "Anchor-0" 304 550 basechar 0
LayerCount: 2
Fore
SplineSet
304 -10 m 0
 171 -10 85 69 85 200 c 2
 85 350 l 2
 85 481 171 560 304 560 c 0
 431 560 514 487 518 370 c 1
 428 370 l 1
 424 440 378 480 304 480 c 0
 225 480 175 433 175 351 c 2
 175 200 l 2
 175 117 225 70 304 70 c 0
 378 70 424 110 428 180 c 1
 518 180 l 1
 514 63 431 -10 304 -10 c 0
EndSplineSet
Validated: 1
EndChar

StartChar: cacute
Encoding: 263 263 207
Width: 600
GlyphClass: 2
Flags: W
AnchorPoint: "Anchor-2" 304 0 basechar 0
AnchorPoint: "Anchor-0" 304 550 basechar 0
LayerCount: 2
Fore
SplineSet
246 645 m 1
 352 785 l 1
 449 785 l 1
 338 645 l 1
 246 645 l 1
304 -10 m 0
 171 -10 85 69 85 200 c 2
 85 350 l 2
 85 481 171 560 304 560 c 0
 431 560 514 487 518 370 c 1
 428 370 l 1
 424 440 378 480 304 480 c 0
 225 480 175 433 175 351 c 2
 175 200 l 2
 175 117 225 70 304 70 c 0
 378 70 424 110 428 180 c 1
 518 180 l 1
 514 63 431 -10 304 -10 c 0
EndSplineSet
Validated: 1
EndChar

StartChar: ccaron
Encoding: 269 269 208
Width: 600
GlyphClass: 2
Flags: W
AnchorPoint: "Anchor-2" 304 0 basechar 0
AnchorPoint: "Anchor-0" 304 550 basechar 0
LayerCount: 2
Fore
SplineSet
263 645 m 1
 123 785 l 1
 222 785 l 1
 304 707 l 1
 384 785 l 1
 485 785 l 1
 346 645 l 1
 263 645 l 1
304 -10 m 0
 171 -10 85 69 85 200 c 2
 85 350 l 2
 85 481 171 560 304 560 c 0
 431 560 514 487 518 370 c 1
 428 370 l 1
 424 440 378 480 304 480 c 0
 225 480 175 433 175 351 c 2
 175 200 l 2
 175 117 225 70 304 70 c 0
 378 70 424 110 428 180 c 1
 518 180 l 1
 514 63 431 -10 304 -10 c 0
EndSplineSet
Validated: 1
EndChar

StartChar: ccedilla
Encoding: 231 231 209
Width: 600
GlyphClass: 2
Flags: W
AnchorPoint: "Anchor-2" 304 0 basechar 0
AnchorPoint: "Anchor-0" 304 550 basechar 0
LayerCount: 2
Fore
SplineSet
209 -203 m 1
 209 -148 l 1
 279 -148 l 2
 308 -148 328 -130 328 -112 c 0
 328 -89 290 -69 223 -69 c 1
 247 -5 l 1
 147 15 85 89 85 200 c 2
 85 350 l 2
 85 481 171 560 304 560 c 0
 431 560 514 487 518 370 c 1
 428 370 l 1
 424 440 378 480 304 480 c 0
 225 480 175 433 175 351 c 2
 175 200 l 2
 175 117 225 70 304 70 c 0
 378 70 424 110 428 180 c 1
 518 180 l 1
 514 63 431 -10 304 -10 c 2
 303 -10 l 1
 294 -35 l 1
 346 -41 414 -68 414 -120 c 0
 414 -166 366 -203 294 -203 c 2
 209 -203 l 1
EndSplineSet
Validated: 1
EndChar

StartChar: ccircumflex
Encoding: 265 265 210
Width: 600
GlyphClass: 2
Flags: W
AnchorPoint: "Anchor-2" 304 0 basechar 0
AnchorPoint: "Anchor-0" 304 550 basechar 0
LayerCount: 2
Fore
SplineSet
123 645 m 1
 262 785 l 1
 345 785 l 1
 485 645 l 1
 386 645 l 1
 304 723 l 1
 224 645 l 1
 123 645 l 1
304 -10 m 0
 171 -10 85 69 85 200 c 2
 85 350 l 2
 85 481 171 560 304 560 c 0
 431 560 514 487 518 370 c 1
 428 370 l 1
 424 440 378 480 304 480 c 0
 225 480 175 433 175 351 c 2
 175 200 l 2
 175 117 225 70 304 70 c 0
 378 70 424 110 428 180 c 1
 518 180 l 1
 514 63 431 -10 304 -10 c 0
EndSplineSet
Validated: 1
EndChar

StartChar: cdotaccent
Encoding: 267 267 211
Width: 600
GlyphClass: 2
Flags: W
AnchorPoint: "Anchor-2" 304 0 basechar 0
AnchorPoint: "Anchor-0" 304 550 basechar 0
LayerCount: 2
Fore
SplineSet
304 649 m 0
 260 649 233 673 233 712 c 0
 233 752 260 777 304 777 c 0
 348 777 375 752 375 712 c 0
 375 673 348 649 304 649 c 0
304 -10 m 0
 171 -10 85 69 85 200 c 2
 85 350 l 2
 85 481 171 560 304 560 c 0
 431 560 514 487 518 370 c 1
 428 370 l 1
 424 440 378 480 304 480 c 0
 225 480 175 433 175 351 c 2
 175 200 l 2
 175 117 225 70 304 70 c 0
 378 70 424 110 428 180 c 1
 518 180 l 1
 514 63 431 -10 304 -10 c 0
EndSplineSet
Validated: 1
EndChar

StartChar: d
Encoding: 100 100 212
Width: 600
Flags: W
LayerCount: 2
Fore
SplineSet
268 -10 m 0
 158 -10 85 68 85 194 c 2
 85 355 l 2
 85 482 157 560 268 560 c 0
 350 560 407 516 417 445 c 1
 420 445 l 1
 418 570 l 1
 418 730 l 1
 508 730 l 1
 508 0 l 1
 418 0 l 1
 418 105 l 1
 417 105 l 1
 407 33 351 -10 268 -10 c 0
298 68 m 0
 372 68 418 117 418 200 c 2
 418 350 l 2
 418 433 372 482 298 482 c 0
 222 482 175 435 175 350 c 2
 175 200 l 2
 175 115 222 68 298 68 c 0
EndSplineSet
Validated: 1
EndChar

StartChar: eth
Encoding: 240 240 213
Width: 600
Flags: W
LayerCount: 2
Fore
SplineSet
299 -10 m 0
 162 -10 70 80 70 215 c 0
 70 348 154 436 281 436 c 0
 339 436 380 404 395 380 c 1
 409 380 l 1
 403 393 382 430 345 480 c 2
 280 571 l 1
 117 495 l 1
 117 575 l 1
 237 631 l 1
 165 730 l 1
 269 730 l 1
 313 666 l 1
 461 735 l 1
 461 655 l 1
 355 606 l 1
 433 493 l 2
 492 408 530 308 530 223 c 0
 530 83 438 -10 299 -10 c 0
299 70 m 0
 384 70 440 128 440 215 c 0
 440 302 384 360 299 360 c 0
 216 360 160 302 160 215 c 0
 160 128 216 70 299 70 c 0
EndSplineSet
Validated: 1
EndChar

StartChar: dcaron
Encoding: 271 271 214
Width: 600
Flags: W
LayerCount: 2
Fore
SplineSet
510 550 m 1
 510 730 l 1
 600 730 l 1
 590 550 l 1
 510 550 l 1
228 -10 m 0
 127 -10 63 67 63 189 c 2
 63 360 l 2
 63 483 127 560 228 560 c 0
 304 560 354 516 362 445 c 1
 365 445 l 1
 363 570 l 1
 363 730 l 1
 453 730 l 1
 453 0 l 1
 363 0 l 1
 363 105 l 1
 362 105 l 1
 354 34 304 -10 228 -10 c 0
258 68 m 0
 324 68 363 115 363 195 c 2
 363 355 l 2
 363 435 324 482 258 482 c 0
 192 482 153 435 153 355 c 2
 153 195 l 2
 153 115 192 68 258 68 c 0
EndSplineSet
Validated: 1
EndChar

StartChar: dcroat
Encoding: 273 273 215
Width: 600
Flags: W
LayerCount: 2
Fore
SplineSet
268 -10 m 0
 158 -10 90 68 90 194 c 2
 90 295 l 2
 90 422 157 500 268 500 c 0
 350 500 406 456 415 385 c 1
 418 385 l 1
 416 510 l 1
 416 570 l 1
 250 570 l 1
 250 645 l 1
 416 645 l 1
 416 730 l 1
 506 730 l 1
 506 645 l 1
 600 645 l 1
 600 570 l 1
 506 570 l 1
 506 0 l 1
 416 0 l 1
 416 105 l 1
 415 105 l 1
 406 33 351 -10 268 -10 c 0
298 68 m 0
 372 68 416 117 416 200 c 2
 416 290 l 2
 416 373 372 422 298 422 c 0
 222 422 180 375 180 290 c 2
 180 200 l 2
 180 115 222 68 298 68 c 0
EndSplineSet
Validated: 1
EndChar

StartChar: e
Encoding: 101 101 216
Width: 600
GlyphClass: 2
Flags: W
AnchorPoint: "Anchor-3" 350 0 basechar 0
AnchorPoint: "Anchor-2" 300 0 basechar 0
AnchorPoint: "Anchor-0" 300 550 basechar 0
LayerCount: 2
Fore
SplineSet
300 -10 m 0
 170 -10 85 73 85 200 c 2
 85 350 l 2
 85 477 170 560 300 560 c 0
 430 560 515 477 515 350 c 2
 515 253 l 1
 173 253 l 1
 173 200 l 2
 173 113 218 66 300 66 c 0
 369 66 413 91 423 140 c 1
 513 140 l 1
 501 48 416 -10 300 -10 c 0
173 321 m 1
 427 321 l 1
 427 350 l 2
 427 437 382 485 300 485 c 0
 218 485 173 437 173 350 c 2
 173 321 l 1
EndSplineSet
Validated: 1
EndChar

StartChar: eacute
Encoding: 233 233 217
Width: 600
GlyphClass: 2
Flags: W
AnchorPoint: "Anchor-3" 350 0 basechar 0
AnchorPoint: "Anchor-2" 300 0 basechar 0
AnchorPoint: "Anchor-0" 300 550 basechar 0
LayerCount: 2
Fore
SplineSet
242 645 m 1
 348 785 l 1
 445 785 l 1
 334 645 l 1
 242 645 l 1
300 -10 m 0
 170 -10 85 73 85 200 c 2
 85 350 l 2
 85 477 170 560 300 560 c 0
 430 560 515 477 515 350 c 2
 515 253 l 1
 173 253 l 1
 173 200 l 2
 173 113 218 66 300 66 c 0
 369 66 413 91 423 140 c 1
 513 140 l 1
 501 48 416 -10 300 -10 c 0
173 321 m 1
 427 321 l 1
 427 350 l 2
 427 437 382 485 300 485 c 0
 218 485 173 437 173 350 c 2
 173 321 l 1
EndSplineSet
Validated: 1
EndChar

StartChar: ebreve
Encoding: 277 277 218
Width: 600
GlyphClass: 2
Flags: W
AnchorPoint: "Anchor-3" 350 0 basechar 0
AnchorPoint: "Anchor-2" 300 0 basechar 0
AnchorPoint: "Anchor-0" 300 550 basechar 0
LayerCount: 2
Fore
SplineSet
300 640 m 0
 204 640 140 698 140 785 c 1
 211 785 l 1
 211 733 246 698 299 698 c 0
 353 698 389 733 389 785 c 1
 460 785 l 1
 460 698 396 640 300 640 c 0
300 -10 m 0
 170 -10 85 73 85 200 c 2
 85 350 l 2
 85 477 170 560 300 560 c 0
 430 560 515 477 515 350 c 2
 515 253 l 1
 173 253 l 1
 173 200 l 2
 173 113 218 66 300 66 c 0
 369 66 413 91 423 140 c 1
 513 140 l 1
 501 48 416 -10 300 -10 c 0
173 321 m 1
 427 321 l 1
 427 350 l 2
 427 437 382 485 300 485 c 0
 218 485 173 437 173 350 c 2
 173 321 l 1
EndSplineSet
Validated: 1
EndChar

StartChar: ecaron
Encoding: 283 283 219
Width: 600
GlyphClass: 2
Flags: W
AnchorPoint: "Anchor-3" 350 0 basechar 0
AnchorPoint: "Anchor-2" 300 0 basechar 0
AnchorPoint: "Anchor-0" 300 550 basechar 0
LayerCount: 2
Fore
SplineSet
259 645 m 1
 119 785 l 1
 218 785 l 1
 300 707 l 1
 380 785 l 1
 481 785 l 1
 342 645 l 1
 259 645 l 1
300 -10 m 0
 170 -10 85 73 85 200 c 2
 85 350 l 2
 85 477 170 560 300 560 c 0
 430 560 515 477 515 350 c 2
 515 253 l 1
 173 253 l 1
 173 200 l 2
 173 113 218 66 300 66 c 0
 369 66 413 91 423 140 c 1
 513 140 l 1
 501 48 416 -10 300 -10 c 0
173 321 m 1
 427 321 l 1
 427 350 l 2
 427 437 382 485 300 485 c 0
 218 485 173 437 173 350 c 2
 173 321 l 1
EndSplineSet
Validated: 1
EndChar

StartChar: ecircumflex
Encoding: 234 234 220
Width: 600
GlyphClass: 2
Flags: W
AnchorPoint: "Anchor-3" 350 0 basechar 0
AnchorPoint: "Anchor-2" 300 0 basechar 0
AnchorPoint: "Anchor-0" 300 550 basechar 0
LayerCount: 2
Fore
SplineSet
119 645 m 1
 258 785 l 1
 341 785 l 1
 481 645 l 1
 382 645 l 1
 300 723 l 1
 220 645 l 1
 119 645 l 1
300 -10 m 0
 170 -10 85 73 85 200 c 2
 85 350 l 2
 85 477 170 560 300 560 c 0
 430 560 515 477 515 350 c 2
 515 253 l 1
 173 253 l 1
 173 200 l 2
 173 113 218 66 300 66 c 0
 369 66 413 91 423 140 c 1
 513 140 l 1
 501 48 416 -10 300 -10 c 0
173 321 m 1
 427 321 l 1
 427 350 l 2
 427 437 382 485 300 485 c 0
 218 485 173 437 173 350 c 2
 173 321 l 1
EndSplineSet
Validated: 1
EndChar

StartChar: uni1EBF
Encoding: 7871 7871 221
Width: 600
GlyphClass: 2
Flags: W
AnchorPoint: "Anchor-3" 350 0 basechar 0
AnchorPoint: "Anchor-2" 300 0 basechar 0
AnchorPoint: "Anchor-0" 300 550 basechar 0
LayerCount: 2
Fore
SplineSet
410 760 m 1
 525 900 l 1
 625 900 l 1
 505 760 l 1
 410 760 l 1
120 645 m 1
 258 785 l 1
 342 785 l 1
 481 645 l 1
 380 645 l 1
 300 723 l 1
 219 645 l 1
 120 645 l 1
300 -10 m 0
 170 -10 85 73 85 200 c 2
 85 350 l 2
 85 477 170 560 300 560 c 0
 430 560 515 477 515 350 c 2
 515 253 l 1
 173 253 l 1
 173 200 l 2
 173 113 218 66 300 66 c 0
 369 66 413 91 423 140 c 1
 513 140 l 1
 501 48 416 -10 300 -10 c 0
173 321 m 1
 427 321 l 1
 427 350 l 2
 427 437 382 485 300 485 c 0
 218 485 173 437 173 350 c 2
 173 321 l 1
EndSplineSet
Validated: 1
EndChar

StartChar: uni1EC7
Encoding: 7879 7879 222
Width: 600
GlyphClass: 2
Flags: W
AnchorPoint: "Anchor-3" 350 0 basechar 0
AnchorPoint: "Anchor-2" 300 0 basechar 0
AnchorPoint: "Anchor-0" 300 550 basechar 0
LayerCount: 2
Fore
SplineSet
119 645 m 1
 258 785 l 1
 341 785 l 1
 481 645 l 1
 382 645 l 1
 300 723 l 1
 220 645 l 1
 119 645 l 1
300 -10 m 0
 170 -10 85 73 85 200 c 2
 85 350 l 2
 85 477 170 560 300 560 c 0
 430 560 515 477 515 350 c 2
 515 253 l 1
 173 253 l 1
 173 200 l 2
 173 113 218 66 300 66 c 0
 369 66 413 91 423 140 c 1
 513 140 l 1
 501 48 416 -10 300 -10 c 0
173 321 m 1
 427 321 l 1
 427 350 l 2
 427 437 382 485 300 485 c 0
 218 485 173 437 173 350 c 2
 173 321 l 1
300 -213 m 0
 256 -213 229 -189 229 -150 c 0
 229 -110 256 -85 300 -85 c 0
 344 -85 371 -110 371 -150 c 0
 371 -189 344 -213 300 -213 c 0
EndSplineSet
Validated: 1
EndChar

StartChar: uni1EC1
Encoding: 7873 7873 223
Width: 600
GlyphClass: 2
Flags: W
AnchorPoint: "Anchor-3" 350 0 basechar 0
AnchorPoint: "Anchor-2" 300 0 basechar 0
AnchorPoint: "Anchor-0" 300 550 basechar 0
LayerCount: 2
Fore
SplineSet
450 760 m 1
 320 900 l 1
 420 900 l 1
 545 760 l 1
 450 760 l 1
120 645 m 1
 258 785 l 1
 342 785 l 1
 481 645 l 1
 380 645 l 1
 300 723 l 1
 219 645 l 1
 120 645 l 1
300 -10 m 0
 170 -10 85 73 85 200 c 2
 85 350 l 2
 85 477 170 560 300 560 c 0
 430 560 515 477 515 350 c 2
 515 253 l 1
 173 253 l 1
 173 200 l 2
 173 113 218 66 300 66 c 0
 369 66 413 91 423 140 c 1
 513 140 l 1
 501 48 416 -10 300 -10 c 0
173 321 m 1
 427 321 l 1
 427 350 l 2
 427 437 382 485 300 485 c 0
 218 485 173 437 173 350 c 2
 173 321 l 1
EndSplineSet
Validated: 1
EndChar

StartChar: uni1EC3
Encoding: 7875 7875 224
Width: 600
GlyphClass: 2
Flags: W
AnchorPoint: "Anchor-3" 350 0 basechar 0
AnchorPoint: "Anchor-2" 300 0 basechar 0
AnchorPoint: "Anchor-0" 300 550 basechar 0
LayerCount: 2
Fore
SplineSet
423 760 m 1
 468 821 l 2
 474 830 477 837 477 845 c 0
 477 861 465 870 445 870 c 2
 395 870 l 1
 395 930 l 1
 450 930 l 2
 511 930 550 901 550 855 c 0
 550 840 545 827 533 810 c 2
 498 760 l 1
 423 760 l 1
120 645 m 1
 258 785 l 1
 342 785 l 1
 481 645 l 1
 380 645 l 1
 300 723 l 1
 219 645 l 1
 120 645 l 1
300 -10 m 0
 170 -10 85 73 85 200 c 2
 85 350 l 2
 85 477 170 560 300 560 c 0
 430 560 515 477 515 350 c 2
 515 253 l 1
 173 253 l 1
 173 200 l 2
 173 113 218 66 300 66 c 0
 369 66 413 91 423 140 c 1
 513 140 l 1
 501 48 416 -10 300 -10 c 0
173 321 m 1
 427 321 l 1
 427 350 l 2
 427 437 382 485 300 485 c 0
 218 485 173 437 173 350 c 2
 173 321 l 1
EndSplineSet
Validated: 1
EndChar

StartChar: uni1EC5
Encoding: 7877 7877 225
Width: 600
GlyphClass: 2
Flags: W
AnchorPoint: "Anchor-3" 350 0 basechar 0
AnchorPoint: "Anchor-2" 300 0 basechar 0
AnchorPoint: "Anchor-0" 300 550 basechar 0
LayerCount: 2
Fore
SplineSet
366 812 m 0
 282 812 280 875 235 875 c 0
 216 875 205 865 205 845 c 2
 205 820 l 1
 140 820 l 1
 140 840 l 2
 140 893 178 928 234 928 c 0
 319 928 320 865 365 865 c 0
 385 865 395 876 395 895 c 2
 395 920 l 1
 460 920 l 1
 460 900 l 2
 460 847 422 812 366 812 c 0
120 645 m 1
 258 785 l 1
 342 785 l 1
 481 645 l 1
 380 645 l 1
 300 723 l 1
 219 645 l 1
 120 645 l 1
300 -10 m 0
 170 -10 85 73 85 200 c 2
 85 350 l 2
 85 477 170 560 300 560 c 0
 430 560 515 477 515 350 c 2
 515 253 l 1
 173 253 l 1
 173 200 l 2
 173 113 218 66 300 66 c 0
 369 66 413 91 423 140 c 1
 513 140 l 1
 501 48 416 -10 300 -10 c 0
173 321 m 1
 427 321 l 1
 427 350 l 2
 427 437 382 485 300 485 c 0
 218 485 173 437 173 350 c 2
 173 321 l 1
EndSplineSet
Validated: 1
EndChar

StartChar: edieresis
Encoding: 235 235 226
Width: 600
GlyphClass: 2
Flags: W
AnchorPoint: "Anchor-3" 350 0 basechar 0
AnchorPoint: "Anchor-2" 300 0 basechar 0
AnchorPoint: "Anchor-0" 300 550 basechar 0
LayerCount: 2
Fore
SplineSet
411 649 m 0
 372 649 347 673 347 712 c 0
 347 752 372 777 411 777 c 0
 450 777 475 752 475 712 c 0
 475 673 450 649 411 649 c 0
189 649 m 0
 150 649 125 673 125 712 c 0
 125 752 150 777 189 777 c 0
 228 777 253 752 253 712 c 0
 253 673 228 649 189 649 c 0
300 -10 m 0
 170 -10 85 73 85 200 c 2
 85 350 l 2
 85 477 170 560 300 560 c 0
 430 560 515 477 515 350 c 2
 515 253 l 1
 173 253 l 1
 173 200 l 2
 173 113 218 66 300 66 c 0
 369 66 413 91 423 140 c 1
 513 140 l 1
 501 48 416 -10 300 -10 c 0
173 321 m 1
 427 321 l 1
 427 350 l 2
 427 437 382 485 300 485 c 0
 218 485 173 437 173 350 c 2
 173 321 l 1
EndSplineSet
Validated: 1
EndChar

StartChar: edotaccent
Encoding: 279 279 227
Width: 600
GlyphClass: 2
Flags: W
AnchorPoint: "Anchor-3" 350 0 basechar 0
AnchorPoint: "Anchor-2" 300 0 basechar 0
AnchorPoint: "Anchor-0" 300 550 basechar 0
LayerCount: 2
Fore
SplineSet
300 649 m 0
 256 649 229 673 229 712 c 0
 229 752 256 777 300 777 c 0
 344 777 371 752 371 712 c 0
 371 673 344 649 300 649 c 0
300 -10 m 0
 170 -10 85 73 85 200 c 2
 85 350 l 2
 85 477 170 560 300 560 c 0
 430 560 515 477 515 350 c 2
 515 253 l 1
 173 253 l 1
 173 200 l 2
 173 113 218 66 300 66 c 0
 369 66 413 91 423 140 c 1
 513 140 l 1
 501 48 416 -10 300 -10 c 0
173 321 m 1
 427 321 l 1
 427 350 l 2
 427 437 382 485 300 485 c 0
 218 485 173 437 173 350 c 2
 173 321 l 1
EndSplineSet
Validated: 1
EndChar

StartChar: uni1EB9
Encoding: 7865 7865 228
Width: 600
GlyphClass: 2
Flags: W
AnchorPoint: "Anchor-3" 350 0 basechar 0
AnchorPoint: "Anchor-2" 300 0 basechar 0
AnchorPoint: "Anchor-0" 300 550 basechar 0
LayerCount: 2
Fore
SplineSet
300 -10 m 0
 170 -10 85 73 85 200 c 2
 85 350 l 2
 85 477 170 560 300 560 c 0
 430 560 515 477 515 350 c 2
 515 253 l 1
 173 253 l 1
 173 200 l 2
 173 113 218 66 300 66 c 0
 369 66 413 91 423 140 c 1
 513 140 l 1
 501 48 416 -10 300 -10 c 0
173 321 m 1
 427 321 l 1
 427 350 l 2
 427 437 382 485 300 485 c 0
 218 485 173 437 173 350 c 2
 173 321 l 1
300 -213 m 0
 256 -213 229 -189 229 -150 c 0
 229 -110 256 -85 300 -85 c 0
 344 -85 371 -110 371 -150 c 0
 371 -189 344 -213 300 -213 c 0
EndSplineSet
Validated: 1
EndChar

StartChar: egrave
Encoding: 232 232 229
Width: 600
GlyphClass: 2
Flags: W
AnchorPoint: "Anchor-3" 350 0 basechar 0
AnchorPoint: "Anchor-2" 300 0 basechar 0
AnchorPoint: "Anchor-0" 300 550 basechar 0
LayerCount: 2
Fore
SplineSet
267 645 m 1
 152 785 l 1
 252 785 l 1
 362 645 l 1
 267 645 l 1
300 -10 m 0
 170 -10 85 73 85 200 c 2
 85 350 l 2
 85 477 170 560 300 560 c 0
 430 560 515 477 515 350 c 2
 515 253 l 1
 173 253 l 1
 173 200 l 2
 173 113 218 66 300 66 c 0
 369 66 413 91 423 140 c 1
 513 140 l 1
 501 48 416 -10 300 -10 c 0
173 321 m 1
 427 321 l 1
 427 350 l 2
 427 437 382 485 300 485 c 0
 218 485 173 437 173 350 c 2
 173 321 l 1
EndSplineSet
Validated: 1
EndChar

StartChar: uni1EBB
Encoding: 7867 7867 230
Width: 600
GlyphClass: 2
Flags: W
AnchorPoint: "Anchor-3" 350 0 basechar 0
AnchorPoint: "Anchor-2" 300 0 basechar 0
AnchorPoint: "Anchor-0" 300 550 basechar 0
LayerCount: 2
Fore
SplineSet
258 645 m 1
 308 708 l 2
 317 720 322 730 322 740 c 0
 322 754 312 760 290 760 c 2
 210 760 l 1
 210 825 l 1
 315 825 l 2
 366 825 400 797 400 751 c 0
 400 731 394 711 383 697 c 2
 343 645 l 1
 258 645 l 1
300 -10 m 0
 170 -10 85 73 85 200 c 2
 85 350 l 2
 85 477 170 560 300 560 c 0
 430 560 515 477 515 350 c 2
 515 253 l 1
 173 253 l 1
 173 200 l 2
 173 113 218 66 300 66 c 0
 369 66 413 91 423 140 c 1
 513 140 l 1
 501 48 416 -10 300 -10 c 0
173 321 m 1
 427 321 l 1
 427 350 l 2
 427 437 382 485 300 485 c 0
 218 485 173 437 173 350 c 2
 173 321 l 1
EndSplineSet
Validated: 1
EndChar

StartChar: emacron
Encoding: 275 275 231
Width: 600
GlyphClass: 2
Flags: W
AnchorPoint: "Anchor-3" 350 0 basechar 0
AnchorPoint: "Anchor-2" 300 0 basechar 0
AnchorPoint: "Anchor-0" 300 550 basechar 0
LayerCount: 2
Fore
SplineSet
140 670 m 1
 140 745 l 1
 460 745 l 1
 460 670 l 1
 140 670 l 1
300 -10 m 0
 170 -10 85 73 85 200 c 2
 85 350 l 2
 85 477 170 560 300 560 c 0
 430 560 515 477 515 350 c 2
 515 253 l 1
 173 253 l 1
 173 200 l 2
 173 113 218 66 300 66 c 0
 369 66 413 91 423 140 c 1
 513 140 l 1
 501 48 416 -10 300 -10 c 0
173 321 m 1
 427 321 l 1
 427 350 l 2
 427 437 382 485 300 485 c 0
 218 485 173 437 173 350 c 2
 173 321 l 1
EndSplineSet
Validated: 1
EndChar

StartChar: eogonek
Encoding: 281 281 232
Width: 600
GlyphClass: 2
Flags: W
AnchorPoint: "Anchor-0" 300 550 basechar 0
LayerCount: 2
Fore
SplineSet
373 -203 m 2
 299 -203 251 -164 251 -110 c 0
 251 -80 271 -45 310 -10 c 1
 300 -10 l 2
 170 -10 88 73 88 200 c 2
 88 350 l 2
 88 477 170 560 300 560 c 0
 430 560 512 477 512 350 c 2
 512 253 l 1
 176 253 l 1
 176 200 l 2
 176 113 218 66 300 66 c 0
 369 66 410 91 420 140 c 1
 510 140 l 1
 503 83 468 39 416 14 c 1
 400 1 l 2
 355 -36 336 -65 336 -93 c 0
 336 -122 357 -143 391 -143 c 2
 451 -143 l 1
 451 -203 l 1
 373 -203 l 2
176 321 m 1
 424 321 l 1
 424 350 l 2
 424 437 382 485 300 485 c 0
 218 485 176 437 176 350 c 2
 176 321 l 1
EndSplineSet
Validated: 1
EndChar

StartChar: uni1EBD
Encoding: 7869 7869 233
Width: 600
GlyphClass: 2
Flags: W
AnchorPoint: "Anchor-3" 350 0 basechar 0
AnchorPoint: "Anchor-2" 300 0 basechar 0
AnchorPoint: "Anchor-0" 300 550 basechar 0
LayerCount: 2
Fore
SplineSet
370 650 m 0
 290 650 280 720 235 720 c 0
 217 720 205 709 205 685 c 2
 205 655 l 1
 140 655 l 1
 140 685 l 2
 140 745 176 780 230 780 c 0
 310 780 320 710 365 710 c 0
 383 710 395 721 395 745 c 2
 395 775 l 1
 460 775 l 1
 460 745 l 2
 460 685 424 650 370 650 c 0
300 -10 m 0
 170 -10 85 73 85 200 c 2
 85 350 l 2
 85 477 170 560 300 560 c 0
 430 560 515 477 515 350 c 2
 515 253 l 1
 173 253 l 1
 173 200 l 2
 173 113 218 66 300 66 c 0
 369 66 413 91 423 140 c 1
 513 140 l 1
 501 48 416 -10 300 -10 c 0
173 321 m 1
 427 321 l 1
 427 350 l 2
 427 437 382 485 300 485 c 0
 218 485 173 437 173 350 c 2
 173 321 l 1
EndSplineSet
Validated: 1
EndChar

StartChar: uni0259
Encoding: 601 601 234
Width: 600
Flags: W
LayerCount: 2
Fore
SplineSet
300 -10 m 0
 170 -10 90 73 90 200 c 2
 90 297 l 1
 422 297 l 1
 422 350 l 2
 422 437 382 484 300 484 c 0
 231 484 192 459 182 410 c 1
 92 410 l 1
 104 502 184 560 300 560 c 0
 430 560 510 477 510 350 c 2
 510 200 l 2
 510 73 430 -10 300 -10 c 0
300 65 m 0
 382 65 422 113 422 200 c 2
 422 229 l 1
 178 229 l 1
 178 200 l 2
 178 113 218 65 300 65 c 0
EndSplineSet
Validated: 1
EndChar

StartChar: f
Encoding: 102 102 235
Width: 600
Flags: W
LayerCount: 2
Fore
SplineSet
220 0 m 1
 220 413 l 1
 60 413 l 1
 60 495 l 1
 220 495 l 1
 220 590 l 2
 220 677 278 730 374 730 c 2
 535 730 l 1
 535 648 l 1
 374 648 l 2
 333 648 310 628 310 590 c 2
 310 495 l 1
 535 495 l 1
 535 413 l 1
 310 413 l 1
 310 0 l 1
 220 0 l 1
EndSplineSet
Validated: 1
EndChar

StartChar: g
Encoding: 103 103 236
Width: 600
GlyphClass: 2
Flags: W
AnchorPoint: "Anchor-0" 297 550 basechar 0
LayerCount: 2
Fore
SplineSet
161 -180 m 1
 161 -98 l 1
 336 -98 l 2
 392 -98 417 -73 417 -20 c 2
 417 50 l 1
 419 150 l 1
 417 150 l 1
 410 79 354 35 271 35 c 0
 158 35 88 114 88 240 c 2
 88 356 l 2
 88 481 158 560 271 560 c 0
 354 560 410 516 417 445 c 1
 418 445 l 1
 418 550 l 1
 507 550 l 1
 507 -20 l 2
 507 -119 443 -180 335 -180 c 2
 161 -180 l 1
298 113 m 0
 372 113 418 162 418 245 c 2
 418 350 l 2
 418 433 372 482 298 482 c 0
 222 482 178 435 178 350 c 2
 178 245 l 2
 178 160 222 113 298 113 c 0
EndSplineSet
Validated: 1
EndChar

StartChar: uni01F5
Encoding: 501 501 237
Width: 600
GlyphClass: 2
Flags: W
AnchorPoint: "Anchor-0" 297 550 basechar 0
LayerCount: 2
Fore
SplineSet
239 645 m 1
 345 785 l 1
 442 785 l 1
 331 645 l 1
 239 645 l 1
161 -180 m 1
 161 -98 l 1
 336 -98 l 2
 392 -98 417 -73 417 -20 c 2
 417 50 l 1
 419 150 l 1
 417 150 l 1
 410 79 354 35 271 35 c 0
 158 35 88 114 88 240 c 2
 88 356 l 2
 88 481 158 560 271 560 c 0
 354 560 410 516 417 445 c 1
 418 445 l 1
 418 550 l 1
 507 550 l 1
 507 -20 l 2
 507 -119 443 -180 335 -180 c 2
 161 -180 l 1
298 113 m 0
 372 113 418 162 418 245 c 2
 418 350 l 2
 418 433 372 482 298 482 c 0
 222 482 178 435 178 350 c 2
 178 245 l 2
 178 160 222 113 298 113 c 0
EndSplineSet
Validated: 1
EndChar

StartChar: gbreve
Encoding: 287 287 238
Width: 600
GlyphClass: 2
Flags: W
AnchorPoint: "Anchor-0" 297 550 basechar 0
LayerCount: 2
Fore
SplineSet
297 640 m 0
 201 640 137 698 137 785 c 1
 208 785 l 1
 208 733 243 698 296 698 c 0
 350 698 386 733 386 785 c 1
 457 785 l 1
 457 698 393 640 297 640 c 0
161 -180 m 1
 161 -98 l 1
 336 -98 l 2
 392 -98 417 -73 417 -20 c 2
 417 50 l 1
 419 150 l 1
 417 150 l 1
 410 79 354 35 271 35 c 0
 158 35 88 114 88 240 c 2
 88 356 l 2
 88 481 158 560 271 560 c 0
 354 560 410 516 417 445 c 1
 418 445 l 1
 418 550 l 1
 507 550 l 1
 507 -20 l 2
 507 -119 443 -180 335 -180 c 2
 161 -180 l 1
298 113 m 0
 372 113 418 162 418 245 c 2
 418 350 l 2
 418 433 372 482 298 482 c 0
 222 482 178 435 178 350 c 2
 178 245 l 2
 178 160 222 113 298 113 c 0
EndSplineSet
Validated: 1
EndChar

StartChar: gcaron
Encoding: 487 487 239
Width: 600
GlyphClass: 2
Flags: W
AnchorPoint: "Anchor-0" 297 550 basechar 0
LayerCount: 2
Fore
SplineSet
256 645 m 1
 116 785 l 1
 215 785 l 1
 297 707 l 1
 377 785 l 1
 478 785 l 1
 339 645 l 1
 256 645 l 1
161 -180 m 1
 161 -98 l 1
 336 -98 l 2
 392 -98 417 -73 417 -20 c 2
 417 50 l 1
 419 150 l 1
 417 150 l 1
 410 79 354 35 271 35 c 0
 158 35 88 114 88 240 c 2
 88 356 l 2
 88 481 158 560 271 560 c 0
 354 560 410 516 417 445 c 1
 418 445 l 1
 418 550 l 1
 507 550 l 1
 507 -20 l 2
 507 -119 443 -180 335 -180 c 2
 161 -180 l 1
298 113 m 0
 372 113 418 162 418 245 c 2
 418 350 l 2
 418 433 372 482 298 482 c 0
 222 482 178 435 178 350 c 2
 178 245 l 2
 178 160 222 113 298 113 c 0
EndSplineSet
Validated: 1
EndChar

StartChar: gcircumflex
Encoding: 285 285 240
Width: 600
GlyphClass: 2
Flags: W
AnchorPoint: "Anchor-0" 297 550 basechar 0
LayerCount: 2
Fore
SplineSet
116 645 m 1
 255 785 l 1
 338 785 l 1
 478 645 l 1
 379 645 l 1
 297 723 l 1
 217 645 l 1
 116 645 l 1
161 -180 m 1
 161 -98 l 1
 336 -98 l 2
 392 -98 417 -73 417 -20 c 2
 417 50 l 1
 419 150 l 1
 417 150 l 1
 410 79 354 35 271 35 c 0
 158 35 88 114 88 240 c 2
 88 356 l 2
 88 481 158 560 271 560 c 0
 354 560 410 516 417 445 c 1
 418 445 l 1
 418 550 l 1
 507 550 l 1
 507 -20 l 2
 507 -119 443 -180 335 -180 c 2
 161 -180 l 1
298 113 m 0
 372 113 418 162 418 245 c 2
 418 350 l 2
 418 433 372 482 298 482 c 0
 222 482 178 435 178 350 c 2
 178 245 l 2
 178 160 222 113 298 113 c 0
EndSplineSet
Validated: 1
EndChar

StartChar: uni0123
Encoding: 291 291 241
Width: 600
GlyphClass: 2
Flags: W
AnchorPoint: "Anchor-0" 297 550 basechar 0
LayerCount: 2
Fore
SplineSet
412 880 m 1
 332 645 l 1
 207 645 l 1
 337 880 l 1
 412 880 l 1
161 -180 m 1
 161 -98 l 1
 336 -98 l 2
 392 -98 417 -73 417 -20 c 2
 417 50 l 1
 419 150 l 1
 417 150 l 1
 410 79 354 35 271 35 c 0
 158 35 88 114 88 240 c 2
 88 356 l 2
 88 481 158 560 271 560 c 0
 354 560 410 516 417 445 c 1
 418 445 l 1
 418 550 l 1
 507 550 l 1
 507 -20 l 2
 507 -119 443 -180 335 -180 c 2
 161 -180 l 1
298 113 m 0
 372 113 418 162 418 245 c 2
 418 350 l 2
 418 433 372 482 298 482 c 0
 222 482 178 435 178 350 c 2
 178 245 l 2
 178 160 222 113 298 113 c 0
EndSplineSet
Validated: 1
EndChar

StartChar: gdotaccent
Encoding: 289 289 242
Width: 600
GlyphClass: 2
Flags: W
AnchorPoint: "Anchor-0" 297 550 basechar 0
LayerCount: 2
Fore
SplineSet
297 649 m 0
 253 649 226 673 226 712 c 0
 226 752 253 777 297 777 c 0
 341 777 368 752 368 712 c 0
 368 673 341 649 297 649 c 0
161 -180 m 1
 161 -98 l 1
 336 -98 l 2
 392 -98 417 -73 417 -20 c 2
 417 50 l 1
 419 150 l 1
 417 150 l 1
 410 79 354 35 271 35 c 0
 158 35 88 114 88 240 c 2
 88 356 l 2
 88 481 158 560 271 560 c 0
 354 560 410 516 417 445 c 1
 418 445 l 1
 418 550 l 1
 507 550 l 1
 507 -20 l 2
 507 -119 443 -180 335 -180 c 2
 161 -180 l 1
298 113 m 0
 372 113 418 162 418 245 c 2
 418 350 l 2
 418 433 372 482 298 482 c 0
 222 482 178 435 178 350 c 2
 178 245 l 2
 178 160 222 113 298 113 c 0
EndSplineSet
Validated: 1
EndChar

StartChar: h
Encoding: 104 104 243
Width: 600
Flags: W
LayerCount: 2
Fore
SplineSet
92 0 m 1
 92 730 l 1
 182 730 l 1
 182 445 l 1
 183 445 l 1
 192 518 245 560 329 560 c 0
 439 560 510 487 510 370 c 2
 510 0 l 1
 420 0 l 1
 420 360 l 2
 420 438 375 484 303 484 c 0
 228 484 182 435 182 350 c 2
 182 0 l 1
 92 0 l 1
EndSplineSet
Validated: 1
EndChar

StartChar: hbar
Encoding: 295 295 244
Width: 600
Flags: W
LayerCount: 2
Fore
SplineSet
0 570 m 1
 0 645 l 1
 92 645 l 1
 92 730 l 1
 182 730 l 1
 182 645 l 1
 350 645 l 1
 350 570 l 1
 182 570 l 1
 182 385 l 1
 183 385 l 1
 192 458 245 500 329 500 c 0
 439 500 510 427 510 310 c 2
 510 0 l 1
 420 0 l 1
 420 300 l 2
 420 378 375 424 303 424 c 0
 228 424 182 375 182 290 c 2
 182 0 l 1
 92 0 l 1
 92 570 l 1
 0 570 l 1
EndSplineSet
Validated: 1
EndChar

StartChar: hcircumflex
Encoding: 293 293 245
Width: 600
Flags: W
LayerCount: 2
Fore
SplineSet
-31 805 m 1
 108 945 l 1
 191 945 l 1
 331 805 l 1
 232 805 l 1
 150 883 l 1
 70 805 l 1
 -31 805 l 1
92 0 m 1
 92 730 l 1
 182 730 l 1
 182 445 l 1
 183 445 l 1
 192 518 245 560 329 560 c 0
 439 560 510 487 510 370 c 2
 510 0 l 1
 420 0 l 1
 420 360 l 2
 420 438 375 484 303 484 c 0
 228 484 182 435 182 350 c 2
 182 0 l 1
 92 0 l 1
EndSplineSet
Validated: 1
EndChar

StartChar: i
Encoding: 105 105 246
Width: 600
GlyphClass: 2
Flags: W
AnchorPoint: "Anchor-3" 330 0 basechar 0
AnchorPoint: "Anchor-2" 315 0 basechar 0
AnchorPoint: "Anchor-0" 315 550 basechar 0
LayerCount: 2
Fore
SplineSet
315 649 m 0
 271 649 244 673 244 712 c 0
 244 752 271 777 315 777 c 0
 359 777 386 752 386 712 c 0
 386 673 359 649 315 649 c 0
85 0 m 1
 85 82 l 1
 280 82 l 1
 280 468 l 1
 110 468 l 1
 110 550 l 1
 370 550 l 1
 370 82 l 1
 555 82 l 1
 555 0 l 1
 85 0 l 1
EndSplineSet
Validated: 1
Substitution2: "'locl' Localized Forms in Latin lookup 365 subtable" i.loclTRK
Substitution2: "Single Substitution lookup 360 subtable" dotlessi
Substitution2: "Single Substitution lookup 359 subtable" dotlessi
Substitution2: "'aalt' Access All Alternates in Latin lookup 0 subtable" i.loclTRK
EndChar

StartChar: dotlessi
Encoding: 305 305 247
Width: 600
GlyphClass: 2
Flags: W
AnchorPoint: "Anchor-3" 330 0 basechar 0
AnchorPoint: "Anchor-2" 315 0 basechar 0
AnchorPoint: "Anchor-0" 315 550 basechar 0
LayerCount: 2
Fore
SplineSet
85 0 m 1
 85 82 l 1
 280 82 l 1
 280 468 l 1
 110 468 l 1
 110 550 l 1
 370 550 l 1
 370 82 l 1
 555 82 l 1
 555 0 l 1
 85 0 l 1
EndSplineSet
Validated: 1
EndChar

StartChar: iacute
Encoding: 237 237 248
Width: 600
GlyphClass: 2
Flags: W
AnchorPoint: "Anchor-3" 330 0 basechar 0
AnchorPoint: "Anchor-2" 315 0 basechar 0
AnchorPoint: "Anchor-0" 315 550 basechar 0
LayerCount: 2
Fore
SplineSet
257 645 m 1
 363 785 l 1
 460 785 l 1
 349 645 l 1
 257 645 l 1
85 0 m 1
 85 82 l 1
 280 82 l 1
 280 468 l 1
 110 468 l 1
 110 550 l 1
 370 550 l 1
 370 82 l 1
 555 82 l 1
 555 0 l 1
 85 0 l 1
EndSplineSet
Validated: 1
EndChar

StartChar: ibreve
Encoding: 301 301 249
Width: 600
GlyphClass: 2
Flags: W
AnchorPoint: "Anchor-3" 330 0 basechar 0
AnchorPoint: "Anchor-2" 315 0 basechar 0
AnchorPoint: "Anchor-0" 315 550 basechar 0
LayerCount: 2
Fore
SplineSet
315 640 m 0
 219 640 155 698 155 785 c 1
 226 785 l 1
 226 733 261 698 314 698 c 0
 368 698 404 733 404 785 c 1
 475 785 l 1
 475 698 411 640 315 640 c 0
85 0 m 1
 85 82 l 1
 280 82 l 1
 280 468 l 1
 110 468 l 1
 110 550 l 1
 370 550 l 1
 370 82 l 1
 555 82 l 1
 555 0 l 1
 85 0 l 1
EndSplineSet
Validated: 1
EndChar

StartChar: icircumflex
Encoding: 238 238 250
Width: 600
GlyphClass: 2
Flags: W
AnchorPoint: "Anchor-3" 330 0 basechar 0
AnchorPoint: "Anchor-2" 315 0 basechar 0
AnchorPoint: "Anchor-0" 315 550 basechar 0
LayerCount: 2
Fore
SplineSet
134 645 m 1
 273 785 l 1
 356 785 l 1
 496 645 l 1
 397 645 l 1
 315 723 l 1
 235 645 l 1
 134 645 l 1
85 0 m 1
 85 82 l 1
 280 82 l 1
 280 468 l 1
 110 468 l 1
 110 550 l 1
 370 550 l 1
 370 82 l 1
 555 82 l 1
 555 0 l 1
 85 0 l 1
EndSplineSet
Validated: 1
EndChar

StartChar: idieresis
Encoding: 239 239 251
Width: 600
GlyphClass: 2
Flags: W
AnchorPoint: "Anchor-3" 330 0 basechar 0
AnchorPoint: "Anchor-2" 315 0 basechar 0
AnchorPoint: "Anchor-0" 315 550 basechar 0
LayerCount: 2
Fore
SplineSet
426 649 m 0
 387 649 362 673 362 712 c 0
 362 752 387 777 426 777 c 0
 465 777 490 752 490 712 c 0
 490 673 465 649 426 649 c 0
204 649 m 0
 165 649 140 673 140 712 c 0
 140 752 165 777 204 777 c 0
 243 777 268 752 268 712 c 0
 268 673 243 649 204 649 c 0
85 0 m 1
 85 82 l 1
 280 82 l 1
 280 468 l 1
 110 468 l 1
 110 550 l 1
 370 550 l 1
 370 82 l 1
 555 82 l 1
 555 0 l 1
 85 0 l 1
EndSplineSet
Validated: 1
EndChar

StartChar: i.loclTRK
Encoding: 65537 -1 252
Width: 600
GlyphClass: 2
Flags: W
AnchorPoint: "Anchor-3" 330 0 basechar 0
AnchorPoint: "Anchor-2" 315 0 basechar 0
AnchorPoint: "Anchor-0" 315 550 basechar 0
LayerCount: 2
Fore
SplineSet
315 649 m 0
 271 649 244 673 244 712 c 0
 244 752 271 777 315 777 c 0
 359 777 386 752 386 712 c 0
 386 673 359 649 315 649 c 0
85 0 m 1
 85 82 l 1
 280 82 l 1
 280 468 l 1
 110 468 l 1
 110 550 l 1
 370 550 l 1
 370 82 l 1
 555 82 l 1
 555 0 l 1
 85 0 l 1
EndSplineSet
Validated: 1
EndChar

StartChar: uni1ECB
Encoding: 7883 7883 253
Width: 600
GlyphClass: 2
Flags: W
AnchorPoint: "Anchor-3" 330 0 basechar 0
AnchorPoint: "Anchor-2" 315 0 basechar 0
AnchorPoint: "Anchor-0" 315 550 basechar 0
LayerCount: 2
Fore
SplineSet
315 649 m 0
 271 649 244 673 244 712 c 0
 244 752 271 777 315 777 c 0
 359 777 386 752 386 712 c 0
 386 673 359 649 315 649 c 0
85 0 m 1
 85 82 l 1
 280 82 l 1
 280 468 l 1
 110 468 l 1
 110 550 l 1
 370 550 l 1
 370 82 l 1
 555 82 l 1
 555 0 l 1
 85 0 l 1
315 -213 m 0
 271 -213 244 -189 244 -150 c 0
 244 -110 271 -85 315 -85 c 0
 359 -85 386 -110 386 -150 c 0
 386 -189 359 -213 315 -213 c 0
EndSplineSet
Validated: 1
EndChar

StartChar: igrave
Encoding: 236 236 254
Width: 600
GlyphClass: 2
Flags: W
AnchorPoint: "Anchor-3" 330 0 basechar 0
AnchorPoint: "Anchor-2" 315 0 basechar 0
AnchorPoint: "Anchor-0" 315 550 basechar 0
LayerCount: 2
Fore
SplineSet
282 645 m 1
 167 785 l 1
 267 785 l 1
 377 645 l 1
 282 645 l 1
85 0 m 1
 85 82 l 1
 280 82 l 1
 280 468 l 1
 110 468 l 1
 110 550 l 1
 370 550 l 1
 370 82 l 1
 555 82 l 1
 555 0 l 1
 85 0 l 1
EndSplineSet
Validated: 1
EndChar

StartChar: uni1EC9
Encoding: 7881 7881 255
Width: 600
GlyphClass: 2
Flags: W
AnchorPoint: "Anchor-3" 330 0 basechar 0
AnchorPoint: "Anchor-2" 315 0 basechar 0
AnchorPoint: "Anchor-0" 315 550 basechar 0
LayerCount: 2
Fore
SplineSet
273 645 m 1
 323 708 l 2
 332 720 337 730 337 740 c 0
 337 754 327 760 305 760 c 2
 225 760 l 1
 225 825 l 1
 330 825 l 2
 381 825 415 797 415 751 c 0
 415 731 409 711 398 697 c 2
 358 645 l 1
 273 645 l 1
85 0 m 1
 85 82 l 1
 280 82 l 1
 280 468 l 1
 110 468 l 1
 110 550 l 1
 370 550 l 1
 370 82 l 1
 555 82 l 1
 555 0 l 1
 85 0 l 1
EndSplineSet
Validated: 1
EndChar

StartChar: imacron
Encoding: 299 299 256
Width: 600
GlyphClass: 2
Flags: W
AnchorPoint: "Anchor-3" 330 0 basechar 0
AnchorPoint: "Anchor-2" 315 0 basechar 0
AnchorPoint: "Anchor-0" 315 550 basechar 0
LayerCount: 2
Fore
SplineSet
155 670 m 1
 155 745 l 1
 475 745 l 1
 475 670 l 1
 155 670 l 1
85 0 m 1
 85 82 l 1
 280 82 l 1
 280 468 l 1
 110 468 l 1
 110 550 l 1
 370 550 l 1
 370 82 l 1
 555 82 l 1
 555 0 l 1
 85 0 l 1
EndSplineSet
Validated: 1
EndChar

StartChar: iogonek
Encoding: 303 303 257
Width: 600
GlyphClass: 2
Flags: W
AnchorPoint: "Anchor-3" 330 0 basechar 0
AnchorPoint: "Anchor-2" 315 0 basechar 0
AnchorPoint: "Anchor-0" 315 550 basechar 0
LayerCount: 2
Fore
SplineSet
315 649 m 0
 271 649 244 673 244 712 c 0
 244 752 271 777 315 777 c 0
 359 777 386 752 386 712 c 0
 386 673 359 649 315 649 c 0
85 0 m 1
 85 82 l 1
 280 82 l 1
 280 468 l 1
 110 468 l 1
 110 550 l 1
 370 550 l 1
 370 82 l 1
 555 82 l 1
 555 0 l 1
 348 0 l 1
 304 -37 285 -65 285 -93 c 0
 285 -122 306 -143 340 -143 c 2
 400 -143 l 1
 400 -203 l 1
 322 -203 l 2
 248 -203 200 -164 200 -110 c 0
 200 -75 219 -40 271 0 c 1
 85 0 l 1
EndSplineSet
Validated: 1
EndChar

StartChar: itilde
Encoding: 297 297 258
Width: 600
GlyphClass: 2
Flags: W
AnchorPoint: "Anchor-3" 330 0 basechar 0
AnchorPoint: "Anchor-2" 315 0 basechar 0
AnchorPoint: "Anchor-0" 315 550 basechar 0
LayerCount: 2
Fore
SplineSet
385 650 m 0
 305 650 295 720 250 720 c 0
 232 720 220 709 220 685 c 2
 220 655 l 1
 155 655 l 1
 155 685 l 2
 155 745 191 780 245 780 c 0
 325 780 335 710 380 710 c 0
 398 710 410 721 410 745 c 2
 410 775 l 1
 475 775 l 1
 475 745 l 2
 475 685 439 650 385 650 c 0
85 0 m 1
 85 82 l 1
 280 82 l 1
 280 468 l 1
 110 468 l 1
 110 550 l 1
 370 550 l 1
 370 82 l 1
 555 82 l 1
 555 0 l 1
 85 0 l 1
EndSplineSet
Validated: 1
EndChar

StartChar: j
Encoding: 106 106 259
Width: 600
GlyphClass: 2
Flags: W
AnchorPoint: "Anchor-0" 385 550 basechar 0
LayerCount: 2
Fore
SplineSet
385 649 m 0
 341 649 314 673 314 712 c 0
 314 752 341 777 385 777 c 0
 429 777 456 752 456 712 c 0
 456 673 429 649 385 649 c 0
70 -180 m 1
 70 -97 l 1
 214 -97 l 2
 297 -97 345 -51 345 31 c 2
 345 468 l 1
 90 468 l 1
 90 550 l 1
 435 550 l 1
 435 31 l 2
 435 -98 349 -180 214 -180 c 2
 70 -180 l 1
EndSplineSet
Validated: 1
Substitution2: "Single Substitution lookup 360 subtable" uni0237
Substitution2: "Single Substitution lookup 359 subtable" uni0237
EndChar

StartChar: uni0237
Encoding: 567 567 260
Width: 600
GlyphClass: 2
Flags: W
AnchorPoint: "Anchor-0" 385 550 basechar 0
LayerCount: 2
Fore
SplineSet
70 -180 m 1
 70 -97 l 1
 214 -97 l 2
 297 -97 345 -51 345 31 c 2
 345 468 l 1
 90 468 l 1
 90 550 l 1
 435 550 l 1
 435 31 l 2
 435 -98 349 -180 214 -180 c 2
 70 -180 l 1
EndSplineSet
Validated: 1
EndChar

StartChar: jcircumflex
Encoding: 309 309 261
Width: 600
GlyphClass: 2
Flags: W
AnchorPoint: "Anchor-0" 385 550 basechar 0
LayerCount: 2
Fore
SplineSet
204 645 m 1
 343 785 l 1
 426 785 l 1
 566 645 l 1
 467 645 l 1
 385 723 l 1
 305 645 l 1
 204 645 l 1
70 -180 m 1
 70 -97 l 1
 214 -97 l 2
 297 -97 345 -51 345 31 c 2
 345 468 l 1
 90 468 l 1
 90 550 l 1
 435 550 l 1
 435 31 l 2
 435 -98 349 -180 214 -180 c 2
 70 -180 l 1
EndSplineSet
Validated: 1
EndChar

StartChar: k
Encoding: 107 107 262
Width: 600
GlyphClass: 2
Flags: W
AnchorPoint: "Anchor-2" 300 0 basechar 0
AnchorPoint: "Anchor-0" 300 730 basechar 0
LayerCount: 2
Fore
SplineSet
95 0 m 1
 95 730 l 1
 185 730 l 1
 185 323 l 1
 291 323 l 1
 451 550 l 1
 554 550 l 1
 369 288 l 1
 557 0 l 1
 452 0 l 1
 292 245 l 1
 185 245 l 1
 185 0 l 1
 95 0 l 1
EndSplineSet
Validated: 1
EndChar

StartChar: uni0137
Encoding: 311 311 263
Width: 600
GlyphClass: 2
Flags: W
AnchorPoint: "Anchor-2" 300 0 basechar 0
AnchorPoint: "Anchor-0" 300 730 basechar 0
LayerCount: 2
Fore
SplineSet
95 0 m 1
 95 730 l 1
 185 730 l 1
 185 323 l 1
 291 323 l 1
 451 550 l 1
 554 550 l 1
 369 288 l 1
 557 0 l 1
 452 0 l 1
 292 245 l 1
 185 245 l 1
 185 0 l 1
 95 0 l 1
190 -240 m 1
 285 -95 l 1
 390 -95 l 1
 285 -240 l 1
 190 -240 l 1
EndSplineSet
Validated: 1
EndChar

StartChar: kgreenlandic
Encoding: 312 312 264
Width: 600
GlyphClass: 2
Flags: W
AnchorPoint: "Anchor-0" 300 550 basechar 0
LayerCount: 2
Fore
SplineSet
97 0 m 1
 97 550 l 1
 187 550 l 1
 187 323 l 1
 281 323 l 1
 441 550 l 1
 544 550 l 1
 359 288 l 1
 547 0 l 1
 442 0 l 1
 282 245 l 1
 187 245 l 1
 187 0 l 1
 97 0 l 1
EndSplineSet
Validated: 1
EndChar

StartChar: l
Encoding: 108 108 265
Width: 600
GlyphClass: 2
Flags: W
AnchorPoint: "Anchor-2" 320 0 basechar 0
AnchorPoint: "Anchor-0" 250 730 basechar 0
LayerCount: 2
Fore
SplineSet
380 0 m 2
 283 0 220 61 220 155 c 2
 220 648 l 1
 30 648 l 1
 30 730 l 1
 310 730 l 1
 310 155 l 2
 310 110 337 82 380 82 c 2
 550 82 l 1
 550 0 l 1
 380 0 l 2
EndSplineSet
Validated: 1
EndChar

StartChar: lacute
Encoding: 314 314 266
Width: 600
GlyphClass: 2
Flags: W
AnchorPoint: "Anchor-2" 320 0 basechar 0
AnchorPoint: "Anchor-0" 250 730 basechar 0
LayerCount: 2
Fore
SplineSet
192 810 m 1
 298 950 l 1
 395 950 l 1
 284 810 l 1
 192 810 l 1
380 0 m 2
 283 0 220 61 220 155 c 2
 220 648 l 1
 30 648 l 1
 30 730 l 1
 310 730 l 1
 310 155 l 2
 310 110 337 82 380 82 c 2
 550 82 l 1
 550 0 l 1
 380 0 l 2
EndSplineSet
Validated: 1
EndChar

StartChar: lcaron
Encoding: 318 318 267
Width: 600
GlyphClass: 2
Flags: W
AnchorPoint: "Anchor-2" 320 0 basechar 0
AnchorPoint: "Anchor-0" 250 730 basechar 0
LayerCount: 2
Fore
SplineSet
380 0 m 2
 283 0 220 61 220 155 c 2
 220 648 l 1
 30 648 l 1
 30 730 l 1
 310 730 l 1
 310 155 l 2
 310 110 337 82 380 82 c 2
 550 82 l 1
 550 0 l 1
 380 0 l 2
445 550 m 1
 455 730 l 1
 540 730 l 1
 520 550 l 1
 445 550 l 1
EndSplineSet
Validated: 1
EndChar

StartChar: uni013C
Encoding: 316 316 268
Width: 600
GlyphClass: 2
Flags: W
AnchorPoint: "Anchor-2" 320 0 basechar 0
AnchorPoint: "Anchor-0" 250 730 basechar 0
LayerCount: 2
Fore
SplineSet
380 0 m 2
 283 0 220 61 220 155 c 2
 220 648 l 1
 30 648 l 1
 30 730 l 1
 310 730 l 1
 310 155 l 2
 310 110 337 82 380 82 c 2
 550 82 l 1
 550 0 l 1
 380 0 l 2
210 -240 m 1
 305 -95 l 1
 410 -95 l 1
 305 -240 l 1
 210 -240 l 1
EndSplineSet
Validated: 1
EndChar

StartChar: ldot
Encoding: 320 320 269
Width: 600
GlyphClass: 2
Flags: W
AnchorPoint: "Anchor-2" 300 0 basechar 0
AnchorPoint: "Anchor-0" 230 730 basechar 0
LayerCount: 2
Fore
SplineSet
360 0 m 2
 263 0 200 61 200 155 c 2
 200 648 l 1
 10 648 l 1
 10 730 l 1
 290 730 l 1
 290 155 l 2
 290 110 317 82 360 82 c 2
 530 82 l 1
 530 0 l 1
 360 0 l 2
547 265 m 0
 496 265 464 296 464 346 c 0
 464 398 496 431 547 431 c 0
 598 431 630 398 630 346 c 0
 630 296 598 265 547 265 c 0
EndSplineSet
Validated: 1
EndChar

StartChar: lslash
Encoding: 322 322 270
Width: 600
GlyphClass: 2
Flags: W
AnchorPoint: "Anchor-2" 320 0 basechar 0
AnchorPoint: "Anchor-0" 250 730 basechar 0
LayerCount: 2
Fore
SplineSet
100 230 m 1
 100 310 l 1
 220 391 l 1
 220 648 l 1
 30 648 l 1
 30 730 l 1
 310 730 l 1
 310 452 l 1
 470 560 l 1
 470 480 l 1
 310 372 l 1
 310 155 l 2
 310 110 337 82 380 82 c 2
 550 82 l 1
 550 0 l 1
 380 0 l 2
 283 0 220 61 220 155 c 2
 220 311 l 1
 100 230 l 1
EndSplineSet
Validated: 1
EndChar

StartChar: m
Encoding: 109 109 271
Width: 600
Flags: W
LayerCount: 2
Fore
SplineSet
66 0 m 1
 66 550 l 1
 145 550 l 1
 145 484 l 1
 151 484 l 1
 159 531 192 560 240 560 c 0
 286 560 317 533 330 484 c 1
 334 484 l 1
 343 531 377 560 425 560 c 0
 494 560 534 503 534 418 c 2
 534 0 l 1
 451 0 l 1
 451 419 l 2
 451 464 431 491 394 491 c 0
 358 491 336 465 336 420 c 2
 336 0 l 1
 264 0 l 1
 264 419 l 2
 264 465 242 491 205 491 c 0
 168 491 149 465 149 420 c 2
 149 0 l 1
 66 0 l 1
EndSplineSet
Validated: 1
EndChar

StartChar: n
Encoding: 110 110 272
Width: 600
GlyphClass: 2
Flags: W
AnchorPoint: "Anchor-2" 300 0 basechar 0
AnchorPoint: "Anchor-0" 305 550 basechar 0
LayerCount: 2
Fore
SplineSet
92 0 m 1
 92 550 l 1
 182 550 l 1
 182 445 l 1
 183 445 l 1
 192 518 245 560 329 560 c 0
 439 560 510 487 510 370 c 2
 510 0 l 1
 420 0 l 1
 420 360 l 2
 420 438 375 482 303 482 c 0
 228 482 182 435 182 350 c 2
 182 0 l 1
 92 0 l 1
EndSplineSet
Validated: 1
EndChar

StartChar: nacute
Encoding: 324 324 273
Width: 600
GlyphClass: 2
Flags: W
AnchorPoint: "Anchor-2" 300 0 basechar 0
AnchorPoint: "Anchor-0" 305 550 basechar 0
LayerCount: 2
Fore
SplineSet
247 645 m 1
 353 785 l 1
 450 785 l 1
 339 645 l 1
 247 645 l 1
92 0 m 1
 92 550 l 1
 182 550 l 1
 182 445 l 1
 183 445 l 1
 192 518 245 560 329 560 c 0
 439 560 510 487 510 370 c 2
 510 0 l 1
 420 0 l 1
 420 360 l 2
 420 438 375 482 303 482 c 0
 228 482 182 435 182 350 c 2
 182 0 l 1
 92 0 l 1
EndSplineSet
Validated: 1
EndChar

StartChar: napostrophe
Encoding: 329 329 274
Width: 600
GlyphClass: 2
Flags: W
AnchorPoint: "Anchor-2" 300 0 basechar 0
AnchorPoint: "Anchor-0" 305 550 basechar 0
LayerCount: 2
Fore
SplineSet
-10 645 m 1
 85 790 l 1
 190 790 l 1
 85 645 l 1
 -10 645 l 1
92 0 m 1
 92 550 l 1
 182 550 l 1
 182 445 l 1
 183 445 l 1
 192 518 245 560 329 560 c 0
 439 560 510 487 510 370 c 2
 510 0 l 1
 420 0 l 1
 420 360 l 2
 420 438 375 482 303 482 c 0
 228 482 182 435 182 350 c 2
 182 0 l 1
 92 0 l 1
EndSplineSet
Validated: 1
EndChar

StartChar: ncaron
Encoding: 328 328 275
Width: 600
GlyphClass: 2
Flags: W
AnchorPoint: "Anchor-2" 300 0 basechar 0
AnchorPoint: "Anchor-0" 305 550 basechar 0
LayerCount: 2
Fore
SplineSet
264 645 m 1
 124 785 l 1
 223 785 l 1
 305 707 l 1
 385 785 l 1
 486 785 l 1
 347 645 l 1
 264 645 l 1
92 0 m 1
 92 550 l 1
 182 550 l 1
 182 445 l 1
 183 445 l 1
 192 518 245 560 329 560 c 0
 439 560 510 487 510 370 c 2
 510 0 l 1
 420 0 l 1
 420 360 l 2
 420 438 375 482 303 482 c 0
 228 482 182 435 182 350 c 2
 182 0 l 1
 92 0 l 1
EndSplineSet
Validated: 1
EndChar

StartChar: uni0146
Encoding: 326 326 276
Width: 600
GlyphClass: 2
Flags: W
AnchorPoint: "Anchor-2" 300 0 basechar 0
AnchorPoint: "Anchor-0" 305 550 basechar 0
LayerCount: 2
Fore
SplineSet
92 0 m 1
 92 550 l 1
 182 550 l 1
 182 445 l 1
 183 445 l 1
 192 518 245 560 329 560 c 0
 439 560 510 487 510 370 c 2
 510 0 l 1
 420 0 l 1
 420 360 l 2
 420 438 375 482 303 482 c 0
 228 482 182 435 182 350 c 2
 182 0 l 1
 92 0 l 1
190 -240 m 1
 285 -95 l 1
 390 -95 l 1
 285 -240 l 1
 190 -240 l 1
EndSplineSet
Validated: 1
EndChar

StartChar: eng
Encoding: 331 331 277
Width: 600
Flags: W
LayerCount: 2
Fore
SplineSet
240 -180 m 1
 240 -98 l 1
 303 -98 l 2
 374 -98 418 -55 418 15 c 2
 418 360 l 2
 418 438 375 484 303 484 c 0
 228 484 184 435 184 350 c 2
 184 0 l 1
 94 0 l 1
 94 550 l 1
 184 550 l 1
 184 445 l 1
 185 445 l 1
 193 518 245 560 329 560 c 0
 439 560 508 487 508 370 c 2
 508 15 l 2
 508 -103 427 -180 303 -180 c 2
 240 -180 l 1
EndSplineSet
Validated: 1
EndChar

StartChar: ntilde
Encoding: 241 241 278
Width: 600
GlyphClass: 2
Flags: W
AnchorPoint: "Anchor-2" 300 0 basechar 0
AnchorPoint: "Anchor-0" 305 550 basechar 0
LayerCount: 2
Fore
SplineSet
375 650 m 0
 295 650 285 720 240 720 c 0
 222 720 210 709 210 685 c 2
 210 655 l 1
 145 655 l 1
 145 685 l 2
 145 745 181 780 235 780 c 0
 315 780 325 710 370 710 c 0
 388 710 400 721 400 745 c 2
 400 775 l 1
 465 775 l 1
 465 745 l 2
 465 685 429 650 375 650 c 0
92 0 m 1
 92 550 l 1
 182 550 l 1
 182 445 l 1
 183 445 l 1
 192 518 245 560 329 560 c 0
 439 560 510 487 510 370 c 2
 510 0 l 1
 420 0 l 1
 420 360 l 2
 420 438 375 482 303 482 c 0
 228 482 182 435 182 350 c 2
 182 0 l 1
 92 0 l 1
EndSplineSet
Validated: 1
EndChar

StartChar: o
Encoding: 111 111 279
Width: 600
GlyphClass: 2
Flags: W
AnchorPoint: "Anchor-4" 300 275 basechar 0
AnchorPoint: "Anchor-3" 350 0 basechar 0
AnchorPoint: "Anchor-2" 300 0 basechar 0
AnchorPoint: "Anchor-1" 332 550 basechar 0
AnchorPoint: "Anchor-0" 300 550 basechar 0
LayerCount: 2
Fore
SplineSet
300 -8 m 0
 167 -8 85 72 85 202 c 2
 85 348 l 2
 85 478 167 558 300 558 c 0
 433 558 515 478 515 349 c 2
 515 202 l 2
 515 72 433 -8 300 -8 c 0
300 72 m 0
 378 72 425 117 425 202 c 2
 425 348 l 2
 425 433 378 478 300 478 c 0
 222 478 175 433 175 348 c 2
 175 202 l 2
 175 117 222 72 300 72 c 0
EndSplineSet
Validated: 1
Substitution2: "Single Substitution lookup 375 subtable" ordmasculine
Substitution2: "'aalt' Access All Alternates in Latin lookup 0 subtable" ordmasculine
EndChar

StartChar: oacute
Encoding: 243 243 280
Width: 600
GlyphClass: 2
Flags: W
AnchorPoint: "Anchor-4" 300 275 basechar 0
AnchorPoint: "Anchor-3" 350 0 basechar 0
AnchorPoint: "Anchor-2" 300 0 basechar 0
AnchorPoint: "Anchor-1" 332 550 basechar 0
AnchorPoint: "Anchor-0" 300 550 basechar 0
LayerCount: 2
Fore
SplineSet
242 645 m 1
 348 785 l 1
 445 785 l 1
 334 645 l 1
 242 645 l 1
300 -8 m 0
 167 -8 85 72 85 202 c 2
 85 348 l 2
 85 478 167 558 300 558 c 0
 433 558 515 478 515 349 c 2
 515 202 l 2
 515 72 433 -8 300 -8 c 0
300 72 m 0
 378 72 425 117 425 202 c 2
 425 348 l 2
 425 433 378 478 300 478 c 0
 222 478 175 433 175 348 c 2
 175 202 l 2
 175 117 222 72 300 72 c 0
EndSplineSet
Validated: 1
EndChar

StartChar: obreve
Encoding: 335 335 281
Width: 600
GlyphClass: 2
Flags: W
AnchorPoint: "Anchor-4" 300 275 basechar 0
AnchorPoint: "Anchor-3" 350 0 basechar 0
AnchorPoint: "Anchor-2" 300 0 basechar 0
AnchorPoint: "Anchor-1" 332 550 basechar 0
AnchorPoint: "Anchor-0" 300 550 basechar 0
LayerCount: 2
Fore
SplineSet
300 640 m 0
 204 640 140 698 140 785 c 1
 211 785 l 1
 211 733 246 698 299 698 c 0
 353 698 389 733 389 785 c 1
 460 785 l 1
 460 698 396 640 300 640 c 0
300 -8 m 0
 167 -8 85 72 85 202 c 2
 85 348 l 2
 85 478 167 558 300 558 c 0
 433 558 515 478 515 349 c 2
 515 202 l 2
 515 72 433 -8 300 -8 c 0
300 72 m 0
 378 72 425 117 425 202 c 2
 425 348 l 2
 425 433 378 478 300 478 c 0
 222 478 175 433 175 348 c 2
 175 202 l 2
 175 117 222 72 300 72 c 0
EndSplineSet
Validated: 1
EndChar

StartChar: ocircumflex
Encoding: 244 244 282
Width: 600
GlyphClass: 2
Flags: W
AnchorPoint: "Anchor-4" 300 275 basechar 0
AnchorPoint: "Anchor-3" 350 0 basechar 0
AnchorPoint: "Anchor-2" 300 0 basechar 0
AnchorPoint: "Anchor-1" 332 550 basechar 0
AnchorPoint: "Anchor-0" 300 550 basechar 0
LayerCount: 2
Fore
SplineSet
119 645 m 1
 258 785 l 1
 341 785 l 1
 481 645 l 1
 382 645 l 1
 300 723 l 1
 220 645 l 1
 119 645 l 1
300 -8 m 0
 167 -8 85 72 85 202 c 2
 85 348 l 2
 85 478 167 558 300 558 c 0
 433 558 515 478 515 349 c 2
 515 202 l 2
 515 72 433 -8 300 -8 c 0
300 72 m 0
 378 72 425 117 425 202 c 2
 425 348 l 2
 425 433 378 478 300 478 c 0
 222 478 175 433 175 348 c 2
 175 202 l 2
 175 117 222 72 300 72 c 0
EndSplineSet
Validated: 1
EndChar

StartChar: uni1ED1
Encoding: 7889 7889 283
Width: 600
GlyphClass: 2
Flags: W
AnchorPoint: "Anchor-4" 300 275 basechar 0
AnchorPoint: "Anchor-3" 350 0 basechar 0
AnchorPoint: "Anchor-2" 300 0 basechar 0
AnchorPoint: "Anchor-1" 332 550 basechar 0
AnchorPoint: "Anchor-0" 300 550 basechar 0
LayerCount: 2
Fore
SplineSet
410 760 m 1
 525 900 l 1
 625 900 l 1
 505 760 l 1
 410 760 l 1
120 645 m 1
 258 785 l 1
 342 785 l 1
 481 645 l 1
 380 645 l 1
 300 723 l 1
 219 645 l 1
 120 645 l 1
300 -8 m 0
 167 -8 85 72 85 202 c 2
 85 348 l 2
 85 478 167 558 300 558 c 0
 433 558 515 478 515 349 c 2
 515 202 l 2
 515 72 433 -8 300 -8 c 0
300 72 m 0
 378 72 425 117 425 202 c 2
 425 348 l 2
 425 433 378 478 300 478 c 0
 222 478 175 433 175 348 c 2
 175 202 l 2
 175 117 222 72 300 72 c 0
EndSplineSet
Validated: 1
EndChar

StartChar: uni1ED9
Encoding: 7897 7897 284
Width: 600
GlyphClass: 2
Flags: W
AnchorPoint: "Anchor-4" 300 275 basechar 0
AnchorPoint: "Anchor-3" 350 0 basechar 0
AnchorPoint: "Anchor-2" 300 0 basechar 0
AnchorPoint: "Anchor-1" 332 550 basechar 0
AnchorPoint: "Anchor-0" 300 550 basechar 0
LayerCount: 2
Fore
SplineSet
119 645 m 1
 258 785 l 1
 341 785 l 1
 481 645 l 1
 382 645 l 1
 300 723 l 1
 220 645 l 1
 119 645 l 1
300 -8 m 0
 167 -8 85 72 85 202 c 2
 85 348 l 2
 85 478 167 558 300 558 c 0
 433 558 515 478 515 349 c 2
 515 202 l 2
 515 72 433 -8 300 -8 c 0
300 72 m 0
 378 72 425 117 425 202 c 2
 425 348 l 2
 425 433 378 478 300 478 c 0
 222 478 175 433 175 348 c 2
 175 202 l 2
 175 117 222 72 300 72 c 0
300 -213 m 0
 256 -213 229 -189 229 -150 c 0
 229 -110 256 -85 300 -85 c 0
 344 -85 371 -110 371 -150 c 0
 371 -189 344 -213 300 -213 c 0
EndSplineSet
Validated: 1
EndChar

StartChar: uni1ED3
Encoding: 7891 7891 285
Width: 600
GlyphClass: 2
Flags: W
AnchorPoint: "Anchor-4" 300 275 basechar 0
AnchorPoint: "Anchor-3" 350 0 basechar 0
AnchorPoint: "Anchor-2" 300 0 basechar 0
AnchorPoint: "Anchor-1" 332 550 basechar 0
AnchorPoint: "Anchor-0" 300 550 basechar 0
LayerCount: 2
Fore
SplineSet
450 760 m 1
 320 900 l 1
 420 900 l 1
 545 760 l 1
 450 760 l 1
120 645 m 1
 258 785 l 1
 342 785 l 1
 481 645 l 1
 380 645 l 1
 300 723 l 1
 219 645 l 1
 120 645 l 1
300 -8 m 0
 167 -8 85 72 85 202 c 2
 85 348 l 2
 85 478 167 558 300 558 c 0
 433 558 515 478 515 349 c 2
 515 202 l 2
 515 72 433 -8 300 -8 c 0
300 72 m 0
 378 72 425 117 425 202 c 2
 425 348 l 2
 425 433 378 478 300 478 c 0
 222 478 175 433 175 348 c 2
 175 202 l 2
 175 117 222 72 300 72 c 0
EndSplineSet
Validated: 1
EndChar

StartChar: uni1ED5
Encoding: 7893 7893 286
Width: 600
GlyphClass: 2
Flags: W
AnchorPoint: "Anchor-4" 300 275 basechar 0
AnchorPoint: "Anchor-3" 350 0 basechar 0
AnchorPoint: "Anchor-2" 300 0 basechar 0
AnchorPoint: "Anchor-1" 332 550 basechar 0
AnchorPoint: "Anchor-0" 300 550 basechar 0
LayerCount: 2
Fore
SplineSet
423 760 m 1
 468 821 l 2
 474 830 477 837 477 845 c 0
 477 861 465 870 445 870 c 2
 395 870 l 1
 395 930 l 1
 450 930 l 2
 511 930 550 901 550 855 c 0
 550 840 545 827 533 810 c 2
 498 760 l 1
 423 760 l 1
120 645 m 1
 258 785 l 1
 342 785 l 1
 481 645 l 1
 380 645 l 1
 300 723 l 1
 219 645 l 1
 120 645 l 1
300 -8 m 0
 167 -8 85 72 85 202 c 2
 85 348 l 2
 85 478 167 558 300 558 c 0
 433 558 515 478 515 349 c 2
 515 202 l 2
 515 72 433 -8 300 -8 c 0
300 72 m 0
 378 72 425 117 425 202 c 2
 425 348 l 2
 425 433 378 478 300 478 c 0
 222 478 175 433 175 348 c 2
 175 202 l 2
 175 117 222 72 300 72 c 0
EndSplineSet
Validated: 1
EndChar

StartChar: uni1ED7
Encoding: 7895 7895 287
Width: 600
GlyphClass: 2
Flags: W
AnchorPoint: "Anchor-4" 300 275 basechar 0
AnchorPoint: "Anchor-3" 350 0 basechar 0
AnchorPoint: "Anchor-2" 300 0 basechar 0
AnchorPoint: "Anchor-1" 332 550 basechar 0
AnchorPoint: "Anchor-0" 300 550 basechar 0
LayerCount: 2
Fore
SplineSet
366 812 m 0
 282 812 280 875 235 875 c 0
 216 875 205 865 205 845 c 2
 205 820 l 1
 140 820 l 1
 140 840 l 2
 140 893 178 928 234 928 c 0
 319 928 320 865 365 865 c 0
 385 865 395 876 395 895 c 2
 395 920 l 1
 460 920 l 1
 460 900 l 2
 460 847 422 812 366 812 c 0
120 645 m 1
 258 785 l 1
 342 785 l 1
 481 645 l 1
 380 645 l 1
 300 723 l 1
 219 645 l 1
 120 645 l 1
300 -8 m 0
 167 -8 85 72 85 202 c 2
 85 348 l 2
 85 478 167 558 300 558 c 0
 433 558 515 478 515 349 c 2
 515 202 l 2
 515 72 433 -8 300 -8 c 0
300 72 m 0
 378 72 425 117 425 202 c 2
 425 348 l 2
 425 433 378 478 300 478 c 0
 222 478 175 433 175 348 c 2
 175 202 l 2
 175 117 222 72 300 72 c 0
EndSplineSet
Validated: 1
EndChar

StartChar: odieresis
Encoding: 246 246 288
Width: 600
GlyphClass: 2
Flags: W
AnchorPoint: "Anchor-4" 300 275 basechar 0
AnchorPoint: "Anchor-3" 350 0 basechar 0
AnchorPoint: "Anchor-2" 300 0 basechar 0
AnchorPoint: "Anchor-1" 332 550 basechar 0
AnchorPoint: "Anchor-0" 300 550 basechar 0
LayerCount: 2
Fore
SplineSet
411 649 m 0
 372 649 347 673 347 712 c 0
 347 752 372 777 411 777 c 0
 450 777 475 752 475 712 c 0
 475 673 450 649 411 649 c 0
189 649 m 0
 150 649 125 673 125 712 c 0
 125 752 150 777 189 777 c 0
 228 777 253 752 253 712 c 0
 253 673 228 649 189 649 c 0
300 -8 m 0
 167 -8 85 72 85 202 c 2
 85 348 l 2
 85 478 167 558 300 558 c 0
 433 558 515 478 515 349 c 2
 515 202 l 2
 515 72 433 -8 300 -8 c 0
300 72 m 0
 378 72 425 117 425 202 c 2
 425 348 l 2
 425 433 378 478 300 478 c 0
 222 478 175 433 175 348 c 2
 175 202 l 2
 175 117 222 72 300 72 c 0
EndSplineSet
Validated: 1
EndChar

StartChar: uni1ECD
Encoding: 7885 7885 289
Width: 600
GlyphClass: 2
Flags: W
AnchorPoint: "Anchor-4" 300 275 basechar 0
AnchorPoint: "Anchor-3" 350 0 basechar 0
AnchorPoint: "Anchor-2" 300 0 basechar 0
AnchorPoint: "Anchor-1" 332 550 basechar 0
AnchorPoint: "Anchor-0" 300 550 basechar 0
LayerCount: 2
Fore
SplineSet
300 -8 m 0
 167 -8 85 72 85 202 c 2
 85 348 l 2
 85 478 167 558 300 558 c 0
 433 558 515 478 515 349 c 2
 515 202 l 2
 515 72 433 -8 300 -8 c 0
300 72 m 0
 378 72 425 117 425 202 c 2
 425 348 l 2
 425 433 378 478 300 478 c 0
 222 478 175 433 175 348 c 2
 175 202 l 2
 175 117 222 72 300 72 c 0
300 -213 m 0
 256 -213 229 -189 229 -150 c 0
 229 -110 256 -85 300 -85 c 0
 344 -85 371 -110 371 -150 c 0
 371 -189 344 -213 300 -213 c 0
EndSplineSet
Validated: 1
EndChar

StartChar: ograve
Encoding: 242 242 290
Width: 600
GlyphClass: 2
Flags: W
AnchorPoint: "Anchor-4" 300 275 basechar 0
AnchorPoint: "Anchor-3" 350 0 basechar 0
AnchorPoint: "Anchor-2" 300 0 basechar 0
AnchorPoint: "Anchor-1" 332 550 basechar 0
AnchorPoint: "Anchor-0" 300 550 basechar 0
LayerCount: 2
Fore
SplineSet
267 645 m 1
 152 785 l 1
 252 785 l 1
 362 645 l 1
 267 645 l 1
300 -8 m 0
 167 -8 85 72 85 202 c 2
 85 348 l 2
 85 478 167 558 300 558 c 0
 433 558 515 478 515 349 c 2
 515 202 l 2
 515 72 433 -8 300 -8 c 0
300 72 m 0
 378 72 425 117 425 202 c 2
 425 348 l 2
 425 433 378 478 300 478 c 0
 222 478 175 433 175 348 c 2
 175 202 l 2
 175 117 222 72 300 72 c 0
EndSplineSet
Validated: 1
EndChar

StartChar: uni1ECF
Encoding: 7887 7887 291
Width: 600
GlyphClass: 2
Flags: W
AnchorPoint: "Anchor-4" 300 275 basechar 0
AnchorPoint: "Anchor-3" 350 0 basechar 0
AnchorPoint: "Anchor-2" 300 0 basechar 0
AnchorPoint: "Anchor-1" 332 550 basechar 0
AnchorPoint: "Anchor-0" 300 550 basechar 0
LayerCount: 2
Fore
SplineSet
258 645 m 1
 308 708 l 2
 317 720 322 730 322 740 c 0
 322 754 312 760 290 760 c 2
 210 760 l 1
 210 825 l 1
 315 825 l 2
 366 825 400 797 400 751 c 0
 400 731 394 711 383 697 c 2
 343 645 l 1
 258 645 l 1
300 -8 m 0
 167 -8 85 72 85 202 c 2
 85 348 l 2
 85 478 167 558 300 558 c 0
 433 558 515 478 515 349 c 2
 515 202 l 2
 515 72 433 -8 300 -8 c 0
300 72 m 0
 378 72 425 117 425 202 c 2
 425 348 l 2
 425 433 378 478 300 478 c 0
 222 478 175 433 175 348 c 2
 175 202 l 2
 175 117 222 72 300 72 c 0
EndSplineSet
Validated: 1
EndChar

StartChar: ohorn
Encoding: 417 417 292
Width: 600
GlyphClass: 2
Flags: W
AnchorPoint: "Anchor-4" 300 275 basechar 0
AnchorPoint: "Anchor-3" 350 0 basechar 0
AnchorPoint: "Anchor-2" 300 0 basechar 0
AnchorPoint: "Anchor-1" 332 550 basechar 0
AnchorPoint: "Anchor-0" 290 550 basechar 0
LayerCount: 2
Fore
SplineSet
300 -8 m 0
 167 -8 85 72 85 202 c 2
 85 348 l 2
 85 478 167 558 300 558 c 0
 346 558 387 548 419 530 c 1
 430 530 l 2
 453 530 465 542 465 565 c 2
 465 640 l 1
 540 640 l 1
 540 560 l 2
 540 518 518 487 481 473 c 1
 503 440 515 398 515 349 c 2
 515 202 l 2
 515 72 433 -8 300 -8 c 0
300 72 m 0
 378 72 425 117 425 202 c 2
 425 348 l 2
 425 433 378 478 300 478 c 0
 222 478 175 433 175 348 c 2
 175 202 l 2
 175 117 222 72 300 72 c 0
EndSplineSet
Validated: 1
EndChar

StartChar: uni1EDB
Encoding: 7899 7899 293
Width: 600
GlyphClass: 2
Flags: W
AnchorPoint: "Anchor-4" 300 275 basechar 0
AnchorPoint: "Anchor-3" 350 0 basechar 0
AnchorPoint: "Anchor-2" 300 0 basechar 0
AnchorPoint: "Anchor-1" 332 550 basechar 0
AnchorPoint: "Anchor-0" 290 550 basechar 0
LayerCount: 2
Fore
SplineSet
232 645 m 1
 338 785 l 1
 435 785 l 1
 324 645 l 1
 232 645 l 1
300 -8 m 0
 167 -8 85 72 85 202 c 2
 85 348 l 2
 85 478 167 558 300 558 c 0
 346 558 387 548 419 530 c 1
 430 530 l 2
 453 530 465 542 465 565 c 2
 465 640 l 1
 540 640 l 1
 540 560 l 2
 540 518 518 487 481 473 c 1
 503 440 515 398 515 349 c 2
 515 202 l 2
 515 72 433 -8 300 -8 c 0
300 72 m 0
 378 72 425 117 425 202 c 2
 425 348 l 2
 425 433 378 478 300 478 c 0
 222 478 175 433 175 348 c 2
 175 202 l 2
 175 117 222 72 300 72 c 0
EndSplineSet
Validated: 1
EndChar

StartChar: uni1EE3
Encoding: 7907 7907 294
Width: 600
GlyphClass: 2
Flags: W
AnchorPoint: "Anchor-4" 300 275 basechar 0
AnchorPoint: "Anchor-3" 350 0 basechar 0
AnchorPoint: "Anchor-2" 300 0 basechar 0
AnchorPoint: "Anchor-1" 332 550 basechar 0
AnchorPoint: "Anchor-0" 290 550 basechar 0
LayerCount: 2
Fore
SplineSet
300 -8 m 0
 167 -8 85 72 85 202 c 2
 85 348 l 2
 85 478 167 558 300 558 c 0
 346 558 387 548 419 530 c 1
 430 530 l 2
 453 530 465 542 465 565 c 2
 465 640 l 1
 540 640 l 1
 540 560 l 2
 540 518 518 487 481 473 c 1
 503 440 515 398 515 349 c 2
 515 202 l 2
 515 72 433 -8 300 -8 c 0
300 72 m 0
 378 72 425 117 425 202 c 2
 425 348 l 2
 425 433 378 478 300 478 c 0
 222 478 175 433 175 348 c 2
 175 202 l 2
 175 117 222 72 300 72 c 0
300 -213 m 0
 256 -213 229 -189 229 -150 c 0
 229 -110 256 -85 300 -85 c 0
 344 -85 371 -110 371 -150 c 0
 371 -189 344 -213 300 -213 c 0
EndSplineSet
Validated: 1
EndChar

StartChar: uni1EDD
Encoding: 7901 7901 295
Width: 600
GlyphClass: 2
Flags: W
AnchorPoint: "Anchor-4" 300 275 basechar 0
AnchorPoint: "Anchor-3" 350 0 basechar 0
AnchorPoint: "Anchor-2" 300 0 basechar 0
AnchorPoint: "Anchor-1" 332 550 basechar 0
AnchorPoint: "Anchor-0" 290 550 basechar 0
LayerCount: 2
Fore
SplineSet
257 645 m 1
 142 785 l 1
 242 785 l 1
 352 645 l 1
 257 645 l 1
300 -8 m 0
 167 -8 85 72 85 202 c 2
 85 348 l 2
 85 478 167 558 300 558 c 0
 346 558 387 548 419 530 c 1
 430 530 l 2
 453 530 465 542 465 565 c 2
 465 640 l 1
 540 640 l 1
 540 560 l 2
 540 518 518 487 481 473 c 1
 503 440 515 398 515 349 c 2
 515 202 l 2
 515 72 433 -8 300 -8 c 0
300 72 m 0
 378 72 425 117 425 202 c 2
 425 348 l 2
 425 433 378 478 300 478 c 0
 222 478 175 433 175 348 c 2
 175 202 l 2
 175 117 222 72 300 72 c 0
EndSplineSet
Validated: 1
EndChar

StartChar: uni1EDF
Encoding: 7903 7903 296
Width: 600
GlyphClass: 2
Flags: W
AnchorPoint: "Anchor-4" 300 275 basechar 0
AnchorPoint: "Anchor-3" 350 0 basechar 0
AnchorPoint: "Anchor-2" 300 0 basechar 0
AnchorPoint: "Anchor-1" 332 550 basechar 0
AnchorPoint: "Anchor-0" 290 550 basechar 0
LayerCount: 2
Fore
SplineSet
248 645 m 1
 298 708 l 2
 307 720 312 730 312 740 c 0
 312 754 302 760 280 760 c 2
 200 760 l 1
 200 825 l 1
 305 825 l 2
 356 825 390 797 390 751 c 0
 390 731 384 711 373 697 c 2
 333 645 l 1
 248 645 l 1
300 -8 m 0
 167 -8 85 72 85 202 c 2
 85 348 l 2
 85 478 167 558 300 558 c 0
 346 558 387 548 419 530 c 1
 430 530 l 2
 453 530 465 542 465 565 c 2
 465 640 l 1
 540 640 l 1
 540 560 l 2
 540 518 518 487 481 473 c 1
 503 440 515 398 515 349 c 2
 515 202 l 2
 515 72 433 -8 300 -8 c 0
300 72 m 0
 378 72 425 117 425 202 c 2
 425 348 l 2
 425 433 378 478 300 478 c 0
 222 478 175 433 175 348 c 2
 175 202 l 2
 175 117 222 72 300 72 c 0
EndSplineSet
Validated: 1
EndChar

StartChar: uni1EE1
Encoding: 7905 7905 297
Width: 600
GlyphClass: 2
Flags: W
AnchorPoint: "Anchor-4" 300 275 basechar 0
AnchorPoint: "Anchor-3" 350 0 basechar 0
AnchorPoint: "Anchor-2" 300 0 basechar 0
AnchorPoint: "Anchor-1" 332 550 basechar 0
AnchorPoint: "Anchor-0" 290 550 basechar 0
LayerCount: 2
Fore
SplineSet
360 650 m 0
 280 650 270 720 225 720 c 0
 207 720 195 709 195 685 c 2
 195 655 l 1
 130 655 l 1
 130 685 l 2
 130 745 166 780 220 780 c 0
 300 780 310 710 355 710 c 0
 373 710 385 721 385 745 c 2
 385 775 l 1
 450 775 l 1
 450 745 l 2
 450 685 414 650 360 650 c 0
300 -8 m 0
 167 -8 85 72 85 202 c 2
 85 348 l 2
 85 478 167 558 300 558 c 0
 346 558 387 548 419 530 c 1
 430 530 l 2
 453 530 465 542 465 565 c 2
 465 640 l 1
 540 640 l 1
 540 560 l 2
 540 518 518 487 481 473 c 1
 503 440 515 398 515 349 c 2
 515 202 l 2
 515 72 433 -8 300 -8 c 0
300 72 m 0
 378 72 425 117 425 202 c 2
 425 348 l 2
 425 433 378 478 300 478 c 0
 222 478 175 433 175 348 c 2
 175 202 l 2
 175 117 222 72 300 72 c 0
EndSplineSet
Validated: 1
EndChar

StartChar: ohungarumlaut
Encoding: 337 337 298
Width: 600
GlyphClass: 2
Flags: W
AnchorPoint: "Anchor-4" 300 275 basechar 0
AnchorPoint: "Anchor-3" 350 0 basechar 0
AnchorPoint: "Anchor-2" 300 0 basechar 0
AnchorPoint: "Anchor-1" 332 550 basechar 0
AnchorPoint: "Anchor-0" 300 550 basechar 0
LayerCount: 2
Fore
SplineSet
326 645 m 1
 436 785 l 1
 528 785 l 1
 413 645 l 1
 326 645 l 1
147 645 m 1
 257 785 l 1
 349 785 l 1
 234 645 l 1
 147 645 l 1
300 -8 m 0
 167 -8 85 72 85 202 c 2
 85 348 l 2
 85 478 167 558 300 558 c 0
 433 558 515 478 515 349 c 2
 515 202 l 2
 515 72 433 -8 300 -8 c 0
300 72 m 0
 378 72 425 117 425 202 c 2
 425 348 l 2
 425 433 378 478 300 478 c 0
 222 478 175 433 175 348 c 2
 175 202 l 2
 175 117 222 72 300 72 c 0
EndSplineSet
Validated: 1
EndChar

StartChar: omacron
Encoding: 333 333 299
Width: 600
GlyphClass: 2
Flags: W
AnchorPoint: "Anchor-4" 300 275 basechar 0
AnchorPoint: "Anchor-3" 350 0 basechar 0
AnchorPoint: "Anchor-2" 300 0 basechar 0
AnchorPoint: "Anchor-1" 332 550 basechar 0
AnchorPoint: "Anchor-0" 300 550 basechar 0
LayerCount: 2
Fore
SplineSet
140 670 m 1
 140 745 l 1
 460 745 l 1
 460 670 l 1
 140 670 l 1
300 -8 m 0
 167 -8 85 72 85 202 c 2
 85 348 l 2
 85 478 167 558 300 558 c 0
 433 558 515 478 515 349 c 2
 515 202 l 2
 515 72 433 -8 300 -8 c 0
300 72 m 0
 378 72 425 117 425 202 c 2
 425 348 l 2
 425 433 378 478 300 478 c 0
 222 478 175 433 175 348 c 2
 175 202 l 2
 175 117 222 72 300 72 c 0
EndSplineSet
Validated: 1
EndChar

StartChar: uni01EB
Encoding: 491 491 300
Width: 600
GlyphClass: 2
Flags: W
AnchorPoint: "Anchor-1" 332 550 basechar 0
AnchorPoint: "Anchor-0" 300 550 basechar 0
LayerCount: 2
Fore
SplineSet
372 -203 m 2
 298 -203 250 -164 250 -110 c 0
 250 -81 263 -51 309 -10 c 1
 300 -10 l 2
 169 -10 88 69 88 200 c 2
 88 350 l 2
 88 481 169 560 300 560 c 0
 431 560 512 481 512 351 c 2
 512 200 l 2
 512 117 480 55 423 21 c 1
 399 1 l 2
 354 -36 335 -65 335 -93 c 0
 335 -122 356 -143 390 -143 c 2
 450 -143 l 1
 450 -203 l 1
 372 -203 l 2
300 70 m 0
 378 70 422 115 422 200 c 2
 422 350 l 2
 422 435 378 480 300 480 c 0
 222 480 178 435 178 350 c 2
 178 200 l 2
 178 115 222 70 300 70 c 0
EndSplineSet
Validated: 1
EndChar

StartChar: oslash
Encoding: 248 248 301
Width: 600
GlyphClass: 2
Flags: W
AnchorPoint: "Anchor-2" 300 0 basechar 0
AnchorPoint: "Anchor-1" 332 550 basechar 0
AnchorPoint: "Anchor-0" 300 550 basechar 0
LayerCount: 2
Fore
SplineSet
35 -30 m 1
 116 84 l 1
 98 116 88 155 88 200 c 2
 88 350 l 2
 88 481 169 560 300 560 c 0
 351 560 394 548 428 526 c 1
 474 590 l 1
 565 590 l 1
 481 472 l 1
 501 439 512 399 512 351 c 2
 512 200 l 2
 512 69 431 -10 300 -10 c 0
 246 -10 201 3 166 28 c 1
 125 -30 l 1
 35 -30 l 1
173 200 m 2
 173 189 174 178 176 169 c 1
 380 457 l 1
 359 472 332 480 300 480 c 0
 220 480 173 432 173 350 c 2
 173 200 l 2
300 70 m 0
 380 70 427 118 427 200 c 2
 427 350 l 2
 427 364 426 378 423 390 c 1
 215 97 l 1
 236 79 265 70 300 70 c 0
EndSplineSet
Validated: 1
EndChar

StartChar: oslashacute
Encoding: 511 511 302
Width: 600
GlyphClass: 2
Flags: W
AnchorPoint: "Anchor-2" 300 0 basechar 0
AnchorPoint: "Anchor-1" 332 550 basechar 0
AnchorPoint: "Anchor-0" 300 550 basechar 0
LayerCount: 2
Fore
SplineSet
242 645 m 1
 348 785 l 1
 445 785 l 1
 334 645 l 1
 242 645 l 1
35 -30 m 1
 116 84 l 1
 98 116 88 155 88 200 c 2
 88 350 l 2
 88 481 169 560 300 560 c 0
 351 560 394 548 428 526 c 1
 474 590 l 1
 565 590 l 1
 481 472 l 1
 501 439 512 399 512 351 c 2
 512 200 l 2
 512 69 431 -10 300 -10 c 0
 246 -10 201 3 166 28 c 1
 125 -30 l 1
 35 -30 l 1
173 200 m 2
 173 189 174 178 176 169 c 1
 380 457 l 1
 359 472 332 480 300 480 c 0
 220 480 173 432 173 350 c 2
 173 200 l 2
300 70 m 0
 380 70 427 118 427 200 c 2
 427 350 l 2
 427 364 426 378 423 390 c 1
 215 97 l 1
 236 79 265 70 300 70 c 0
EndSplineSet
Validated: 1
EndChar

